<?xml version="1.0" encoding="UTF-8" standalone="no"?>
<!-- Created with Inkscape (http://www.inkscape.org/) -->

<svg
   width="119.32708mm"
   height="121.70834mm"
   viewBox="0 0 119.32708 121.70834"
   version="1.1"
   id="svg1797"
   xml:space="preserve"
   inkscape:version="1.2 (dc2aedaf03, 2022-05-15)"
   sodipodi:docname="Highlighted Background_Pets.svg"
   xmlns:inkscape="http://www.inkscape.org/namespaces/inkscape"
   xmlns:sodipodi="http://sodipodi.sourceforge.net/DTD/sodipodi-0.dtd"
   xmlns:xlink="http://www.w3.org/1999/xlink"
   xmlns="http://www.w3.org/2000/svg"
   xmlns:svg="http://www.w3.org/2000/svg"><sodipodi:namedview
     id="namedview1799"
     pagecolor="#505050"
     bordercolor="#ffffff"
     borderopacity="1"
     inkscape:showpageshadow="0"
     inkscape:pageopacity="0"
     inkscape:pagecheckerboard="1"
     inkscape:deskcolor="#505050"
     inkscape:document-units="mm"
     showgrid="false"
     inkscape:zoom="0.6333638"
     inkscape:cx="56.839371"
     inkscape:cy="255.77717"
     inkscape:window-width="1366"
     inkscape:window-height="705"
     inkscape:window-x="-8"
     inkscape:window-y="-8"
     inkscape:window-maximized="1"
     inkscape:current-layer="g30692" /><defs
     id="defs1794"><pattern
       inkscape:collect="always"
       patternUnits="userSpaceOnUse"
       width="2"
       height="1"
       patternTransform="translate(0,0) scale(10,10)"
       id="Strips1_1white"
       inkscape:stockid="Stripes 1:1 white"><rect
         style="fill:white;stroke:none"
         x="0"
         y="-0.5"
         width="1"
         height="2"
         id="rect27302" /></pattern><inkscape:path-effect
       effect="mirror_symmetry"
       start_point="76.868493,172.142"
       end_point="76.868493,178.69508"
       center_point="76.868493,175.41854"
       id="path-effect26190"
       is_visible="true"
       lpeversion="1.2"
       lpesatellites=""
       mode="vertical"
       discard_orig_path="false"
       fuse_paths="false"
       oposite_fuse="false"
       split_items="false"
       split_open="false"
       link_styles="false" /><inkscape:path-effect
       effect="mirror_symmetry"
       start_point="173.94062,173.44692"
       end_point="173.94062,183.96342"
       center_point="173.94062,178.70517"
       id="path-effect26179"
       is_visible="true"
       lpeversion="1.2"
       lpesatellites=""
       mode="horizontal"
       discard_orig_path="false"
       fuse_paths="false"
       oposite_fuse="false"
       split_items="false"
       split_open="false"
       link_styles="false" /><inkscape:path-effect
       effect="mirror_symmetry"
       start_point="76.868493,172.142"
       end_point="76.868493,178.69508"
       center_point="76.868493,175.41854"
       id="path-effect25483"
       is_visible="true"
       lpeversion="1.2"
       lpesatellites=""
       mode="vertical"
       discard_orig_path="false"
       fuse_paths="false"
       oposite_fuse="false"
       split_items="false"
       split_open="false"
       link_styles="false" /><inkscape:path-effect
       effect="fillet_chamfer"
       id="path-effect19389"
       is_visible="true"
       lpeversion="1"
       nodesatellites_param="F,0,0,1,0,4.5010061,0,1 @ F,0,0,1,0,0,0,1 @ F,0,0,1,0,0,0,1 @ F,0,0,1,0,4.7670221,0,1 @ F,0,0,1,0,0,0,1 @ F,0,0,1,0,0,0,1 @ F,0,0,1,0,0,0,1 @ F,0,0,1,0,0,0,1"
       unit="px"
       method="auto"
       mode="F"
       radius="0"
       chamfer_steps="1"
       flexible="false"
       use_knot_distance="true"
       apply_no_radius="true"
       apply_with_radius="true"
       only_selected="false"
       hide_knots="false" /><inkscape:path-effect
       effect="fillet_chamfer"
       id="path-effect19292"
       is_visible="true"
       lpeversion="1"
       nodesatellites_param="F,0,0,1,0,0,0,1 @ F,0,0,1,0,0,0,1 @ F,0,0,1,0,0,0,1 @ F,0,0,1,0,3.325507,0,1"
       unit="px"
       method="auto"
       mode="F"
       radius="0"
       chamfer_steps="1"
       flexible="false"
       use_knot_distance="true"
       apply_no_radius="true"
       apply_with_radius="true"
       only_selected="false"
       hide_knots="false" /><inkscape:path-effect
       effect="fillet_chamfer"
       id="path-effect19290"
       is_visible="true"
       lpeversion="1"
       nodesatellites_param="F,0,0,1,0,0,0,1 @ F,0,0,1,0,3.7467365,0,1 @ F,0,0,1,0,0,0,1 @ F,0,0,1,0,0,0,1 @ F,0,0,1,0,0,0,1"
       unit="px"
       method="auto"
       mode="F"
       radius="0"
       chamfer_steps="1"
       flexible="false"
       use_knot_distance="true"
       apply_no_radius="true"
       apply_with_radius="true"
       only_selected="false"
       hide_knots="false" /><linearGradient
       inkscape:collect="always"
       id="linearGradient19158"><stop
         style="stop-color:#ff746c;stop-opacity:1;"
         offset="0.2"
         id="stop19154" /><stop
         style="stop-color:#ff746c;stop-opacity:1;"
         offset="1"
         id="stop19156" /></linearGradient><inkscape:path-effect
       effect="fillet_chamfer"
       id="path-effect18802"
       is_visible="true"
       lpeversion="1"
       nodesatellites_param="F,0,0,1,0,8,0,1 @ F,0,0,1,0,8,0,1 @ F,0,0,1,0,10,0,1 @ F,0,0,1,0,10,0,1"
       unit="px"
       method="auto"
       mode="F"
       radius="0"
       chamfer_steps="1"
       flexible="false"
       use_knot_distance="true"
       apply_no_radius="true"
       apply_with_radius="true"
       only_selected="false"
       hide_knots="false" /><linearGradient
       inkscape:collect="always"
       id="linearGradient18359"><stop
         style="stop-color:#ab2727;stop-opacity:1;"
         offset="0"
         id="stop18355" /><stop
         style="stop-color:#d1463e;stop-opacity:1;"
         offset="1"
         id="stop18357" /></linearGradient><inkscape:path-effect
       effect="fillet_chamfer"
       id="path-effect17426"
       is_visible="true"
       lpeversion="1"
       nodesatellites_param="F,0,0,1,0,8,0,1 @ F,0,0,1,0,8,0,1 @ F,0,0,1,0,10,0,1 @ F,0,0,1,0,10,0,1"
       unit="px"
       method="auto"
       mode="F"
       radius="0"
       chamfer_steps="1"
       flexible="false"
       use_knot_distance="true"
       apply_no_radius="true"
       apply_with_radius="true"
       only_selected="false"
       hide_knots="false" /><inkscape:path-effect
       effect="fillet_chamfer"
       id="path-effect17420"
       is_visible="true"
       lpeversion="1"
       nodesatellites_param="F,0,0,1,0,8,0,1 @ F,0,0,1,0,8,0,1 @ F,0,0,1,0,10,0,1 @ F,0,0,1,0,10,0,1"
       unit="px"
       method="auto"
       mode="F"
       radius="0"
       chamfer_steps="1"
       flexible="false"
       use_knot_distance="true"
       apply_no_radius="true"
       apply_with_radius="true"
       only_selected="false"
       hide_knots="false" /><linearGradient
       inkscape:collect="always"
       id="linearGradient17144"><stop
         style="stop-color:#eefbdb;stop-opacity:1;"
         offset="0.38095239"
         id="stop17140" /><stop
         style="stop-color:#a4ca96;stop-opacity:1;"
         offset="1"
         id="stop17142" /></linearGradient><linearGradient
       inkscape:collect="always"
       id="linearGradient16560"><stop
         style="stop-color:#559fbd;stop-opacity:1;"
         offset="0.66904759"
         id="stop16556" /><stop
         style="stop-color:#336b9c;stop-opacity:1;"
         offset="1"
         id="stop16558" /></linearGradient><linearGradient
       inkscape:collect="always"
       id="linearGradient15820"><stop
         style="stop-color:#a0b6da;stop-opacity:1;"
         offset="0"
         id="stop15816" /><stop
         style="stop-color:#455acd;stop-opacity:1;"
         offset="1"
         id="stop15818" /></linearGradient><inkscape:path-effect
       effect="fillet_chamfer"
       id="path-effect14981"
       is_visible="true"
       lpeversion="1"
       nodesatellites_param="F,0,0,1,0,8,0,1 @ F,0,0,1,0,8,0,1 @ F,0,0,1,0,10,0,1 @ F,0,0,1,0,10,0,1"
       unit="px"
       method="auto"
       mode="F"
       radius="0"
       chamfer_steps="1"
       flexible="false"
       use_knot_distance="true"
       apply_no_radius="true"
       apply_with_radius="true"
       only_selected="false"
       hide_knots="false" /><inkscape:path-effect
       effect="fillet_chamfer"
       id="path-effect14975"
       is_visible="true"
       lpeversion="1"
       nodesatellites_param="F,0,0,1,0,8,0,1 @ F,0,0,1,0,8,0,1 @ F,0,0,1,0,10,0,1 @ F,0,0,1,0,10,0,1"
       unit="px"
       method="auto"
       mode="F"
       radius="0"
       chamfer_steps="1"
       flexible="false"
       use_knot_distance="true"
       apply_no_radius="true"
       apply_with_radius="true"
       only_selected="false"
       hide_knots="false" /><inkscape:path-effect
       effect="fillet_chamfer"
       id="path-effect14910"
       is_visible="true"
       lpeversion="1"
       nodesatellites_param="F,0,0,1,0,8,0,1 @ F,0,0,1,0,8,0,1 @ F,0,0,1,0,10,0,1 @ F,0,0,1,0,10,0,1"
       unit="px"
       method="auto"
       mode="F"
       radius="0"
       chamfer_steps="1"
       flexible="false"
       use_knot_distance="true"
       apply_no_radius="true"
       apply_with_radius="true"
       only_selected="false"
       hide_knots="false" /><linearGradient
       inkscape:collect="always"
       id="linearGradient7310"><stop
         style="stop-color:#d58955;stop-opacity:1;"
         offset="0"
         id="stop7306" /><stop
         style="stop-color:#e4af88;stop-opacity:1;"
         offset="1"
         id="stop7308" /></linearGradient><inkscape:path-effect
       effect="tiling"
       id="path-effect7304"
       is_visible="true"
       lpeversion="1"
       unit="px"
       seed="1;1"
       lpesatellites=""
       num_rows="3"
       num_cols="1"
       gapx="0"
       gapy="57"
       offset="0"
       offset_type="false"
       scale="0"
       rotate="0"
       mirrorrowsx="false"
       mirrorrowsy="false"
       mirrorcolsx="false"
       mirrorcolsy="false"
       mirrortrans="false"
       shrink_interp="false"
       split_items="false"
       link_styles="false"
       interpolate_scalex="false"
       interpolate_scaley="true"
       interpolate_rotatex="false"
       interpolate_rotatey="true"
       random_scale="false"
       random_rotate="false"
       random_gap_y="false"
       random_gap_x="false"
       transformorigin="matrix(1,0,0,0.43269853,0,90.948183)" /><inkscape:path-effect
       effect="mirror_symmetry"
       start_point="69.608471,172.60554"
       end_point="69.608471,182.75412"
       center_point="69.608471,177.67983"
       id="path-effect26443"
       is_visible="true"
       lpeversion="1.2"
       lpesatellites=""
       mode="vertical"
       discard_orig_path="false"
       fuse_paths="false"
       oposite_fuse="false"
       split_items="false"
       split_open="false"
       link_styles="false" /><inkscape:path-effect
       effect="mirror_symmetry"
       start_point="100.27525,133.54234"
       end_point="100.27525,148.01968"
       center_point="100.27525,140.78101"
       id="path-effect2697"
       is_visible="true"
       lpeversion="1.2"
       lpesatellites=""
       mode="vertical"
       discard_orig_path="false"
       fuse_paths="false"
       oposite_fuse="false"
       split_items="false"
       split_open="false"
       link_styles="false" /><inkscape:path-effect
       effect="mirror_symmetry"
       start_point="93.53111,129.5501"
       end_point="93.53111,149.6054"
       center_point="93.53111,139.57775"
       id="path-effect2200"
       is_visible="true"
       lpeversion="1.2"
       lpesatellites=""
       mode="vertical"
       discard_orig_path="false"
       fuse_paths="false"
       oposite_fuse="false"
       split_items="false"
       split_open="false"
       link_styles="false" /><inkscape:path-effect
       effect="tiling"
       id="path-effect23881"
       is_visible="true"
       lpeversion="1"
       unit="px"
       seed="1;-1575518399"
       lpesatellites=""
       num_rows="1"
       num_cols="2"
       gapx="24"
       gapy="0"
       offset="-22"
       offset_type="true"
       scale="0"
       rotate="79"
       mirrorrowsx="false"
       mirrorrowsy="false"
       mirrorcolsx="false"
       mirrorcolsy="false"
       mirrortrans="false"
       shrink_interp="false"
       split_items="true"
       link_styles="false"
       interpolate_scalex="false"
       interpolate_scaley="true"
       interpolate_rotatex="false"
       interpolate_rotatey="false"
       random_scale="false"
       random_rotate="true"
       random_gap_y="false"
       random_gap_x="true"
       transformorigin="rotate(13.426126,48.01738,123.95761)" /><inkscape:path-effect
       effect="tiling"
       id="path-effect21528"
       is_visible="true"
       lpeversion="1"
       unit="px"
       seed="1;-1575518399"
       lpesatellites=""
       num_rows="1"
       num_cols="3"
       gapx="24"
       gapy="0"
       offset="-22"
       offset_type="true"
       scale="0"
       rotate="79"
       mirrorrowsx="false"
       mirrorrowsy="false"
       mirrorcolsx="false"
       mirrorcolsy="false"
       mirrortrans="false"
       shrink_interp="false"
       split_items="false"
       link_styles="false"
       interpolate_scalex="false"
       interpolate_scaley="true"
       interpolate_rotatex="false"
       interpolate_rotatey="false"
       random_scale="false"
       random_rotate="true"
       random_gap_y="false"
       random_gap_x="true"
       transformorigin="rotate(13.426126,48.01738,123.95761)" /><inkscape:path-effect
       effect="mirror_symmetry"
       start_point="69.608471,172.60554"
       end_point="69.608471,182.75412"
       center_point="69.608471,177.67983"
       id="path-effect8079"
       is_visible="true"
       lpeversion="1.2"
       lpesatellites=""
       mode="vertical"
       discard_orig_path="false"
       fuse_paths="false"
       oposite_fuse="false"
       split_items="false"
       split_open="false"
       link_styles="false" /><inkscape:path-effect
       effect="mirror_symmetry"
       start_point="103.97692,139.9594"
       end_point="103.97692,165.86641"
       center_point="103.97692,152.9129"
       id="path-effect6466"
       is_visible="true"
       lpeversion="1.2"
       lpesatellites=""
       mode="free"
       discard_orig_path="false"
       fuse_paths="true"
       oposite_fuse="false"
       split_items="false"
       split_open="false"
       link_styles="false" /><filter
       style="color-interpolation-filters:sRGB;"
       inkscape:label="Drop Shadow"
       id="filter21053"
       x="-0.0020359627"
       y="-0.011812753"
       width="1.0491472"
       height="1.0129414"><feFlood
         flood-opacity="1"
         flood-color="rgb(255,117,254)"
         result="flood"
         id="feFlood21043" /><feComposite
         in="flood"
         in2="SourceGraphic"
         operator="in"
         result="composite1"
         id="feComposite21045" /><feGaussianBlur
         in="composite1"
         stdDeviation="0"
         result="blur"
         id="feGaussianBlur21047" /><feOffset
         dx="0.46729"
         dy="-0.2"
         result="offset"
         id="feOffset21049" /><feComposite
         in="SourceGraphic"
         in2="offset"
         operator="over"
         result="composite2"
         id="feComposite21051" /></filter><filter
       style="color-interpolation-filters:sRGB"
       inkscape:label="Drop Shadow"
       id="filter1818"
       x="0"
       y="-0.0066048026"
       width="1.0061954"
       height="1.0066048"><feFlood
         flood-opacity="1"
         flood-color="rgb(255,117,254)"
         result="flood"
         id="feFlood1808" /><feComposite
         in="flood"
         in2="SourceGraphic"
         operator="in"
         result="composite1"
         id="feComposite1810" /><feGaussianBlur
         in="composite1"
         stdDeviation="0"
         result="blur"
         id="feGaussianBlur1812" /><feOffset
         dx="0.46729"
         dy="-0.2"
         result="offset"
         id="feOffset1814" /><feComposite
         in="SourceGraphic"
         in2="offset"
         operator="over"
         result="composite2"
         id="feComposite1816" /></filter><filter
       style="color-interpolation-filters:sRGB;"
       inkscape:label="Drop Shadow"
       id="filter4383"
       x="-0.010056393"
       y="-0.22701918"
       width="1.0201128"
       height="1.3972836"><feFlood
         flood-opacity="0.266667"
         flood-color="rgb(48,48,48)"
         result="flood"
         id="feFlood4373" /><feComposite
         in="flood"
         in2="SourceGraphic"
         operator="in"
         result="composite1"
         id="feComposite4375" /><feGaussianBlur
         in="composite1"
         stdDeviation="0.5"
         result="blur"
         id="feGaussianBlur4377" /><feOffset
         dx="-1.38778e-16"
         dy="-0.4"
         result="offset"
         id="feOffset4379" /><feComposite
         in="SourceGraphic"
         in2="offset"
         operator="over"
         result="composite2"
         id="feComposite4381" /></filter><linearGradient
       inkscape:collect="always"
       xlink:href="#linearGradient7310"
       id="linearGradient7312"
       x1="105.01003"
       y1="154.47029"
       x2="103.40018"
       y2="218.36148"
       gradientUnits="userSpaceOnUse" /><linearGradient
       inkscape:collect="always"
       xlink:href="#linearGradient15820"
       id="linearGradient15822"
       x1="108.35609"
       y1="146.30066"
       x2="108.62389"
       y2="62.486359"
       gradientUnits="userSpaceOnUse" /><radialGradient
       inkscape:collect="always"
       xlink:href="#linearGradient16560"
       id="radialGradient16562"
       cx="103.97691"
       cy="173.89563"
       fx="103.97691"
       fy="173.89563"
       r="38.928192"
       gradientTransform="matrix(1,0,0,0.46050923,0,95.64113)"
       gradientUnits="userSpaceOnUse" /><linearGradient
       inkscape:collect="always"
       xlink:href="#linearGradient17144"
       id="linearGradient17146"
       x1="104.75878"
       y1="133.04063"
       x2="104.48401"
       y2="175.57663"
       gradientUnits="userSpaceOnUse" /><linearGradient
       inkscape:collect="always"
       xlink:href="#linearGradient18359"
       id="linearGradient18361"
       x1="103.97691"
       y1="193.64845"
       x2="104.00639"
       y2="181.87708"
       gradientUnits="userSpaceOnUse" /><linearGradient
       inkscape:collect="always"
       xlink:href="#linearGradient19158"
       id="linearGradient19160"
       x1="67.55645"
       y1="147.31032"
       x2="69.466713"
       y2="161.27527"
       gradientUnits="userSpaceOnUse" /></defs><g
     inkscape:label="Layer 1"
     inkscape:groupmode="layer"
     id="layer1"
     transform="translate(-44.313374,-78.569412)"><g
       id="g12064"><g
         id="g11277"><g
           id="g30692"><rect
             style="opacity:1;fill:url(#linearGradient15822);fill-opacity:1;stroke-width:0.636184;stroke-linecap:round;stroke-linejoin:round"
             id="rect1837"
             width="119.32708"
             height="121.70834"
             x="44.313374"
             y="78.569412"
             ry="0"
             inkscape:label="bg" /><rect
             style="display:inline;opacity:0.409;fill:url(#Strips1_1white);fill-opacity:1;stroke-width:0.636184;stroke-linecap:round;stroke-linejoin:round"
             id="rect26301"
             width="119.32708"
             height="121.70834"
             x="44.313374"
             y="78.569412"
             ry="0"
             inkscape:label="bg" /><rect
             style="opacity:1;fill:#ca2c88;fill-opacity:1;stroke-width:0.114304;stroke-linecap:round;stroke-linejoin:round;stroke-miterlimit:9.4"
             id="rect77404"
             width="119.32915"
             height="14.007098"
             x="44.31234"
             y="186.27065" /><path
             id="path11110"
             style="opacity:1;fill:url(#linearGradient7312);fill-opacity:1;stroke-width:0.900629;stroke-linecap:round;stroke-linejoin:round"
             inkscape:label="bg overlay"
             d="M 44.313374 152.47394 L 44.313374 196.73326 C 44.313374 196.85599 44.319402 196.97709 44.331461 197.09654 C 44.343519 197.21599 44.361672 197.3334 44.385204 197.44898 C 44.408736 197.56456 44.4376 197.6784 44.472021 197.78953 C 44.506441 197.90065 44.546153 198.00951 44.590876 198.1156 C 44.6356 198.22169 44.685779 198.32468 44.740221 198.42515 C 44.794663 198.52561 44.853379 198.62337 44.916955 198.71763 C 44.98053 198.81189 45.048953 198.90302 45.121077 198.99049 C 45.193201 199.07795 45.269399 199.16155 45.349486 199.24163 C 45.429574 199.32172 45.513168 199.39792 45.600634 199.47004 C 45.6881 199.54217 45.779227 199.61059 45.873485 199.67416 C 45.967744 199.73774 46.065507 199.79697 46.165974 199.85141 C 46.266441 199.90586 46.369425 199.95552 46.475516 200.00024 C 46.581607 200.04497 46.690465 200.08468 46.801594 200.1191 C 46.912723 200.15352 47.02656 200.18238 47.142142 200.20592 C 47.257724 200.22945 47.375124 200.2476 47.494575 200.25966 C 47.614026 200.27172 47.735126 200.27775 47.85786 200.27775 L 160.09597 200.27775 C 160.2187 200.27775 160.33981 200.27172 160.45926 200.25966 C 160.57871 200.2476 160.69611 200.22945 160.81169 200.20592 C 160.92727 200.18238 161.04111 200.15352 161.15224 200.1191 C 161.26337 200.08468 161.37222 200.04497 161.47832 200.00024 C 161.58441 199.95552 161.68739 199.90586 161.78786 199.85141 C 161.88832 199.79697 161.98609 199.73774 162.08035 199.67416 C 162.1746 199.61059 162.26573 199.54217 162.3532 199.47004 C 162.44066 199.39792 162.52426 199.32172 162.60434 199.24163 C 162.68443 199.16155 162.76063 199.07795 162.83275 198.99049 C 162.90488 198.90302 162.9733 198.81189 163.03688 198.71763 C 163.10045 198.62337 163.15917 198.52561 163.21361 198.42515 C 163.26805 198.32468 163.31823 198.22169 163.36295 198.1156 C 163.40768 198.00951 163.44739 197.90065 163.48181 197.78953 C 163.51623 197.6784 163.5451 197.56456 163.56863 197.44898 C 163.59216 197.3334 163.61031 197.21599 163.62237 197.09654 C 163.63443 196.97709 163.64046 196.85599 163.64046 196.73326 L 163.64046 152.47394 L 44.313374 152.47394 z " /><path
             style="opacity:0.464191;fill:#743c16;fill-opacity:1;stroke-width:0.0692567;stroke-linecap:round;stroke-linejoin:round;stroke-miterlimit:9.4"
             id="rect6264"
             width="119.32707"
             height="2.7431543"
             x="44.313374"
             y="160.3172"
             inkscape:path-effect="#path-effect7304"
             class="UnoptimicedTransforms"
             d="M 44.313374,160.3172 H 163.64045 v 2.74315 H 44.313374 Z m 0,37.5971 H 163.64045 v 2.74315 H 44.313374 Z m 0,37.59709 H 163.64045 v 2.74316 H 44.313374 Z"
             sodipodi:type="rect"
             transform="matrix(1,0,0,0.43269853,0,96.239853)" /><rect
             style="opacity:1;fill:#ecf1f7;fill-opacity:1;stroke-width:0.0990342;stroke-linecap:round;stroke-linejoin:round;stroke-miterlimit:9.4;filter:url(#filter4383)"
             id="rect2554"
             width="119.32708"
             height="7.0478625"
             x="44.313374"
             y="145.42607" /><path
             id="path14977"
             style="opacity:1;fill:url(#linearGradient17146);fill-opacity:1;stroke-width:0.0739718;stroke-linecap:round;stroke-linejoin:round;stroke-miterlimit:9.4"
             d="m 70.156006,136.17466 c 23.265524,-3.32196 46.332944,-3.91328 69.089634,-0.22152 4.36092,0.70746 8.02301,5.03046 8.1197,9.44762 0.33641,15.36773 -0.37305,25.58681 -1.42636,34.11322 -0.67707,5.48087 -5.78017,10.94701 -11.21029,11.95203 -21.25568,3.93406 -41.240337,4.11391 -59.879214,0.31868 -5.410426,-1.10166 -10.8676,-6.70357 -11.93866,-12.12085 -2.116188,-10.70339 -3.141238,-21.94393 -1.810684,-34.34411 0.471271,-4.39204 4.68207,-8.52056 9.055874,-9.14507 z"
             sodipodi:nodetypes="ccccc"
             inkscape:path-effect="#path-effect14981"
             inkscape:original-d="m 62.25137,137.40488 c 28.636324,-4.81595 56.99287,-5.77552 84.8608,0 1.1003,27.01495 -0.6802,39.8481 -2.59777,52.00653 -28.73875,6.7341 -55.255986,6.90652 -79.376608,0 -4.045531,-15.8176 -6.477067,-32.42975 -2.886422,-52.00653 z" /><ellipse
             style="mix-blend-mode:multiply;fill:#01001c;fill-opacity:0.35465118;fill-rule:evenodd;stroke-width:0.215591"
             id="path15828"
             cx="103.97691"
             cy="184.05559"
             rx="48.76247"
             ry="14.330195" /><ellipse
             style="fill:#c2dcb7;fill-opacity:1;fill-rule:evenodd;stroke-width:0.261789"
             id="ellipse17138"
             cx="103.97691"
             cy="173.3902"
             rx="38.928192"
             ry="18.141621" /><path
             id="path17416"
             style="opacity:1;fill:#fbfefa;fill-opacity:1;stroke-width:0.0739718;stroke-linecap:round;stroke-linejoin:round;stroke-miterlimit:9.4"
             d="M 107.05063 133.42498 C 94.81954 133.41569 82.516038 134.40989 70.156241 136.17468 C 65.782441 136.79919 61.571217 140.92782 61.099946 145.31986 C 60.583644 150.13157 60.425748 154.76691 60.544941 159.26578 C 60.616657 156.52038 60.792932 153.72339 61.099946 150.86216 C 61.571217 146.47012 65.782441 142.34149 70.156241 141.71698 C 93.421742 138.39502 116.4889 137.80353 139.24556 141.49529 C 143.60648 142.20275 147.26879 146.52562 147.36548 150.94277 C 147.4009 152.56057 147.42219 154.10919 147.43524 155.61691 C 147.46529 152.474 147.44622 149.08925 147.36548 145.40099 C 147.26879 140.98384 143.60648 136.66045 139.24556 135.95299 C 128.57838 134.22248 117.84277 133.43317 107.05063 133.42498 z " /><ellipse
             style="fill:url(#radialGradient16562);fill-opacity:1;fill-rule:evenodd;stroke-width:0.260234"
             id="path15762"
             cx="103.97691"
             cy="175.72166"
             rx="38.928192"
             ry="17.926792" /><path
             id="path25376"
             style="opacity:0.95490716;fill:#316693;stroke-width:0.0491377;stroke-linecap:round;stroke-linejoin:round;stroke-miterlimit:9.4;fill-opacity:1"
             d="m 65.109004,176.66058 c 0.01835,0.18068 0.04264,0.36123 0.07286,0.54157 0.04427,0.24614 0.09957,0.49183 0.165881,0.73691 0.06636,0.24514 0.143721,0.48962 0.232027,0.73329 0.0031,0.008 0.0062,0.0152 0.0093,0.0227 3.004773,-3.14225 6.622371,-5.50718 11.279415,-6.55308 -4.659984,0.50246 -8.475662,2.15007 -11.759489,4.51858 z m 77.735816,0 c -0.0183,0.18068 -0.0426,0.36123 -0.0729,0.54157 -0.0443,0.24614 -0.0996,0.49183 -0.16588,0.73691 -0.0664,0.24514 -0.14372,0.48962 -0.23203,0.73329 -0.003,0.008 -0.006,0.0152 -0.009,0.0227 -3.00477,-3.14225 -6.62237,-5.50718 -11.27942,-6.55308 4.65999,0.50246 8.47567,2.15007 11.75949,4.51858 z"
             inkscape:path-effect="#path-effect25483"
             inkscape:original-d="M 65.109004 176.66058 A 38.928192 17.926792 0 0 0 65.181868 177.20215 A 38.928192 17.926792 0 0 0 65.347749 177.93906 A 38.928192 17.926792 0 0 0 65.579776 178.67235 A 38.928192 17.926792 0 0 0 65.589078 178.69508 C 68.593851 175.55283 72.211449 173.1879 76.868493 172.142 C 72.208509 172.64446 68.392831 174.29207 65.109004 176.66058 z "
             class="UnoptimicedTransforms" /><path
             id="path26186"
             style="opacity:0.954907;fill:#316693;fill-opacity:1;stroke-width:0.0491377;stroke-linecap:round;stroke-linejoin:round;stroke-miterlimit:9.4"
             d="m 65.109004,176.66058 c 0.01835,0.18068 0.04264,0.36123 0.07286,0.54157 0.04426,0.24614 0.09957,0.49183 0.165881,0.73691 0.06636,0.24514 0.143721,0.48962 0.232027,0.73329 0.0031,0.008 0.0062,0.0151 0.0093,0.0227 3.004773,-3.14225 6.622371,-5.50718 11.279415,-6.55308 -4.659984,0.50246 -8.475662,2.15007 -11.759489,4.51858 z m -7.171124,9.73621 c 0.177995,-0.0361 0.357619,-0.0664 0.538811,-0.0911 0.248189,-0.0307 0.499227,-0.0508 0.75295,-0.0601 0.253793,-0.009 0.510218,-0.008 0.769113,0.004 0.0081,7e-4 0.01629,0.001 0.02444,0.002 -2.109632,3.80156 -3.295157,7.95781 -2.912705,12.71551 -0.90231,-4.59932 -0.460577,-8.73198 0.827364,-12.57055 z"
             inkscape:path-effect="#path-effect26190"
             inkscape:original-d="m 65.109004,176.66058 a 38.928192,17.926792 0 0 0 0.07286,0.54157 38.928192,17.926792 0 0 0 0.165881,0.73691 38.928192,17.926792 0 0 0 0.232027,0.73329 38.928192,17.926792 0 0 0 0.0093,0.0227 c 3.004773,-3.14225 6.622371,-5.50718 11.279415,-6.55308 -4.659984,0.50246 -8.475662,2.15007 -11.759489,4.51858 z"
             class="UnoptimicedTransforms"
             transform="matrix(-0.59304225,0.80517134,0.80517134,0.59304225,-5.6987798,15.636318)" /><path
             id="rect14030"
             style="opacity:1;fill:#d1463e;fill-opacity:1;stroke-width:0.0739718;stroke-linecap:round;stroke-linejoin:round;stroke-miterlimit:9.4"
             d="m 145.10828,138.76972 c -11.28333,10.86158 -2.03931,19.77069 -3.78727,29.0575 -0.86239,4.45904 -5.02639,9.06725 -9.53503,10.01662 -19.57204,4.12122 -37.946993,4.3007 -55.052504,0.30075 -4.485049,-1.04878 -8.987205,-5.7802 -9.890545,-10.23283 -1.790411,-8.82508 7.644084,-22.20924 -4.108692,-27.60896 -0.782677,1.10046 -1.319803,2.3385 -1.472968,3.60478 -1.649692,13.63885 -0.432647,25.86653 2.003651,37.49389 0.931562,4.44594 5.459096,9.06535 9.961302,10.0421 19.573535,4.24646 40.646456,4.06456 63.130536,-0.28588 4.52421,-0.8754 8.76184,-5.37931 9.35684,-9.88111 1.20812,-9.14077 2.05916,-20.03903 1.61793,-37.29933 -0.0483,-1.89192 -0.90421,-3.76038 -2.22325,-5.20753 z"
             sodipodi:nodetypes="ccssscssssssc" /><path
             id="path17509"
             style="opacity:1;fill:#ff746c;fill-opacity:1;stroke-width:0.0739718;stroke-linecap:round;stroke-linejoin:round;stroke-miterlimit:9.4"
             d="m 68.683563,175.74429 c 1.927608,2.91289 4.967617,5.38371 8.049913,6.10447 17.105477,3.99994 35.480454,3.82044 55.052454,-0.30076 2.96912,-0.6252 5.78796,-2.83703 7.61312,-5.54811 1.46124,-2.1705 1.22805,-4.34224 0.40551,-4.34224 -1.79593,2.99691 -4.81992,5.51264 -8.01863,6.18618 -19.572,4.12122 -37.946977,4.3007 -55.052454,0.30076 -3.216345,-0.75211 -6.386527,-3.40978 -8.295101,-6.48694 -0.875332,0 -1.119542,2.02433 0.245188,4.08664 z"
             inkscape:original-d="m 66.853459,171.65765 c 1.027054,4.41794 5.409049,9.14563 9.880017,10.19111 17.105477,3.99994 35.480454,3.82044 55.052454,-0.30076 4.46618,-0.94043 8.59234,-5.47086 9.50795,-9.89035 h -1.48932 c -1.79593,2.99691 -4.81992,5.51264 -8.01863,6.18618 -19.572,4.12122 -37.946977,4.3007 -55.052454,0.30076 -3.216345,-0.75211 -6.386527,-3.40978 -8.295101,-6.48694 z"
             inkscape:path-effect="#path-effect19389" /><path
             id="path17569"
             style="opacity:1;fill:url(#linearGradient18361);fill-opacity:1;stroke-width:0.0739718;stroke-linecap:round;stroke-linejoin:round;stroke-miterlimit:9.4"
             d="m 63.014466,180.1749 c 0.08237,0.40928 0.164674,0.81851 0.250114,1.22628 0.93156,4.44594 5.459468,9.06553 9.961666,10.04228 19.573495,4.24646 40.646474,4.06467 63.130514,-0.28577 4.52421,-0.8754 8.76154,-5.37925 9.35654,-9.88105 0.0474,-0.35898 0.0912,-0.73706 0.13746,-1.10174 h -1.71101 c -1.75517,2.8152 -4.70198,5.09497 -7.78299,5.69112 -22.48404,4.35044 -43.557019,4.53223 -63.130514,0.28577 -3.108526,-0.67438 -6.22868,-3.08548 -8.169527,-5.97689 z" /><ellipse
             style="mix-blend-mode:multiply;fill:#01001c;fill-opacity:0.354651;fill-rule:evenodd;stroke-width:0.049192"
             id="ellipse22890"
             cx="147.11549"
             cy="195.11603"
             rx="11.126261"
             ry="3.2697582" /><g
             id="g22888"
             transform="rotate(11.018814,147.52992,185.83608)"><ellipse
               style="fill:#a0d43e;fill-opacity:1;fill-rule:evenodd;stroke-width:0.127632"
               id="path19487"
               cx="147.5298"
               cy="185.83607"
               rx="11.352057"
               ry="11.23256" /><path
               id="path21267"
               style="fill:#7faf40;fill-opacity:1;fill-rule:evenodd;stroke-width:0.264583"
               d="m 140.13078,194.34839 a 11.352057,11.23256 0 0 0 0.1018,0.0925 11.352057,11.23256 0 0 0 0.786,0.59635 11.352057,11.23256 0 0 0 0.83509,0.52658 11.352057,11.23256 0 0 0 0.8785,0.45217 11.352057,11.23256 0 0 0 0.91519,0.37517 11.352057,11.23256 0 0 0 0.94413,0.29456 11.352057,11.23256 0 0 0 0.96687,0.21239 11.352057,11.23256 0 0 0 0.98185,0.12764 11.352057,11.23256 0 0 0 0.9896,0.0429 11.352057,11.23256 0 0 0 0.98961,-0.0429 11.352057,11.23256 0 0 0 0.98185,-0.12764 11.352057,11.23256 0 0 0 0.96686,-0.21239 11.352057,11.23256 0 0 0 0.94413,-0.29456 11.352057,11.23256 0 0 0 0.91519,-0.37517 11.352057,11.23256 0 0 0 0.8785,-0.45217 11.352057,11.23256 0 0 0 0.83509,-0.52658 11.352057,11.23256 0 0 0 0.78549,-0.59635 11.352057,11.23256 0 0 0 0.73018,-0.66197 11.352057,11.23256 0 0 0 0.66921,-0.72244 11.352057,11.23256 0 0 0 0.60307,-0.77773 11.352057,11.23256 0 0 0 0.53175,-0.82631 11.352057,11.23256 0 0 0 0.45733,-0.86919 11.352057,11.23256 0 0 0 0.37931,-0.90537 11.352057,11.23256 0 0 0 0.29765,-0.93483 11.352057,11.23256 0 0 0 0.21446,-0.95653 11.352057,11.23256 0 0 0 0.12919,-0.97152 11.352057,11.23256 0 0 0 0.0434,-0.97875 11.352057,11.23256 0 0 0 -0.005,-0.32711 11.352057,11.23256 0 0 0 -0.0145,-0.32608 11.352057,11.23256 0 0 0 -0.0238,-0.32608 11.352057,11.23256 0 0 0 -0.0336,-0.32504 11.352057,11.23256 0 0 0 -0.0429,-0.32401 11.352057,11.23256 0 0 0 -0.0527,-0.32247 11.352057,11.23256 0 0 0 -0.062,-0.32091 11.352057,11.23256 0 0 0 -0.0718,-0.31884 11.352057,11.23256 0 0 0 -0.0806,-0.31678 11.352057,11.23256 0 0 0 -0.0899,-0.31419 11.352057,11.23256 0 0 0 -0.0992,-0.31161 11.352057,11.23256 0 0 0 -0.10852,-0.30902 11.352057,11.23256 0 0 0 -0.11782,-0.30541 11.352057,11.23256 0 0 0 -0.12609,-0.30179 11.352057,11.23256 0 0 0 -0.1354,-0.29817 11.352057,11.23256 0 0 0 -0.14366,-0.29404 11.352057,11.23256 0 0 0 -0.15244,-0.28939 11.352057,11.23256 0 0 0 -0.16123,-0.28577 11.352057,11.23256 0 0 0 -0.16898,-0.28009 11.352057,11.23256 0 0 0 -0.17725,-0.27595 11.352057,11.23256 0 0 0 -0.18552,-0.27027 11.352057,11.23256 0 0 0 -0.19327,-0.26458 11.352057,11.23256 0 0 0 -0.20102,-0.25942 11.352057,11.23256 0 0 0 -0.20878,-0.25321 11.352057,11.23256 0 0 0 -0.216,-0.24753 11.352057,11.23256 0 0 0 -0.22273,-0.24081 11.352057,11.23256 0 0 0 -0.23048,-0.2341 11.352057,11.23256 0 0 0 -0.23668,-0.22789 11.352057,11.23256 0 0 0 -0.24339,-0.22066 11.352057,11.23256 0 0 0 -0.25011,-0.21342 11.352057,11.23256 0 0 0 -0.2558,-0.20671 11.352057,11.23256 0 0 0 -0.10336,-0.0786 c -0.78655,2.53294 -1.32253,7.16658 -4.10982,10.63553 -3.11852,3.88117 -8.2679,5.32457 -10.22677,6.76651 z" /><path
               id="path21757"
               style="fill:#4e9245;fill-opacity:1;fill-rule:evenodd;stroke-width:0.264583"
               d="m 144.99767,196.78183 a 11.352057,11.23256 0 0 0 0.11885,0.03 11.352057,11.23256 0 0 0 0.79789,0.14262 11.352057,11.23256 0 0 0 0.80563,0.0858 11.352057,11.23256 0 0 0 0.80977,0.0284 11.352057,11.23256 0 0 0 0.80977,-0.0284 11.352057,11.23256 0 0 0 0.80564,-0.0858 11.352057,11.23256 0 0 0 0.79788,-0.14262 11.352057,11.23256 0 0 0 0.78497,-0.19792 11.352057,11.23256 0 0 0 0.76894,-0.25322 11.352057,11.23256 0 0 0 0.74879,-0.30696 11.352057,11.23256 0 0 0 0.72451,-0.35915 11.352057,11.23256 0 0 0 0.69711,-0.40927 11.352057,11.23256 0 0 0 0.6656,-0.45734 11.352057,11.23256 0 0 0 0.63096,-0.50281 11.352057,11.23256 0 0 0 0.59273,-0.54622 11.352057,11.23256 0 0 0 0.55242,-0.58705 11.352057,11.23256 0 0 0 0.5085,-0.62425 11.352057,11.23256 0 0 0 0.46199,-0.65887 11.352057,11.23256 0 0 0 0.41341,-0.68937 11.352057,11.23256 0 0 0 0.36277,-0.71727 11.352057,11.23256 0 0 0 0.31006,-0.74052 11.352057,11.23256 0 0 0 0.25631,-0.76119 11.352057,11.23256 0 0 0 0.20051,-0.7767 11.352057,11.23256 0 0 0 0.14366,-0.7891 11.352057,11.23256 0 0 0 0.0868,-0.79737 11.352057,11.23256 0 0 0 0.0289,-0.80098 11.352057,11.23256 0 0 0 -0.004,-0.26768 11.352057,11.23256 0 0 0 -0.009,-0.26717 11.352057,11.23256 0 0 0 -0.016,-0.26665 11.352057,11.23256 0 0 0 -0.0227,-0.26665 11.352057,11.23256 0 0 0 -0.0289,-0.26562 11.352057,11.23256 0 0 0 -0.0351,-0.2651 11.352057,11.23256 0 0 0 -0.0419,-0.26407 11.352057,11.23256 0 0 0 -0.0475,-0.26303 11.352057,11.23256 0 0 0 -0.0543,-0.262 11.352057,11.23256 0 0 0 -0.061,-0.26045 11.352057,11.23256 0 0 0 -0.0667,-0.2589 11.352057,11.23256 0 0 0 -0.0729,-0.25735 11.352057,11.23256 0 0 0 -0.0796,-0.25579 11.352057,11.23256 0 0 0 -0.0853,-0.25373 11.352057,11.23256 0 0 0 -0.0915,-0.25115 11.352057,11.23256 0 0 0 -0.0972,-0.2496 11.352057,11.23256 0 0 0 -0.10335,-0.24701 11.352057,11.23256 0 0 0 -0.10955,-0.24443 11.352057,11.23256 0 0 0 -0.11472,-0.24185 11.352057,11.23256 0 0 0 -0.12093,-0.23926 11.352057,11.23256 0 0 0 -0.12712,-0.23564 11.352057,11.23256 0 0 0 -0.13229,-0.23358 11.352057,11.23256 0 0 0 -0.13746,-0.22945 11.352057,11.23256 0 0 0 -0.14366,-0.22685 11.352057,11.23256 0 0 0 -0.14883,-0.22325 11.352057,11.23256 0 0 0 -0.154,-0.21962 11.352057,11.23256 0 0 0 -0.15916,-0.21549 11.352057,11.23256 0 0 0 -0.0992,-0.12816 c -0.41724,2.6749 -0.57575,6.9757 -2.80034,10.48722 -2.37668,3.75157 -6.57401,5.75599 -8.7204,7.31789 z" /><path
               id="path22871"
               style="opacity:0.824934;fill:#fbffff;fill-rule:evenodd;stroke-width:0.171572"
               d="m 148.98967,196.9689 a 11.352057,11.23256 0 0 0 0.23203,-0.0258 11.352057,11.23256 0 0 0 0.83406,-0.15607 11.352057,11.23256 0 0 0 0.8201,-0.21756 11.352057,11.23256 0 0 0 0.31471,-0.10903 c -0.56695,-2.2591 -0.81507,-4.8615 0.0744,-7.36079 1.21176,-3.40486 4.22583,-5.98338 6.6647,-7.76439 a 11.352057,11.23256 0 0 0 -0.0522,-0.11885 11.352057,11.23256 0 0 0 -0.11989,-0.25373 11.352057,11.23256 0 0 0 -0.12609,-0.25115 11.352057,11.23256 0 0 0 -0.13229,-0.24753 11.352057,11.23256 0 0 0 -0.13849,-0.24443 11.352057,11.23256 0 0 0 -0.14418,-0.2403 11.352057,11.23256 0 0 0 -0.1509,-0.23719 11.352057,11.23256 0 0 0 -0.0398,-0.0594 c -2.95377,1.63759 -6.5052,4.70502 -7.97729,8.84132 -1.04684,2.94147 -0.81179,5.95012 -0.0589,8.44496 z" /><path
               id="path22880"
               style="opacity:0.819629;fill:#fbffff;fill-rule:evenodd;stroke-width:0.171572"
               d="m 145.08707,174.86948 a 11.352057,11.23256 0 0 0 -0.0832,0.0155 11.352057,11.23256 0 0 0 -0.82011,0.21756 11.352057,11.23256 0 0 0 -0.8015,0.2775 11.352057,11.23256 0 0 0 -0.43046,0.18604 c 0.58898,2.28756 0.86394,4.93913 -0.0419,7.48429 -1.0775,3.02759 -3.5801,5.40029 -5.83634,7.14169 a 11.352057,11.23256 0 0 0 0.22841,0.51779 11.352057,11.23256 0 0 0 0.39688,0.74259 11.352057,11.23256 0 0 0 0.31884,0.50178 c 2.75065,-1.72623 5.77853,-4.59139 7.10861,-8.32869 1.09085,-3.06509 0.78921,-6.20239 -0.0393,-8.75605 z" /></g><path
             id="path25485"
             style="fill:#326894;fill-opacity:1;fill-rule:evenodd;stroke-width:0.226552"
             d="m 104.09009,164.06394 c -14.301033,-2e-5 -25.894397,3.14628 -25.894546,7.02747 0.0026,1.57135 1.945544,3.09712 5.518526,4.33359 1.342532,0.0572 2.697041,0.15401 4.040063,0.28887 4.286663,0.43239 8.283775,1.23444 11.321273,2.2717 3.790774,1.29753 6.914584,1.00354 9.693984,0.015 3.11545,-1.38859 7.93846,-2.48951 13.25965,-3.02669 1.43986,-0.1443 2.89247,-0.24487 4.32894,-0.29972 2.37131,-1.08432 3.62398,-2.32181 3.62665,-3.58273 -1.5e-4,-3.88119 -11.59351,-7.02749 -25.89454,-7.02747 z"
             sodipodi:nodetypes="cccccccccc" /><path
             id="path18809"
             style="opacity:1;fill:url(#linearGradient19160);fill-opacity:1;stroke-width:0.0739718;stroke-linecap:round;stroke-linejoin:round;stroke-miterlimit:9.4"
             d="m 62.734239,140.3028 c -0.611133,0.85927 -1.068828,1.80263 -1.314648,2.77761 4.324822,2.09314 5.643473,5.31856 5.724715,8.99222 0.809689,0 1.68322,-1.48969 1.56211,-3.32009 -0.229578,-3.46972 -1.700902,-6.48733 -5.972177,-8.44974 z"
             inkscape:path-effect="#path-effect19292"
             inkscape:original-d="m 62.734239,140.3028 c -0.611133,0.85927 -1.068828,1.80263 -1.314648,2.77761 4.324822,2.09314 5.643473,5.31856 5.724715,8.99222 h 1.46606 c 0.507524,-4.82905 -0.288137,-9.20246 -5.876127,-11.76983 z" /><path
             id="path18813"
             style="opacity:1;fill:#ff746c;fill-opacity:1;stroke-width:0.0739718;stroke-linecap:round;stroke-linejoin:round;stroke-miterlimit:9.4"
             d="m 144.88504,138.62346 c -3.21095,3.09094 -4.75905,6.02372 -5.37136,8.85212 -0.43675,2.01745 0.44614,3.72334 1.39796,3.72334 0.43481,-3.16022 1.94029,-6.44434 5.5609,-9.92962 0.0533,0.0585 0.10478,0.11892 0.15658,0.1788 -0.38694,-1.02964 -0.98917,-1.99641 -1.74408,-2.82464 z"
             inkscape:path-effect="#path-effect19290"
             inkscape:original-d="m 144.88504,138.62346 c -4.64166,4.46817 -5.80849,8.60586 -5.69681,12.57546 h 1.72341 c 0.43481,-3.16022 1.94029,-6.44434 5.5609,-9.92962 0.0533,0.0585 0.10478,0.11892 0.15658,0.1788 -0.38694,-1.02964 -0.98917,-1.99641 -1.74408,-2.82464 z" /></g><rect
           style="display:none;opacity:0.409;fill:#326894;fill-opacity:1;stroke-width:0.1;stroke-linecap:round;stroke-linejoin:round;stroke-miterlimit:9.4"
           id="rect30634"
           width="78.993996"
           height="78.993996"
           x="64.479919"
           y="99.926582" /></g></g></g></svg>
