<svg version="1.1" xmlns="http://www.w3.org/2000/svg" xmlns:xlink="http://www.w3.org/1999/xlink" width="300" height="306.18042" viewBox="0,0,300,306.18042"><defs><linearGradient x1="240" y1="266.64" x2="240" y2="352.5" gradientUnits="userSpaceOnUse" id="color-1"><stop offset="0" stop-color="#512a90"/><stop offset="1" stop-color="#4a0066"/></linearGradient><radialGradient cx="253.75" cy="191.5" r="150" gradientUnits="userSpaceOnUse" id="color-2"><stop offset="0" stop-color="#6f009b"/><stop offset="1" stop-color="#004b9b"/></radialGradient><radialGradient cx="365.75" cy="52.5" r="139.13246" gradientUnits="userSpaceOnUse" id="color-3"><stop offset="0" stop-color="#6f009b"/><stop offset="1" stop-color="#1f369b"/></radialGradient><radialGradient cx="114.75" cy="53.5" r="48.39714" gradientUnits="userSpaceOnUse" id="color-4"><stop offset="0" stop-color="#6f009b"/><stop offset="1" stop-color="#1f369b"/></radialGradient></defs><g transform="translate(-90,-46.31958)"><g data-paper-data="{&quot;isPaintingLayer&quot;:true}" fill-rule="nonzero" stroke-linejoin="miter" stroke-miterlimit="10" stroke-dasharray="" stroke-dashoffset="0" style="mix-blend-mode: normal"><path d="M353.62,352.5h-227.24c-20.09212,0 -36.38,-16.28788 -36.38,-36.38v-49.48h300v49.48c0,20.09212 -16.28788,36.38 -36.38,36.38z" fill="url(#color-1)" stroke="none" stroke-width="1" stroke-linecap="butt"/><path d="M390,202.5v67c0,20.09212 -16.28788,36.38 -36.38,36.38h-227.24c-20.09212,0 -36.38,-16.28788 -36.38,-36.38v-67c0,-82.84 57.42,-136.38 150,-136.38c92.58,0 150,53.54 150,136.38z" fill="url(#color-2)" stroke="none" stroke-width="1" stroke-linecap="butt"/><path d="M184.21,305.9c0,0 -25.92,-98.33 55.78,-98.33c81.7,0 55.78,98.33 55.78,98.33h-111.27z" fill="#8f4aff" stroke="none" stroke-width="1" stroke-linecap="butt"/><path d="M184.22,305.9h111.56v46.6h-111.56z" fill="#8746f1" stroke="none" stroke-width="1" stroke-linecap="butt"/><path d="M216,274.43c18.15,-7.93 24,-27.67 24,-27.67c0,0 5.9,19.74 24,27.67" fill="none" stroke="#16006c" stroke-width="10" stroke-linecap="round"/><path d="M262.17,233.43c0,8.24 -12.87,18.24 -22.17,18.24c-9.3,0 -22.17,-8.84 -22.17,-18.24c0,-9.4 44.34,-8.24 44.34,0z" fill="#16006c" stroke="none" stroke-width="1" stroke-linecap="butt"/><path d="M340.27,279.13l27.04,9.28M340.11,264.51l30.38,1.28M139.73,279.13l-27.03,9.27M139.88,264.5l-30.38,1.28" fill="none" stroke="#16006c" stroke-width="7" stroke-linecap="round"/><path d="M366.18,216.15c0,0 -0.74,-63.2 -50.44,-49.23c-49.7,13.97 -17.4,68.3 -17.4,68.3l67.66,-19.05zM113.82,216.15c0,0 0.74,-63.2 50.44,-49.23c49.7,13.97 17.4,68.3 17.4,68.3l-67.66,-19.05z" fill="#9335bb" stroke="none" stroke-width="1" stroke-linecap="butt"/><path d="M113.77376,216.16903c0,0 0.80245,-63.26633 50.50245,-49.29633c49.7,13.97 17.41544,68.386 17.41544,68.386l-67.73785,-19.06957z" data-paper-data="{&quot;noHover&quot;:false,&quot;origItem&quot;:[&quot;Path&quot;,{&quot;applyMatrix&quot;:true,&quot;segments&quot;:[[114,216.17],[181.66,235.22],[[164.26,166.92],[49.7,13.97],[-49.7,-13.97]],[113.82,216.15]],&quot;closed&quot;:true,&quot;fillColor&quot;:[0,0,0,1]}]}" fill="#9335bb" stroke="none" stroke-width="0.5" stroke-linecap="butt"/><path d="M183.87,216.3c0,20.13078 -16.31922,36.45 -36.45,36.45c-20.13078,0 -36.45,-16.31922 -36.45,-36.45c0,-20.14 16.32,-30.4 36.45,-30.4c20.13,0 36.45,10.26 36.45,30.4z" fill="#16006c" stroke="none" stroke-width="1" stroke-linecap="butt"/><path d="M183.87,224.06c0,18.83 -16.32,34.1 -36.45,34.1c-20.13,0 -36.42,-15.26 -36.42,-34.1c0,-18.84 16.32,-28 36.45,-28c20.13,0 36.42,9.17 36.42,28z" fill="#ffffff" stroke="none" stroke-width="1" stroke-linecap="butt"/><path d="M163.44,223.73c-4.86753,0.00111 -9.33942,-2.68064 -11.631,-6.975c-2.29158,-4.29436 -2.02975,-9.50214 0.681,-13.545c-11.33,0.2 -15.43,10.3 -15.43,22.7c0,12.4 4.37,22.72 15.77,22.72c11.4,0 15.77,-10.13 15.77,-22.71c0,-1.1 0,-2.15 -0.1,-3.2c-1.60707,0.66704 -3.33,1.01027 -5.07,1.01zM147.44,240.89c-2.20927,0.00404 -4.20325,-1.32367 -5.0515,-3.36361c-0.84825,-2.03994 -0.38359,-4.39002 1.17717,-5.95364c1.56076,-1.56363 3.90998,-2.03259 5.95147,-1.18807c2.04149,0.84452 3.37286,2.83606 3.37286,5.04533c0,1.44982 -0.57662,2.84011 -1.60273,3.86434c-1.02611,1.02424 -2.41746,1.59831 -3.86727,1.59565zM369,216.3c0,20.13078 -16.31922,36.45 -36.45,36.45c-20.13078,0 -36.45,-16.31922 -36.45,-36.45c0,-20.14 16.32,-30.4 36.45,-30.4c20.13,0 36.45,10.26 36.45,30.4z" fill="#16006c" stroke="none" stroke-width="1" stroke-linecap="butt"/><path d="M369,224.06c0,18.83 -16.32,34.1 -36.45,34.1c-20.13,0 -36.45,-15.27 -36.45,-34.1c0,-18.83 16.32,-28 36.45,-28c20.13,0 36.45,9.17 36.45,28z" fill="#ffffff" stroke="none" stroke-width="1" stroke-linecap="butt"/><path d="M342.86,223c0.08,0.93 0.08,1.93 0.08,2.93c0,12.54 -4.37,22.72 -15.77,22.72c-11.4,0 -15.77,-10.17 -15.77,-22.72c0,-12.55 4.17,-22.72 15.77,-22.72h0.42c-2.7172,4.04002 -2.98383,9.24956 -0.69329,13.54589c2.29054,4.29633 6.76452,6.97846 11.63329,6.97411c1.47395,-0.00006 2.9375,-0.2468 4.33,-0.73zM322.51,240.89c1.45155,0.00531 2.84546,-0.56758 3.87374,-1.59211c1.02828,-1.02453 1.60627,-2.41633 1.60626,-3.86789c0,-3.01548 -2.44453,-5.46 -5.46,-5.46c-3.01547,0 -5.46,2.44452 -5.46,5.46c0,3.01548 2.44452,5.46 5.46,5.46z" fill="#16006c" stroke="none" stroke-width="1" stroke-linecap="butt"/><path d="M290.87,101.36c19.8,-37.9 79.38,-55 79.38,-55h-0.06c0,0 20,58.7 0.18,96.6c0,0 -14.23,2.23 -43.7,-13.17c-29.47,-15.4 -35.8,-28.43 -35.8,-28.43zM189.13,101.36c-19.8,-37.9 -79.38,-55 -79.38,-55h0.06c0,0 -20,58.7 -0.18,96.6c0,0 14.23,2.23 43.7,-13.17c29.47,-15.4 35.8,-28.43 35.8,-28.43z" fill="url(#color-3)" stroke="none" stroke-width="1" stroke-linecap="butt"/><path d="M153.34156,129.83865c-29.47,15.4 -43.74112,13.16168 -43.74112,13.16168c-19.82,-37.9 0.18014,-96.68075 0.18014,-96.68075l-0.06003,0.00003c0,0 59.6589,17.14785 79.4589,55.04785c0,0 -6.36789,13.0712 -35.83789,28.4712z" data-paper-data="{&quot;noHover&quot;:false,&quot;origItem&quot;:[&quot;Path&quot;,{&quot;applyMatrix&quot;:true,&quot;segments&quot;:[[[378.26,202.72],[0,0],[-39.6,-75.8]],[219.5,92.72],[219.62,92.72],[[219.26,285.92],[-39.64,-75.8],[0,0]],[[306.66,259.58],[-58.94,30.8],[58.94,-30.8]]],&quot;closed&quot;:true,&quot;fillColor&quot;:[0,0,0,1]}]}" fill="url(#color-4)" stroke="none" stroke-width="0.5" stroke-linecap="butt"/><path d="M159.68,99.7c-9.54,-18.26 -38.25,-26.5 -38.25,-26.5c0,0 -9.6,28.3 -0.05,46.52c0,0 6.86,1.08 21.06,-6.34c14.2,-7.42 17.24,-13.68 17.24,-13.68zM320.32,99.7c9.54,-18.26 38.25,-26.5 38.25,-26.5c0,0 9.62,28.28 0.08,46.54c0,0 -6.86,1.08 -21.06,-6.34c-14.2,-7.42 -17.27,-13.7 -17.27,-13.7z" fill="#dd7399" stroke="none" stroke-width="1" stroke-linecap="butt"/><g fill="#4d157b" stroke="none" stroke-width="1" stroke-linecap="butt"><path d="M209.77,84.96c-0.92224,3.61254 -2.00329,7.18268 -3.24,10.7l-3.8,10.45c-1.32,3.45 -2.73,6.88 -4.23,10.26c-1.5,3.38 -3.06,6.73 -4.85,10l-1.8,-3.27c2.18158,0.2362 4.37624,0.32973 6.57,0.28c2.2366,-0.04144 4.46958,-0.19832 6.69,-0.47c4.43526,-0.546 8.79563,-1.58578 13,-3.1c2.08103,-0.76493 4.11463,-1.65317 6.09,-2.66c5.91825,-3.05484 11.14885,-7.28834 15.37,-12.44l4.42,-5.37l-0.3,6.92l-1.3,31.24l-2.95,-2.36c2.3,-0.82 4.74,-1.9 7,-3c2.26,-1.1 4.6,-2.3 6.82,-3.62c4.41756,-2.55428 8.50766,-5.63697 12.18,-9.18c3.63736,-3.50552 6.63261,-7.62103 8.85,-12.16c2.29424,-4.67719 4.04241,-9.60296 5.21,-14.68c0.6207,2.69974 0.83306,5.47728 0.63,8.24c-0.03655,0.7005 -0.11334,1.39831 -0.23,2.09c-0.1,0.7 -0.2,1.4 -0.33,2.08c-0.3032,1.37792 -0.6974,2.73423 -1.18,4.06c-0.46814,1.33789 -1.02263,2.64396 -1.66,3.91c-0.68,1.24 -1.35,2.5 -2.14,3.67c-1.51514,2.38739 -3.26373,4.61835 -5.22,6.66c-3.8786,4.04963 -8.33727,7.50062 -13.23,10.24c-2.41332,1.37422 -4.91171,2.59336 -7.48,3.65c-2.59399,1.07873 -5.26893,1.95144 -8,2.61l-3.08,0.87l1.42,-34.52l4.15,1.58c-3.07274,3.74587 -6.63457,7.06217 -10.59,9.86c-1.98563,1.38766 -4.06008,2.64369 -6.21,3.76c-2.15368,1.10079 -4.37093,2.0725 -6.64,2.91c-4.52822,1.62746 -9.22396,2.74438 -14,3.33c-2.38236,0.29958 -4.77921,0.46982 -7.18,0.51h-3.62c-1.2,0 -2.37,-0.12 -3.7,-0.28l-2.91,-0.23l1.1,-3c1.25,-3.5 2.72,-6.88 4.27,-10.24c1.55,-3.36 3.2,-6.67 4.9,-10c1.7,-3.33 3.43,-6.58 5.33,-9.76c1.9,-3.18 3.76,-6.44 5.87,-9.54z"/><path d="M173.7401,184.90057c-10.12166,-2.4356 -17.00081,-9.92081 -15.36502,-16.71869c1.63579,-6.79789 11.16708,-10.33422 21.28874,-7.89863c10.12166,2.4356 17.00081,9.92081 15.36502,16.71869c-1.63579,6.79789 -11.16707,10.33423 -21.28873,7.89863z"/><path d="M284.96112,177.0744c-1.63579,-6.79789 5.24337,-14.2831 15.36502,-16.71869c10.12165,-2.4356 19.65294,1.10074 21.28873,7.89863c1.63579,6.79789 -5.24336,14.2831 -15.36501,16.71869c-10.12165,2.4356 -19.65295,-1.10074 -21.28874,-7.89863z"/></g><path d="M279.85493,145.36133l-6.11798,1.3493l5.08178,-3.829l-0.96393,-5.81457l3.2689,4.97911l6.20057,-0.86464l-5.27047,3.39926l1.50669,6.07969z" fill="#ffffff" stroke="none" stroke-width="0" stroke-linecap="butt"/><path d="M269.06441,187.14709l-5.78556,-2.40368l6.35897,-0.22194l2.54533,-5.31598l-0.178,5.95362l5.57523,2.84806l-6.26705,-0.23831l-2.25279,5.84446z" fill="#ffffff" stroke="none" stroke-width="0" stroke-linecap="butt"/><path d="M356.28373,158.884l-8.67254,0.88145l7.63899,-4.4752l-0.3976,-8.19125l3.71758,7.40707l8.70878,-0.19833l-7.8307,3.85093l1.10513,8.64492z" fill="#ffffff" stroke="none" stroke-width="0" stroke-linecap="butt"/><path d="M228.16905,193.48071l-3.11455,-1.29397l3.42323,-0.11947l1.37023,-2.86176l-0.09582,3.20502l3.00133,1.5332l-3.37375,-0.12829l-1.21275,3.14626z" fill="#ffffff" stroke="none" stroke-width="0" stroke-linecap="butt"/><path d="M313.49466,285.94899l-3.33287,-0.18973l3.22471,-1.15418l0.49043,-2.94923l0.82035,2.86227l3.29313,0.43586l-3.24807,0.92002l-0.25959,3.15246z" fill="#ffffff" stroke="none" stroke-width="0" stroke-linecap="butt"/><path d="M159.33729,281.60909l-3.21414,-0.90186l3.39744,-0.43387l1.11305,-2.77482l0.18577,2.97171l3.12241,1.13369l-3.36992,0.20017l-0.9313,3.02292z" fill="#ffffff" stroke="none" stroke-width="0" stroke-linecap="butt"/><path d="M108.86309,168.70786l0.87109,-6.20416l1.81433,6.09868l5.78531,1.12632l-5.80697,1.32529l-1.3541,6.11237l-1.34576,-6.1255l-6.22321,-0.71024z" fill="#ffffff" stroke="none" stroke-width="0" stroke-linecap="butt"/><path d="M242.10458,84.81049l-3.86764,0.85299l3.21258,-2.4206l-0.60937,-3.67583l2.06651,3.14767l3.91985,-0.5466l-3.33186,2.14893l0.95249,3.84343z" fill="#ffffff" stroke="none" stroke-width="0" stroke-linecap="butt"/><path d="M158.85493,138.86133l-6.11799,1.3493l5.08178,-3.829l-0.96393,-5.81457l3.2689,4.97911l6.20057,-0.86464l-5.27047,3.39926l1.50669,6.07969z" fill="#ffffff" stroke="none" stroke-width="0" stroke-linecap="butt"/></g></g></svg>