<svg version="1.1" xmlns="http://www.w3.org/2000/svg" xmlns:xlink="http://www.w3.org/1999/xlink" width="301.11301" height="307.88892" viewBox="0,0,301.11301,307.88892"><defs><linearGradient x1="240" y1="180" x2="240" y2="180" gradientUnits="userSpaceOnUse" id="color-1"><stop offset="0" stop-color="#342f77"/><stop offset="0.06" stop-color="#2c2867"/><stop offset="0.25" stop-color="#141239"/><stop offset="0.4" stop-color="#05051d"/><stop offset="0.48" stop-color="#000012"/></linearGradient><linearGradient x1="240" y1="180" x2="240" y2="180" gradientUnits="userSpaceOnUse" id="color-2"><stop offset="0.18" stop-color="#342f77"/><stop offset="0.52" stop-color="#781f5f"/><stop offset="0.89" stop-color="#342f77"/></linearGradient><linearGradient x1="244.64552" y1="280.571" x2="244.64552" y2="366.431" gradientUnits="userSpaceOnUse" id="color-3"><stop offset="0" stop-color="#000000"/><stop offset="1" stop-color="#000440"/></linearGradient><linearGradient x1="244.64549" y1="58.54207" x2="244.64549" y2="311.49136" gradientUnits="userSpaceOnUse" id="color-4"><stop offset="0" stop-color="#1e0077"/><stop offset="1" stop-color="#000440"/></linearGradient><radialGradient cx="151.39579" cy="113.48811" r="47.06078" gradientUnits="userSpaceOnUse" id="color-5"><stop offset="0" stop-color="#ffe600"/><stop offset="1" stop-color="#ffe600" stop-opacity="0"/></radialGradient><linearGradient x1="162.70261" y1="150.11823" x2="150.93412" y2="111.39913" gradientUnits="userSpaceOnUse" id="color-6"><stop offset="0" stop-color="#de8500"/><stop offset="1" stop-color="#de8500"/></linearGradient><radialGradient cx="151.43034" cy="113.60177" r="31.13728" gradientUnits="userSpaceOnUse" id="color-7"><stop offset="0" stop-color="#fff900"/><stop offset="1" stop-color="#ff9900"/></radialGradient><linearGradient x1="320.79706" y1="218.77149" x2="332.49888" y2="272.77798" gradientUnits="userSpaceOnUse" id="color-8"><stop offset="0" stop-color="#797979"/><stop offset="1" stop-color="#c3c3c3"/></linearGradient><linearGradient x1="189.85238" y1="239.00043" x2="192.58698" y2="239.00043" gradientUnits="userSpaceOnUse" id="color-9"><stop offset="0" stop-color="#ffffff"/><stop offset="1" stop-color="#ffffff"/></linearGradient><radialGradient cx="195.15244" cy="261.77719" r="12.30335" gradientUnits="userSpaceOnUse" id="color-10"><stop offset="0" stop-color="#ff0000"/><stop offset="1" stop-color="#fcff00"/></radialGradient><linearGradient x1="191.05569" y1="230.26442" x2="199.30456" y2="236.22296" gradientUnits="userSpaceOnUse" id="color-11"><stop offset="0" stop-color="#c70000"/><stop offset="1" stop-color="#ffb1b1"/></linearGradient><linearGradient x1="215.51725" y1="247.46944" x2="223.76612" y2="253.42798" gradientUnits="userSpaceOnUse" id="color-12"><stop offset="0" stop-color="#ffb1b1"/><stop offset="1" stop-color="#c70000"/></linearGradient><linearGradient x1="196.98062" y1="233.1344" x2="218.79661" y2="248.89308" gradientUnits="userSpaceOnUse" id="color-13"><stop offset="0" stop-color="#ffffff"/><stop offset="1" stop-color="#767676"/></linearGradient><linearGradient x1="207.54356" y1="217.90381" x2="230.27848" y2="234.32629" gradientUnits="userSpaceOnUse" id="color-14"><stop offset="0" stop-color="#ff0000"/><stop offset="1" stop-color="#750000"/></linearGradient><linearGradient x1="207.43663" y1="235.23771" x2="213.51233" y2="239.62647" gradientUnits="userSpaceOnUse" id="color-15"><stop offset="0" stop-color="#66b9ff"/><stop offset="1" stop-color="#66ebff"/></linearGradient><linearGradient x1="200.61154" y1="245.11308" x2="206.68724" y2="249.50183" gradientUnits="userSpaceOnUse" id="color-16"><stop offset="0" stop-color="#66bdff"/><stop offset="1" stop-color="#66ebff"/></linearGradient></defs><g transform="translate(-94.08899,-58.54208)"><g data-paper-data="{&quot;isPaintingLayer&quot;:true}" fill-rule="nonzero" stroke-linejoin="miter" stroke-miterlimit="10" stroke-dasharray="" stroke-dashoffset="0" style="mix-blend-mode: normal"><path d="" fill="url(#color-1)" stroke="none" stroke-width="1" stroke-linecap="butt"/><path d="" fill="url(#color-2)" stroke="none" stroke-width="1" stroke-linecap="butt"/><g stroke="none" stroke-width="1" stroke-linecap="butt" opacity="0.51" style="mix-blend-mode: multiply"><path d="" fill="#004d77" style="mix-blend-mode: normal"/><path d="" fill="#004d77" style="mix-blend-mode: normal"/><path d="" fill="#004d77" style="mix-blend-mode: normal"/><path d="" fill="#004d77" style="mix-blend-mode: normal"/><path d="" fill="#004d77" style="mix-blend-mode: normal"/><path d="" fill="#004d77" style="mix-blend-mode: normal"/><path d="" fill="#004d77" style="mix-blend-mode: normal"/><path d="" fill="#004d77" style="mix-blend-mode: normal"/><path d="" fill="#004d77" style="mix-blend-mode: normal"/><path d="" fill="#004d77" style="mix-blend-mode: normal"/><path d="" fill="#004d77" style="mix-blend-mode: normal"/><path d="" fill="#004d77" style="mix-blend-mode: normal"/><path d="" fill="#004d77" style="mix-blend-mode: normal"/><path d="" fill="#004d77" style="mix-blend-mode: normal"/><path d="" fill="#004d77" style="mix-blend-mode: normal"/><path d="" fill="#004d77" style="mix-blend-mode: normal"/><path d="" fill="#004d77" style="mix-blend-mode: normal"/><path d="" fill="#004d77" style="mix-blend-mode: normal"/><path d="" fill="#004d77" style="mix-blend-mode: normal"/><path d="" fill="#004d77" style="mix-blend-mode: normal"/><path d="" fill="#004d77" style="mix-blend-mode: normal"/><path d="" fill="#004d77" style="mix-blend-mode: normal"/><path d="" fill="#004d77" style="mix-blend-mode: normal"/><path d="" fill="#004d77" style="mix-blend-mode: normal"/><path d="" fill="#004d77" style="mix-blend-mode: normal"/><path d="" fill="#004d77" style="mix-blend-mode: normal"/><path d="" fill="#004d77" style="mix-blend-mode: normal"/><path d="" fill="#004d77" style="mix-blend-mode: normal"/><path d="" fill="#004d77" style="mix-blend-mode: normal"/><path d="" fill="#004d77" style="mix-blend-mode: normal"/><path d="" fill="#004d77" style="mix-blend-mode: normal"/><path d="" fill="#10325e" style="mix-blend-mode: normal"/><path d="" fill="#10325e" style="mix-blend-mode: normal"/><path d="" fill="#10325e" style="mix-blend-mode: normal"/><path d="" fill="#10325e" style="mix-blend-mode: normal"/><path d="" fill="#10325e" style="mix-blend-mode: normal"/><path d="" fill="#10325e" style="mix-blend-mode: normal"/><path d="" fill="#10325e" style="mix-blend-mode: normal"/><path d="" fill="#10325e" style="mix-blend-mode: normal"/><path d="" fill="#10325e" style="mix-blend-mode: normal"/><path d="" fill="#10325e" style="mix-blend-mode: normal"/><path d="" fill="#10325e" style="mix-blend-mode: normal"/><path d="" fill="#10325e" style="mix-blend-mode: normal"/><path d="" fill="#10325e" style="mix-blend-mode: normal"/><path d="" fill="#10325e" style="mix-blend-mode: normal"/><path d="" fill="#10325e" style="mix-blend-mode: normal"/><path d="" fill="#10325e" style="mix-blend-mode: normal"/><path d="" fill="#10325e" style="mix-blend-mode: normal"/><path d="" fill="#10325e" style="mix-blend-mode: normal"/><path d="" fill="#004d77" style="mix-blend-mode: normal"/><path d="" fill="#004d77" style="mix-blend-mode: normal"/><path d="" fill="#004d77" style="mix-blend-mode: normal"/><path d="" fill="#004d77" style="mix-blend-mode: normal"/><path d="" fill="#004d77" style="mix-blend-mode: normal"/><path d="" fill="#004d77" style="mix-blend-mode: normal"/><path d="" fill="#004d77" style="mix-blend-mode: normal"/><path d="" fill="#004d77" style="mix-blend-mode: normal"/><path d="" fill="#004d77" style="mix-blend-mode: normal"/><path d="" fill="#004d77" style="mix-blend-mode: normal"/><path d="" fill="#004d77" style="mix-blend-mode: normal"/><path d="" fill="#004d77" style="mix-blend-mode: normal"/><path d="" fill="#004d77" style="mix-blend-mode: normal"/></g><path d="" fill="#ffffff" stroke="none" stroke-width="1" stroke-linecap="butt"/><path d="" fill="#ffffff" stroke="none" stroke-width="1" stroke-linecap="butt"/><path d="" fill="#ffffff" stroke="none" stroke-width="1" stroke-linecap="butt"/><path d="" fill="#ffffff" stroke="none" stroke-width="1" stroke-linecap="butt"/><path d="" fill="#ffffff" stroke="none" stroke-width="1" stroke-linecap="butt"/><path d="" fill="#ffffff" stroke="none" stroke-width="1" stroke-linecap="butt"/><path d="" fill="#ffffff" stroke="none" stroke-width="1" stroke-linecap="butt"/><path d="" fill="#ffffff" stroke="none" stroke-width="1" stroke-linecap="butt"/><path d="" fill="#ffffff" stroke="none" stroke-width="1" stroke-linecap="butt"/><path d="" fill="#ffffff" stroke="none" stroke-width="1" stroke-linecap="butt"/><path d="" fill="#ffffff" stroke="none" stroke-width="1" stroke-linecap="butt"/><path d="" fill="#ffffff" stroke="none" stroke-width="1" stroke-linecap="butt"/><path d="" fill="#ffffff" stroke="none" stroke-width="1" stroke-linecap="butt"/><path d="" fill="#ffffff" stroke="none" stroke-width="1" stroke-linecap="butt"/><path d="" fill="#ffffff" stroke="none" stroke-width="1" stroke-linecap="butt"/><path d="" fill="#ffffff" stroke="none" stroke-width="1" stroke-linecap="butt"/><path d="" fill="#ffffff" stroke="none" stroke-width="1" stroke-linecap="butt"/><path d="" fill="#ffffff" stroke="none" stroke-width="1" stroke-linecap="butt"/><path d="" fill="#ffffff" stroke="none" stroke-width="1" stroke-linecap="butt"/><path d="" fill="#ffffff" stroke="none" stroke-width="1" stroke-linecap="butt"/><path d="" fill="#ffffff" stroke="none" stroke-width="1" stroke-linecap="butt"/><path d="" fill="#ffffff" stroke="none" stroke-width="1" stroke-linecap="butt"/><path d="" fill="#ffffff" stroke="none" stroke-width="1" stroke-linecap="butt"/><path d="" fill="#ffffff" stroke="none" stroke-width="1" stroke-linecap="butt"/><path d="" fill="#ffffff" stroke="none" stroke-width="1" stroke-linecap="butt"/><path d="" fill="#ffffff" stroke="none" stroke-width="1" stroke-linecap="butt"/><path d="" fill="#ffffff" stroke="none" stroke-width="1" stroke-linecap="butt"/><path d="" fill="#ffffff" stroke="none" stroke-width="1" stroke-linecap="butt"/><path d="" fill="#ffffff" stroke="none" stroke-width="1" stroke-linecap="butt"/><path d="" fill="#ffffff" stroke="none" stroke-width="1" stroke-linecap="butt"/><path d="" fill="#ffffff" stroke="none" stroke-width="1" stroke-linecap="butt"/><path d="" fill="#ffffff" stroke="none" stroke-width="1" stroke-linecap="butt"/><path d="" fill="#ffffff" stroke="none" stroke-width="1" stroke-linecap="butt"/><path d="" fill="#ffffff" stroke="none" stroke-width="1" stroke-linecap="butt"/><path d="" fill="#ffffff" stroke="none" stroke-width="1" stroke-linecap="butt"/><path d="" fill="#ffffff" stroke="none" stroke-width="1" stroke-linecap="butt"/><path d="" fill="#ffffff" stroke="none" stroke-width="1" stroke-linecap="butt"/><path d="" fill="#ffffff" stroke="none" stroke-width="1" stroke-linecap="butt"/><path d="" fill="#ffffff" stroke="none" stroke-width="1" stroke-linecap="butt"/><path d="" fill="#ffffff" stroke="none" stroke-width="1" stroke-linecap="butt"/><path d="" fill="#ffffff" stroke="none" stroke-width="1" stroke-linecap="butt"/><path d="" fill="#ffffff" stroke="none" stroke-width="1" stroke-linecap="butt"/><path d="M358.26552,366.431h-227.24c-20.09212,0 -36.38,-16.28788 -36.38,-36.38v-49.48h300v49.48c0,20.09212 -16.28788,36.38 -36.38,36.38z" fill="url(#color-3)" stroke="none" stroke-width="1" stroke-linecap="butt"/><path d="M395.0586,268.43321c-0.02047,23.78035 -0.03705,43.05815 -0.03705,43.05815l-300.93256,-0.22568c0,0 0.01658,-19.2778 0.03705,-43.05815l0.14338,-166.64549c0.02047,-23.78035 14.03705,-32.05814 14.03705,-32.05814c0,0 13.54302,-10.97934 36.94167,-10.9618c36.7225,0.02754 146.88676,0.11015 207.99988,0.15598c25.14868,0.01886 30.991,9.03149 30.991,9.03149c0,0 10.98341,10.27779 10.96295,34.05814z" fill="url(#color-4)" stroke="none" stroke-width="1" stroke-linecap="butt"/><path d="M191.71942,168.72087l15.4767,2.08885l-14.04085,6.83711l-2.09348,15.4831l-6.838,-14.04636l-15.4767,-2.08884l14.04085,-6.83712l2.08795,-15.48222z" fill="#ffffff" stroke="none" stroke-width="1" stroke-linecap="butt"/><path d="M215.17215,192.14144l7.98744,1.31269l-7.24641,4.29662l-1.08043,9.72999l-3.52906,-8.8271l-7.98744,-1.31268l7.24641,-4.29663l1.07758,-9.72944z" fill="#ffffff" stroke="none" stroke-width="1" stroke-linecap="butt"/><path d="M179.49353,210.134l8.6493,1.16737l-7.84686,3.82098l-1.16996,8.65288l-3.82148,-7.84994l-8.6493,-1.16737l7.84686,-3.82099l1.16687,-8.65239z" fill="#ffffff" stroke="none" stroke-width="1" stroke-linecap="butt"/><path d="M106.36893,127.17381c-7.55841,-24.86765 6.47351,-51.15416 31.34116,-58.71257c24.86765,-7.55841 51.15416,6.47351 58.71257,31.34116c7.55841,24.86765 -6.47351,51.15416 -31.34116,58.71257c-24.86765,7.55841 -51.15416,-6.47351 -58.71257,-31.34116z" fill="url(#color-5)" stroke="none" stroke-width="0" stroke-linecap="butt"/><path d="M184.59805,141.05281l-45.13223,13.71773c-3.9905,1.2129 -8.20869,-1.0388 -9.42159,-5.02931l-2.98694,-9.82724l59.58313,-18.11001l2.98694,9.82724c1.2129,3.9905 -1.0388,8.20869 -5.02931,9.42159z" fill="url(#color-6)" stroke="none" stroke-width="1" stroke-linecap="butt"/><path d="M129.20379,147.54618l-13.51257,-44.45724c0.17829,-0.26315 0.29562,-0.56586 0.33933,-0.88441c0.03478,-0.25344 0.02296,-0.5169 -0.04183,-0.77844c-0.02295,-0.34047 -0.03683,-0.67559 0.01739,-0.83545c0.28427,-0.83819 0.65746,-1.68684 1.17048,-2.41594c0.17621,-0.25043 0.54176,-0.27452 0.73403,-0.49867c0.0135,-0.01573 0.09597,-0.4494 0.1599,-0.54593c0.16558,-0.25004 0.36553,-0.50344 0.58519,-0.75538c0.81873,-0.24885 1.71046,-0.51989 2.6435,-0.80348c3.22342,-0.97974 35.40248,-10.76042 47.65475,-14.48444c0.20385,0.1393 0.40788,0.2785 0.57775,0.43886l0.64406,-0.03229c1.07748,0.57516 2.0019,0.59299 3.26653,1.39146c0.97896,0.61811 0.80029,2.24256 1.98926,2.61135l13.35536,43.94c0,0 -3.23494,0.98325 -7.22545,2.19614c-3.9905,1.2129 -52.35768,15.91387 -52.35768,15.91387z" fill="url(#color-7)" stroke="none" stroke-width="1" stroke-linecap="butt"/><path d="M152.8659,102.37125c-0.03801,-0.12505 0.03255,-0.25723 0.1576,-0.29523c0.12505,-0.03801 0.25723,0.03255 0.29523,0.1576c0.03801,0.12505 -0.03255,0.25723 -0.1576,0.29523c-0.12505,0.03801 -0.25723,-0.03255 -0.29523,-0.1576z" fill="#ecf7fe" stroke="none" stroke-width="1" stroke-linecap="butt"/><path d="M358.85399,277.37992l-48.51737,10.51247c-4.28981,0.92949 -8.52089,-1.79458 -9.45039,-6.0844l-2.28902,-10.56433l64.05215,-13.87846l2.28902,10.56433c0.92949,4.28981 -1.79458,8.52089 -6.0844,9.45039z" fill="#959595" stroke="none" stroke-width="1" stroke-linecap="butt"/><path d="M362.62122,256.62641c1.09575,5.07822 1.98403,9.19494 1.98403,9.19494l-64.2617,13.87342c0,0 -0.88828,-4.11672 -1.98403,-9.19494l-7.67867,-35.58664c-1.09575,-5.07822 1.51395,-7.49402 1.51395,-7.49402c0,0 2.38361,-2.97069 7.3802,-4.0494c7.84179,-1.69296 31.36647,-6.77169 44.41668,-9.58909c5.3703,-1.15939 7.03461,0.4946 7.03461,0.4946c0,0 2.8205,1.68627 3.91625,6.76449z" fill="url(#color-8)" stroke="none" stroke-width="1" stroke-linecap="butt"/><path d="M353.77294,216.47492l2.28902,10.56433l-64.05215,13.87846l-2.28902,-10.56433c-0.92949,-4.28981 1.79458,-8.52089 6.0844,-9.45039l48.51737,-10.51247c4.28981,-0.92949 8.52089,1.79458 9.45039,6.0844z" data-paper-data="{&quot;index&quot;:null}" fill="#8f8f8f" stroke="none" stroke-width="1" stroke-linecap="butt"/><path d="M305.95684,235.71147c-0.33467,-0.0278 -1.24519,-0.1528 -1.51646,-0.35096c-0.00832,-0.00608 -0.01658,-0.01223 -0.02478,-0.01844l-0.00309,0.00696l-0.42218,-0.18767c0.08558,0.80594 0.06397,1.62441 0.06628,2.4453c0.00231,0.81971 0.02,1.70606 -0.15365,2.51135c-0.29965,1.38962 -1.0781,2.59915 -1.49199,3.947l0.02466,0.02271c0,0 0.00126,0.54615 -0.54489,0.54741c-0.54615,0.00126 -0.54741,-0.54489 -0.54741,-0.54489l0.02381,-0.34701c0.40672,-1.31465 1.17365,-2.50268 1.46778,-3.85417c0.15859,-0.72871 0.13184,-1.53704 0.1294,-2.27918c-0.00383,-1.16077 0.07612,-2.35444 -0.28534,-3.46677c0,0 -0.07299,-0.22847 0.02917,-0.43097c-0.11497,-0.76755 0.55254,-1.45877 1.2211,-1.99304c0.5768,-0.46095 1.3025,-0.71251 2.00309,-0.94563c0.80159,-0.26672 1.49411,-0.59807 2.33764,-0.75256c0.31207,-0.06732 1.22558,-0.29958 1.54972,-0.22432c0.57082,0.13253 1.10309,0.54784 1.35611,1.08141c0.02994,0.00773 0.05991,0.01524 0.08994,0.02245c0.17238,0.35077 0.51189,0.66151 0.51714,1.05231c0.00266,0.19796 -0.06316,0.38916 -0.17296,0.57012c0.05109,0.12889 0.04685,0.24796 0.04685,0.24796c-0.00618,0.17235 -0.05989,1.3523 -0.02123,1.53026c0.21344,0.98238 0.85634,1.95005 1.24704,2.86873c0.2322,0.54598 0.34764,1.36834 0.78816,1.78733c0.68864,0.655 1.78509,0.9005 2.55153,1.49782l0.35995,0.42513c0,0 0.34215,0.42569 -0.08354,0.76785c-0.4257,0.34215 -0.76785,-0.08354 -0.76785,-0.08354l-0.18263,-0.24992c-0.81269,-0.64196 -1.92524,-0.87549 -2.66395,-1.59934c-0.54925,-0.53821 -0.72111,-1.44606 -1.0116,-2.12917c-0.4221,-0.99262 -1.08307,-2.01408 -1.30941,-3.07672c-0.00393,-0.01844 -0.00743,-0.03964 -0.01054,-0.06328c-0.46519,0.33493 -0.943,0.6792 -1.4469,0.85289c-0.30641,0.10562 -0.63004,0.16709 -0.95495,0.19269c-0.71137,0.1944 -1.44895,0.28183 -2.19401,0.21995zM310.14159,231.73381c-0.04578,-0.00279 -0.0918,-0.00532 -0.13803,-0.00758c0.00165,0.03195 0.0026,0.06381 0.00269,0.09555c0.04744,-0.02733 0.0946,-0.05494 0.13533,-0.08797z" fill="#5e5e5e" stroke="none" stroke-width="0.5" stroke-linecap="butt"/><path d="M343.21612,262.41554c-0.49028,-0.24064 -0.24964,-0.73093 -0.24964,-0.73093l0.18826,-0.38164c0.52465,-0.93384 1.00024,-1.6967 1.08268,-2.80021c0.01982,-0.26523 -0.13901,-1.32055 -0.17189,-1.56141c0,0 -0.07372,-0.54116 0.46743,-0.61488c0.54116,-0.07372 0.61488,0.46744 0.61488,0.46744c0.16477,1.21208 0.28951,2.41911 -0.21926,3.58505c-0.22322,0.51156 -0.54816,0.97243 -0.82154,1.45903l-0.16001,0.32791c0,0 -0.24064,0.49028 -0.73092,0.24964z" fill="#5e5e5e" stroke="none" stroke-width="0.5" stroke-linecap="butt"/><path d="M351.21076,261.81374c-0.33988,0.42751 -0.76739,0.08763 -0.76739,0.08763l-0.44362,-0.353c-0.37852,-0.34011 -0.83083,-0.60024 -1.17358,-0.97636c-1.17309,-1.28729 -1.56256,-3.07185 -1.94321,-4.70399c0,0 -0.12405,-0.53188 0.40783,-0.65593c0.53188,-0.12405 0.65593,0.40784 0.65593,0.40784c0.33121,1.42013 0.64299,3.09096 1.67862,4.20745c0.31671,0.34144 0.73312,0.57562 1.0796,0.88682l0.41819,0.33215c0,0 0.42751,0.33988 0.08763,0.76739z" fill="#5e5e5e" stroke="none" stroke-width="0.5" stroke-linecap="butt"/><path d="M351.63132,262.39583c-0.44167,0.32127 -0.76294,-0.1204 -0.76294,-0.1204l-0.30143,-0.4162c-0.87331,-1.37429 -2.37563,-2.6739 -2.52934,-4.3972c-0.00705,-0.07902 -0.00366,-0.2435 0.00524,-0.44508c-0.07359,0.0687 -0.1386,0.12396 -0.18745,0.16149c-0.71013,0.5457 -1.72909,0.93642 -2.58761,0.43653c-0.10677,-0.06217 -0.17081,-0.1661 -0.22123,-0.28336c-0.16347,-0.0418 -0.30428,-0.11523 -0.38933,-0.25317c-0.03043,-0.04936 -0.05184,-0.10203 -0.0656,-0.15707c-0.26625,-0.30666 -0.13131,-0.83371 -0.21059,-1.24308c0.30798,-0.20562 0.56832,-0.51358 0.92393,-0.61687c0.37031,-0.10756 0.78417,-0.08683 1.15677,0.0125c0.02416,0.00644 0.04876,0.01296 0.07369,0.01963c0.67793,-0.21565 1.47497,-0.33252 1.98592,0.03065c0.05615,-0.01328 0.12037,-0.01874 0.19378,-0.01361c0.54483,0.03805 0.50678,0.58288 0.50678,0.58288c-0.01701,0.24334 -0.10938,1.49598 -0.0976,1.65802c0.10674,1.46864 1.6206,2.75263 2.36439,3.92162l0.26301,0.35977c0,0 0.32127,0.44167 -0.1204,0.76294z" fill="#5e5e5e" stroke="none" stroke-width="0.5" stroke-linecap="butt"/><path d="M339.22952,230.37537c-0.05884,0.01953 -0.11724,0.0393 -0.17503,0.05948c-0.2783,0.09717 -1.3517,0.56021 -1.68206,0.51003c-0.03043,-0.00462 -0.06007,-0.0096 -0.08893,-0.01493c-0.26602,0.04838 -0.5184,0.04928 -0.65914,-0.14028c-0.05542,-0.07465 -0.09478,-0.15669 -0.12107,-0.24391c-0.04568,-0.0569 -0.08021,-0.11799 -0.10482,-0.18247c-0.16577,-0.11882 -0.29648,-0.26594 -0.35449,-0.45343c-0.28848,-0.93238 0.62749,-1.7966 1.29818,-2.16553c0.02261,-0.01244 0.04555,-0.02415 0.06876,-0.03521c0.75031,-0.51694 1.59791,-1.10701 2.37869,-1.38188c0.66166,-0.23293 1.44758,-0.39695 1.90725,0.3758c0.22817,0.38358 0.25822,0.86878 0.25184,1.31505c-0.01958,1.36968 -1.02982,1.80616 -2.08987,2.15411c-0.15059,0.14917 -0.31498,0.26044 -0.50446,0.22748c-0.04327,-0.00753 -0.08487,-0.01563 -0.12485,-0.02429z" fill="#5e5e5e" stroke="none" stroke-width="0.5" stroke-linecap="butt"/><path d="M335.1139,234.76714c-0.49145,-0.23825 -0.25319,-0.7297 -0.25319,-0.7297l0.25561,-0.52625c0.45429,-1.16232 0.56028,-2.19512 0.66883,-3.43156c0,0 0.04777,-0.54406 0.59183,-0.4963c0.54406,0.04777 0.49629,0.59183 0.49629,0.59183c-0.11924,1.35812 -0.25949,2.4934 -0.75575,3.77276l-0.27392,0.56603c0,0 -0.23825,0.49144 -0.7297,0.25319z" fill="#5e5e5e" stroke="none" stroke-width="0.5" stroke-linecap="butt"/><path d="M344.85675,233.79034c-0.25396,0.48352 -0.73747,0.22956 -0.73747,0.22956l-0.58719,-0.31203c-0.25919,-0.07948 -0.56117,-0.07512 -0.77755,-0.23843c-1.01198,-0.76381 -1.29823,-2.16434 -1.61025,-3.29767c-0.25034,-0.90927 -0.39206,-1.44956 -0.27212,-2.38129c0,0 0.0728,-0.54128 0.61408,-0.46848c0.54128,0.0728 0.46848,0.61408 0.46848,0.61408c-0.15535,1.09701 0.20702,2.35763 0.64758,3.36881c0.09738,0.22352 0.52921,1.09145 0.75958,1.25666c0.1585,0.11366 0.38033,0.08667 0.5705,0.13l0.69481,0.36131c0,0 0.48352,0.25396 0.22956,0.73748z" fill="#5e5e5e" stroke="none" stroke-width="0.5" stroke-linecap="butt"/><path d="M327.81697,229.61617c-0.06317,0.54249 -0.60566,0.47931 -0.60566,0.47931l-1.12329,-0.13344c-0.35431,-0.1152 -1.1828,-0.40664 -1.54627,-0.26738c-0.13358,0.05118 -0.16044,0.25358 -0.28816,0.31799c-0.30407,0.15332 -0.6442,0.41215 -0.97118,0.31701c-0.34742,-0.10109 -0.59359,-0.44147 -0.73741,-0.82934c-0.057,0.20128 -0.13383,0.39381 -0.24523,0.55448c0.03886,0.22024 -0.09166,0.41607 -0.09166,0.41607l-0.31866,0.47811c-0.07589,0.11418 -0.19459,0.20007 -0.33916,0.2314c-0.29479,0.06387 -0.58555,-0.12332 -0.64942,-0.41811c-0.0209,-0.09645 -0.01492,-0.19247 0.01291,-0.28026l0.17252,-0.58316l0.01032,0.00305c0.0022,-0.01811 0.00474,-0.03621 0.00765,-0.05429c0.04928,-0.30646 0.33147,-0.53005 0.4389,-0.82125c0.07802,-0.21149 0.07348,-0.44481 0.11022,-0.66722l0.00419,-0.00788l-0.00251,-0.00052l0.12679,-0.61026c0.03877,-0.21015 0.19971,-0.38679 0.42162,-0.43487c0.22963,-0.04975 0.45681,0.05283 0.57622,0.23995l0.48061,0.71599l-0.00672,0.00451c0.0122,0.01475 0.02424,0.02963 0.03611,0.04467c0.20891,0.26455 0.08115,0.70499 0.29159,0.96832c0.03756,0.047 0.01766,-0.12704 0.05929,-0.17048c0.15797,-0.16483 0.30851,-0.36793 0.5253,-0.4395c0.60938,-0.20119 1.56559,0.038 2.15375,0.22551l1.01802,0.11593c0,0 0.54249,0.06318 0.47931,0.60566z" fill="#5e5e5e" stroke="none" stroke-width="0.5" stroke-linecap="butt"/><path d="M317.34599,264.84557c0.01534,0.54594 -0.5306,0.56127 -0.5306,0.56127l-0.15972,0.00215c-0.46382,0.05614 -0.93321,0.2617 -1.39128,0.16977c-0.31733,-0.06369 -0.57916,-0.28959 -0.86193,-0.44705c-0.09851,-0.05486 -0.17821,-0.23657 -0.28049,-0.18909c-0.31623,0.1468 -0.44284,0.72164 -0.78964,0.68588c-0.62716,-0.06467 -0.65397,-0.87494 -0.97024,-1.24004c-0.30734,-0.35479 -0.69664,0.57701 -0.70195,0.58789c-0.24463,0.50147 -0.31635,0.85971 -0.20927,1.3976c0,0 0.09286,0.5382 -0.44535,0.63106c-0.5382,0.09286 -0.63106,-0.44534 -0.63106,-0.44534c-0.17179,-1.11072 0.2617,-3.24097 1.74626,-3.32434c0.68955,-0.03872 1.1542,0.39203 1.39347,0.97669c0.0426,0.1041 -0.15139,0.40897 -0.07154,0.32976c0.18155,-0.18009 0.1539,-0.58342 0.39939,-0.65499c0.90375,-0.26348 0.93649,0.45887 1.61253,0.61636c0.35206,0.08201 0.7108,-0.13497 1.06965,-0.17852l0.26047,-0.00965c0,0 0.54594,-0.01534 0.56128,0.5306z" fill="#5e5e5e" stroke="none" stroke-width="0.5" stroke-linecap="butt"/><path d="M310.83113,242.14931c-0.34132,0.42636 -0.76768,0.08504 -0.76768,0.08504l0.00563,-0.06174c-0.20547,-0.06111 -0.40227,-0.19336 -0.6164,-0.18332c-0.43381,0.02033 -0.63373,0.65172 -1.05199,0.76863c-0.33079,0.09246 -0.68608,-0.09349 -1.02836,-0.0649c-0.42321,0.03535 -0.35983,0.77732 -0.36858,0.99161c0,0 -0.03084,0.54528 -0.57612,0.51445c-0.54528,-0.03084 -0.51445,-0.57612 -0.51445,-0.57612c0.05676,-0.83313 0.17764,-1.7329 1.17925,-1.98577c0.3113,-0.07859 0.64687,0.15926 0.95939,0.08564c0.18447,-0.04346 0.23909,-0.30303 0.3985,-0.40552c0.27105,-0.17428 0.55387,-0.37747 0.87418,-0.41277c0.33842,-0.0373 0.66693,0.13743 1.0004,0.20615l0.4212,0.27094c0,0 0.42636,0.34132 0.08504,0.76768z" fill="#5e5e5e" stroke="none" stroke-width="0.5" stroke-linecap="butt"/><path d="M341.76296,235.97333c-0.11776,0.53331 -0.65106,0.41555 -0.65106,0.41555l-0.35526,-0.102c-0.46813,0.03407 -0.93896,0.04881 -1.40784,0.02741c0,0 -0.54554,-0.02578 -0.51977,-0.57132c0.02578,-0.54554 0.57132,-0.51977 0.57132,-0.51977c0.42477,0.02082 0.85152,0.00638 1.27559,-0.02564l0.67146,0.1247c0,0 0.53331,0.11776 0.41555,0.65106z" fill="#5e5e5e" stroke="none" stroke-width="0.5" stroke-linecap="butt"/><path d="M348.48741,262.56575c0.11565,0.53377 -0.41811,0.64942 -0.41811,0.64942l-0.25612,0.04742c-0.72658,0.0305 -1.37956,0.00104 -2.09855,-0.08239c0,0 -0.54251,-0.06303 -0.47948,-0.60553c0.06303,-0.5425 0.60553,-0.47948 0.60553,-0.47948c0.66323,0.07715 1.25451,0.10599 1.92535,0.07611l0.07196,-0.02367c0,0 0.53377,-0.11565 0.64942,0.41811z" fill="#5e5e5e" stroke="none" stroke-width="0.5" stroke-linecap="butt"/><path d="M210.73821,234.6655c0,0.89506 -0.76432,1.62065 -1.70716,1.62065c-0.94284,0 -1.70716,-0.72559 -1.70716,-1.62065c0,-0.89506 0.76432,-1.62065 1.70716,-1.62065c0.94284,0 1.70716,0.72559 1.70716,1.62065z" fill="#530079" stroke="none" stroke-width="0" stroke-linecap="butt"/><path d="M192.58698,239.00043c0,0.75488 -0.61216,1.36685 -1.3673,1.36685c-0.75514,0 -1.3673,-0.61196 -1.3673,-1.36685c0,-0.75488 0.61216,-1.36685 1.3673,-1.36685c0.75514,0 1.3673,0.61196 1.3673,1.36685z" fill="url(#color-9)" stroke="none" stroke-width="0" stroke-linecap="butt"/><path d="M207.01747,244.62743l1.25145,1.47901l-1.74386,-0.42174l-1.26794,1.46107l0.36161,-2.0362l-1.25145,-1.47901l1.74386,0.42174l1.26737,-1.46143z" fill="#ffffff" stroke="none" stroke-width="1" stroke-linecap="butt"/><path d="M211.68806,257.82607c-0.09705,0.09517 -0.1887,0.10965 -0.26156,0.09531c-0.01062,0.01283 -0.0212,0.0257 -0.03176,0.03861c-0.28804,0.35237 -0.53377,0.78713 -0.81376,1.1577c-0.65585,0.86801 -1.35064,1.65328 -2.24822,2.25861c-0.81139,0.3781 -1.59111,0.76885 -2.41564,1.10726c-0.79127,0.32476 -1.53632,0.7452 -2.37871,0.89469c-1.40807,0.24987 -2.80664,0.25021 -4.21267,0.60491c-0.91677,0.25234 -1.82155,0.66424 -2.74156,0.8796c-0.2461,0.05761 -0.49724,0.03217 -0.74573,0.06095c-0.53847,0.06236 -1.01238,0.15428 -1.55491,0.15722c-0.14868,0.0008 -0.30089,-0.01572 -0.4473,0.02638c-0.13668,0.03929 -0.24098,0.20853 -0.37992,0.21144c-0.19949,0.00418 -0.41448,-0.05521 -0.55191,-0.1919c-0.27655,-0.27508 -0.26894,-0.70491 -0.41354,-1.04545c-0.20667,-0.48675 -0.54464,-0.90589 -0.75473,-1.39032c-0.21077,-0.486 -0.35998,-1.04803 -0.51493,-1.5604c-0.20923,-0.86363 -0.42899,-1.74325 -0.73898,-2.56471c-0.17707,-0.4692 -0.42415,-0.91347 -0.55632,-1.4034c-0.05344,-0.1981 -0.14732,-0.80918 -0.19269,-1.00311c-0.15212,-0.65013 -0.38711,-1.24686 -0.46775,-1.92365c-0.14042,-1.17851 -0.17452,-2.41561 -0.14889,-3.61613c-0.16489,-1.70381 0.22072,-3.3979 0.578,-5.10559c0.13444,-0.64259 0.17748,-1.27771 0.40832,-1.90635c0.07024,-0.19128 0.16691,-0.36476 0.27147,-0.53295c-0.06573,-0.11555 -0.12168,-0.23848 -0.18764,-0.35387c0,0 -0.14419,-0.25521 0.1172,-0.42604c0.26139,-0.17084 0.40558,0.08437 0.40558,0.08437c0.01586,0.02845 0.03102,0.05741 0.04587,0.0866c0.0333,-0.05993 0.06488,-0.12104 0.09396,-0.18382c0,0 0.13389,-0.28528 0.4007,-0.17157c0.26681,0.11371 0.13293,0.39899 0.13293,0.39899c-0.07966,0.16793 -0.17975,0.32533 -0.28222,0.48137c0.46535,0.45818 1.21479,0.62014 1.7647,0.91959c0.99535,0.542 1.8934,1.28871 2.81966,1.93565c0.78123,0.54563 1.63043,0.95174 2.41489,1.49786c1.22273,0.92682 2.44268,1.86252 3.7391,2.68632c0.7315,0.46482 1.5209,0.83784 2.25599,1.29616c1.24197,0.77438 2.40183,1.67708 3.60712,2.50488c0.4217,0.28968 0.84284,0.58373 1.25069,0.89263c0.35293,0.2673 0.71637,0.66819 1.12211,0.85618c0.15428,0.07148 0.35181,0.06047 0.48455,0.16597c0.3438,0.27325 0.61902,0.90884 0.83737,1.29969l0.01031,0.01114c0.10823,-0.12709 0.21474,-0.25756 0.31647,-0.3984l-0.12337,0.05284c0,0 -0.08871,-0.28434 0.19632,-0.40039c0.28504,-0.11605 0.37375,0.16829 0.37375,0.16829l0.02161,0.51754c-0.13046,0.18061 -0.26976,0.34685 -0.41057,0.5103c0.02693,0.08251 0.02828,0.1997 -0.0934,0.31902zM210.9075,257.43933c-0.1631,-0.28695 -0.34509,-0.5611 -0.52161,-0.83882c-0.07266,-0.11432 -0.10127,-0.26894 -0.20779,-0.3501c-0.10948,-0.08341 -0.27567,-0.05614 -0.4011,-0.11381c-0.4389,-0.20185 -0.82326,-0.61872 -1.20405,-0.90719c-0.40131,-0.30401 -0.81583,-0.59329 -1.23082,-0.8783c-1.19835,-0.82314 -2.35146,-1.72117 -3.58622,-2.49124c-0.73673,-0.45947 -1.5279,-0.83347 -2.26113,-1.29939c-1.30566,-0.82967 -2.53501,-1.77114 -3.76629,-2.70481c-0.78174,-0.544 -1.62757,-0.94814 -2.4068,-1.49209c-0.90994,-0.63519 -1.79152,-1.37327 -2.76963,-1.9047c-0.58174,-0.31607 -1.27487,-0.49312 -1.78554,-0.924c-0.04018,0.07856 -0.07622,0.15919 -0.10618,0.24288c-0.2146,0.59958 -0.25475,1.20191 -0.38229,1.81465c-0.34558,1.66014 -0.72108,3.29583 -0.56486,4.95141c-0.02269,1.18728 0.00678,2.40951 0.14598,3.57499c0.07741,0.64816 0.30755,1.22067 0.45382,1.84343c0.07651,0.32574 0.10298,0.66725 0.18922,0.98961c0.12591,0.47065 0.37044,0.90014 0.5394,1.35089c0.3147,0.83956 0.54257,1.73485 0.7557,2.61649c0.14827,0.49096 0.29052,1.02797 0.4921,1.49306c0.20967,0.48378 0.54673,0.90232 0.75407,1.3887c0.13951,0.32728 0.115,0.5435 0.28807,0.86062c0.09075,0.16629 0.34017,-0.13026 0.36635,-0.13741c0.20504,-0.05603 0.41704,-0.05113 0.62506,-0.05737c0.52269,-0.0157 0.98251,-0.09289 1.50299,-0.15384c0.22467,-0.02631 0.4519,0.00485 0.67421,-0.04868c0.91418,-0.22017 1.81286,-0.62414 2.72481,-0.87544c1.42211,-0.35814 2.83441,-0.36338 4.25811,-0.61506c0.79758,-0.14099 1.50174,-0.54868 2.25066,-0.85645c0.80101,-0.32918 1.55686,-0.71164 2.3471,-1.07365c1.2502,-0.84965 1.93187,-2.0982 2.86134,-3.24294c0.01771,-0.02182 0.0355,-0.04346 0.05335,-0.06495z" fill="#ff0000" stroke="none" stroke-width="0.5" stroke-linecap="butt"/><path d="M211.00141,257.53618c-0.01784,0.02149 -0.03564,0.04315 -0.05335,0.06497c-0.92946,1.14474 -1.61158,2.39487 -2.86177,3.24452c-0.79024,0.36201 -1.54653,0.74536 -2.34754,1.07454c-0.74892,0.30777 -1.45375,0.7164 -2.25133,0.85739c-1.4237,0.25168 -2.83812,0.2586 -4.26023,0.61673c-0.91195,0.25129 -1.81284,0.65591 -2.72703,0.87608c-0.22231,0.05354 -0.45007,0.0224 -0.67475,0.04871c-0.52048,0.06095 -0.98144,0.13803 -1.50413,0.15372c-0.20802,0.00625 -0.42044,0.00124 -0.62548,0.05727c-0.02618,0.00716 -0.27581,0.30364 -0.36656,0.13735c-0.17307,-0.31712 -0.14899,-0.53352 -0.2885,-0.86079c-0.20734,-0.48637 -0.54538,-0.90548 -0.75505,-1.38926c-0.20157,-0.46509 -0.34476,-1.00298 -0.49303,-1.49393c-0.21314,-0.88164 -0.44221,-1.7794 -0.7569,-2.61896c-0.16896,-0.45076 -0.41361,-0.88172 -0.53952,-1.35237c-0.08624,-0.32237 -0.1126,-0.66484 -0.18911,-0.99057c-0.14627,-0.62276 -0.37597,-1.19669 -0.45339,-1.84485c-0.1392,-1.16548 -0.16754,-2.38951 -0.14485,-3.57679c-0.15622,-1.65558 0.2207,-3.29251 0.56628,-4.95265c0.12755,-0.61274 0.16814,-1.21533 0.38273,-1.81491c0.02995,-0.08368 0.06607,-0.16435 0.10625,-0.24292c0.51067,0.43088 1.20433,0.60768 1.78607,0.92376c0.97812,0.53143 1.86084,1.26915 2.77078,1.90435c0.77923,0.54395 1.62661,0.94798 2.40835,1.49199c1.23128,0.93367 2.46378,1.8764 3.76944,2.70607c0.73323,0.46592 1.52559,0.84136 2.26232,1.30084c1.23476,0.77007 2.38858,1.67027 3.58693,2.49342c0.41499,0.28501 0.82956,0.57484 1.23087,0.87885c0.38079,0.28847 0.76514,0.70582 1.20404,0.90766c0.12543,0.05768 0.29162,0.03046 0.4011,0.11387c0.10652,0.08116 0.13512,0.23593 0.20778,0.35025c0.17652,0.27771 0.35848,0.55221 0.52158,0.83916z" data-paper-data="{&quot;noHover&quot;:false,&quot;origItem&quot;:[&quot;Path&quot;,{&quot;applyMatrix&quot;:true,&quot;segments&quot;:[[[688.93327,611.84466],[0,0],[-5.19694,-2.16805]],[[673.11229,605.92236],[5.29167,1.92531],[-2.17826,-0.79253]],[[666.64821,603.3588],[2.31733,0.054],[-2.38158,-0.0555]],[[659.86659,605.61368],[2.34455,-0.42196],[-8.20434,1.47657]],[[633.77705,605.13368],[8.26687,0.17184],[-8.71226,-0.1811]],[[607.60461,605.27195],[8.71172,-0.1892],[-25.15772,0.54448]],[[532.03427,606.54409],[25.13077,-1.56184],[-14.99452,0.93189]],[[487.13705,610.8243],[15.01077,-0.8168],[-26.72957,1.45448]],[[406.87539,611.02627],[26.74003,0.56736],[-16.48274,0.26515]],[[357.98104,614.1852],[16.44712,-0.24257],[-19.20593,0.28326]],[[299.81359,615.4148],[19.11084,-2.2444],[-11.36626,1.33487]],[[265.39446,620.10319],[11.53273,0.79477],[0.23244,1.37906]],[[266.36631,624.19946],[-0.42793,-1.35],[3.06595,9.67223]],[[279.39471,650.99905],[-4.42079,-9.03497],[11.97759,24.47912]],[[321.65444,719.69544],[-18.97233,-19.77465],[11.71549,15.42851]],[[359.93753,764.16753],[-13.76607,-13.65015],[7.65576,7.59129]],[[384.9896,783.59441],[-8.36446,-6.62809],[4.37508,3.46686]],[[397.67495,794.52719],[-4.4775,-3.33352],[6.53706,4.86687]],[[418.93565,806.84847],[-6.93944,-4.21337],[12.92509,7.84764]],[[456.05902,833.38923],[-11.92653,-9.32727],[7.05657,4.92027]],[[478.09697,847.97082],[-7.54237,-4.09509],[7.84546,4.25966]],[[502.75289,858.7891],[-7.83893,-4.31457],[5.27474,2.90323]],[[515.51785,867.15324],[-5.64261,-2.46247],[2.95882,1.29124]],[[519.26554,861.99988],[-0.29488,0.33414],[2.30912,-2.61656]],[[527.45452,855.4771],[-2.85552,2.00611],[7.17502,-5.04072]],[[546.98452,839.58915],[-6.68532,5.60037],[2.88583,-2.41749]],[[555.95124,832.72267],[-2.57669,2.74462],[10.59583,-11.2864]],[[585.31141,796.27267],[-10.24906,11.66471],[16.32444,-17.75778]],[[638.8252,748.96337],[-17.4258,16.40793],[9.76219,-9.19196]],[[661.72474,717.14688],[-7.38895,10.87914],[7.90293,-11.63589]],[[683.77595,681.65338],[-7.4191,11.95689],[8.93041,-22.46623]],[[691.05573,613.59301],[-1.43914,23.27884],[0.02743,-0.44372]],[[691.14605,612.26658],[-0.03261,0.44066],[0,0]]],&quot;closed&quot;:true}]}" fill="url(#color-10)" stroke="none" stroke-width="0.5" stroke-linecap="butt"/><path d="M199.70764,229.06272c-0.03453,0.01748 -0.07603,0.02993 -0.12591,0.03463c-0.20315,0.01912 -0.26885,-0.11642 -0.2901,-0.20496c-0.09417,0.02876 -0.18039,0.00437 -0.18039,0.00437c-0.93399,-0.27034 -2.06295,0.21296 -2.94914,0.64549c-1.36897,0.66816 -2.75128,1.08667 -3.96021,2.08331c-1.29592,0.91057 -2.49693,1.94306 -3.77948,2.87382c-0.26427,0.19178 -0.57068,0.47272 -0.86238,0.61111c0.10635,0.06217 0.19643,0.15083 0.29238,0.22859c0.20986,0.17007 0.405,0.35937 0.62525,0.51564c0.60088,0.42637 1.26375,0.7611 1.86853,1.18374c0.75008,0.56063 1.56437,1.03088 2.30657,1.60175c0.37615,0.28932 0.678,0.69036 1.10804,0.90638c0.33714,0.16935 0.68707,0.19889 1.0646,0.21865c0.33209,0.01739 0.44809,0.01418 0.75036,0.10301c0.19368,0.05692 0.2043,0.15803 0.40965,0.01559c0.72806,-0.50501 1.34291,-1.26588 1.94371,-1.91553c0.38684,-0.46021 0.81852,-0.92504 1.12925,-1.44341c0.44344,-0.73977 0.83012,-1.68791 1.01839,-2.52249c0.11302,-0.501 0.02667,-0.97733 0.02805,-1.47285c0.00088,-0.31776 0.06627,-0.63876 0.06647,-0.95646c0.00012,-0.19341 -0.15686,-0.52434 -0.19163,-0.66271c-0.1594,-0.63438 0.06318,-1.27467 -0.27199,-1.84764zM199.51489,228.58002l0.13483,-0.1384c0.13113,0.02773 0.26225,0.05545 0.39338,0.08318c0.26817,0.34643 0.46392,0.66488 0.48843,1.13894c0.01864,0.36055 -0.0657,0.69168 0.02748,1.0478c0.08673,0.33145 0.2017,0.4399 0.20896,0.78852c0.00674,0.32363 -0.06562,0.65202 -0.06614,0.97636c-0.00088,0.54655 0.0787,1.05707 -0.04305,1.61097c-0.35595,1.61945 -1.24174,3.0093 -2.30325,4.2716c-0.62247,0.67357 -1.32486,1.60392 -2.12506,2.06123c-0.49651,0.28376 -0.98758,-0.01473 -1.48724,-0.04163c-0.44973,-0.02422 -0.87521,-0.07015 -1.27574,-0.27314c-0.4665,-0.23643 -0.79011,-0.64864 -1.19807,-0.96229c-0.73802,-0.56742 -1.54796,-1.03465 -2.29377,-1.5922c-0.83903,-0.58687 -1.72085,-1.07167 -2.51798,-1.71798c-0.15187,-0.12314 -0.68802,-0.44563 -0.65626,-0.71226c0.02472,-0.20746 0.2645,-0.33791 0.41805,-0.48566c0.24997,-0.24051 0.60962,-0.42587 0.88983,-0.62915c1.27768,-0.92695 2.47292,-1.95683 3.76464,-2.86282c1.24491,-1.02839 2.66058,-1.45967 4.06785,-2.1502c1.03483,-0.50777 2.28574,-0.99103 3.37268,-0.68947c0,0 0.21615,0.06115 0.20043,0.27659z" fill="#c70000" stroke="none" stroke-width="0.5" stroke-linecap="butt"/><path d="M199.9852,230.90765c0.03477,0.13837 0.192,0.47007 0.19188,0.66348c-0.0002,0.3177 -0.06544,0.63978 -0.06631,0.95754c-0.00137,0.49552 0.08482,0.97362 -0.0282,1.47461c-0.18827,0.83459 -0.57634,1.78556 -1.01979,2.52533c-0.31073,0.51837 -0.74388,0.98453 -1.13072,1.44474c-0.6008,0.64965 -1.21787,1.41146 -1.94593,1.91647c-0.20535,0.14245 -0.21634,0.0414 -0.41002,-0.01552c-0.30227,-0.08883 -0.41897,-0.08556 -0.75105,-0.10294c-0.37753,-0.01976 -0.7285,-0.04936 -1.06564,-0.21871c-0.43003,-0.21601 -0.7332,-0.61742 -1.10934,-0.90674c-0.7422,-0.57087 -1.55876,-1.04296 -2.30883,-1.60358c-0.60478,-0.42264 -1.26844,-0.75901 -1.86932,-1.18538c-0.22024,-0.15628 -0.41552,-0.34613 -0.62538,-0.51621c-0.09595,-0.07775 -0.18607,-0.16664 -0.29241,-0.22881c0.29171,-0.13839 0.59806,-0.41966 0.86234,-0.61145c1.28255,-0.93076 2.48442,-1.96711 3.78034,-2.87768c1.20893,-0.99664 2.59793,-1.41842 3.9669,-2.08658c0.88619,-0.43253 2.01778,-0.91448 2.95177,-0.64414c0,0 0.08632,0.02448 0.18049,-0.00427c0.02125,0.08854 0.08719,0.22435 0.29035,0.20523c0.04989,-0.00469 0.09143,-0.0171 0.12595,-0.03458c0.33518,0.57296 0.11354,1.21483 0.27293,1.84921z" data-paper-data="{&quot;noHover&quot;:false,&quot;origItem&quot;:[&quot;Path&quot;,{&quot;applyMatrix&quot;:true,&quot;segments&quot;:[[[122.08404,175.90797],[5.25518,2.12039],[-0.15362,0.27188]],[[121.37616,176.7128],[0.32619,-0.26103],[-1.32841,1.06303]],[[118.30218,176.74224],[0.59776,0.46911],[-0.51492,0.62026]],[[117.05875,177.60534],[0,0],[-7.92273,2.59127]],[[99.63953,195.39516],[4.02535,-6.87464],[-6.21827,10.61981]],[[82.41339,227.08058],[3.4308,-11.98407],[-4.47728,11.83519]],[[70.46139,262.99561],[4.28115,-11.90266],[-0.88214,2.45256]],[[67.50811,270.90452],[1.3452,-2.23737],[1.06121,-0.09389]],[[70.71776,271.01598],[-1.06716,-0.05415],[2.33426,0.11843]],[[77.71754,271.42616],[-2.33719,0.01801],[6.37638,-0.04915]],[[96.82564,270.36238],[-6.38485,0.0911],[8.10351,0.12055]],[[121.12532,269.9497],[-8.10016,-0.22267],[4.10518,0.11285]],[[133.49238,270.62896],[-4.11171,0.60642],[3.22351,-0.47542]],[[142.06947,267.10172],[-2.74883,1.62111],[2.41795,-1.42597]],[[147.85581,264.28812],[-2.57079,0.83004],[1.6473,-0.53186]],[[150.80883,262.49155],[-0.71884,1.86361],[2.54854,-6.6071]],[[154.7379,241.21674],[-0.92272,6.94496],[0.38172,-4.7403]],[[155.34554,226.73821],[0.44701,4.76073],[-0.63792,-6.79402]],[[149.70683,205.85712],[2.90865,6.22039],[-1.74604,-3.73406]],[[142.4395,196.28789],[2.50155,3.18213],[-1.60414,-2.04057]],[[138.05869,189.85026],[1.60862,2.03704],[-0.97931,-1.24013]],[[133.35575,186.49015],[0.94515,0.72584],[-4.33318,-3.32772]]],&quot;closed&quot;:true}]}" fill="url(#color-11)" stroke="none" stroke-width="0.5" stroke-linecap="butt"/><path d="M195.94288,243.5999c0.19798,-0.27408 0.52456,-0.37628 0.72944,-0.22829c0.20488,0.148 0.21048,0.49015 0.0125,0.76423c-0.19798,0.27408 -0.52456,0.37628 -0.72944,0.22829c-0.20488,-0.148 -0.21048,-0.49015 -0.0125,-0.76423z" fill="#ffffff" stroke="none" stroke-width="1" stroke-linecap="butt"/><path d="M220.34858,245.1591c-0.14228,0.01048 -0.50579,-0.03457 -0.68936,0.02633c-0.30154,0.10003 -0.58574,0.26298 -0.88712,0.36368c-0.46999,0.15702 -0.94932,0.22474 -1.38942,0.48947c-0.73314,0.441 -1.51173,1.10604 -2.07468,1.75949c-0.39447,0.45788 -0.70009,1.01377 -1.01542,1.52563c-0.42795,0.77451 -0.95705,1.59732 -1.20769,2.44719c-0.07069,0.23972 0.02863,0.21801 0.14353,0.384c0.17932,0.25904 0.21273,0.37017 0.33359,0.67997c0.1374,0.3522 0.27541,0.67512 0.54212,0.94196c0.34021,0.34036 0.81579,0.5009 1.20866,0.76708c0.77519,0.52521 1.47751,1.15047 2.24544,1.68638c0.59128,0.44132 1.11736,0.96543 1.71095,1.40188c0.21758,0.15998 0.4586,0.28574 0.68601,0.43153c0.10396,0.06665 0.21644,0.12431 0.30888,0.20573c0.03971,-0.32042 0.21013,-0.69958 0.30915,-1.01074c0.48057,-1.51006 1.08334,-2.97469 1.54054,-4.49111c0.56625,-1.46088 0.52916,-2.90468 0.73328,-4.41427c0.13214,-0.97722 0.23619,-2.20086 -0.31397,-3.00258c0,0 -0.05025,-0.07419 -0.05254,-0.17262c-0.09073,0.00766 -0.24005,-0.01213 -0.28574,-0.211c-0.01122,-0.04883 -0.01245,-0.09215 -0.0067,-0.13041c-0.64927,-0.13814 -1.18718,0.27437 -1.83951,0.3224zM223.03247,244.97135c0.62785,0.93711 0.56216,2.27651 0.40531,3.41848c-0.21331,1.55297 -0.17787,3.03247 -0.76295,4.53748c-0.45418,1.51098 -1.05629,2.96932 -1.53477,4.47356c-0.10493,0.32989 -0.16788,0.72957 -0.31766,1.04246c-0.092,0.1922 -0.1405,0.46083 -0.32968,0.54949c-0.24313,0.11395 -0.71779,-0.29371 -0.88241,-0.39919c-0.86407,-0.55365 -1.60141,-1.23846 -2.42222,-1.85055c-0.76367,-0.53281 -1.46176,-1.1549 -2.23235,-1.67723c-0.42596,-0.28872 -0.91898,-0.46641 -1.29003,-0.83498c-0.31858,-0.31645 -0.49588,-0.70594 -0.6602,-1.12528c-0.18256,-0.46589 -0.62024,-0.83828 -0.50689,-1.39881c0.18269,-0.90337 0.84518,-1.86254 1.28901,-2.66515c0.86478,-1.40441 1.90586,-2.68208 3.33142,-3.52891c0.48759,-0.28964 0.99724,-0.37453 1.51583,-0.54711c0.30775,-0.10242 0.59676,-0.27431 0.90612,-0.36961c0.33324,-0.10266 0.47233,-0.02759 0.81424,-0.04941c0.36736,-0.02345 0.65522,-0.20758 1.00336,-0.30318c0.45775,-0.1257 0.82158,-0.03993 1.23473,0.10578c0.06753,0.11577 0.13506,0.23154 0.20259,0.34731l-0.08902,0.17149c0.19959,-0.08262 0.32557,0.10336 0.32557,0.10336z" data-paper-data="{&quot;index&quot;:null}" fill="#c70000" stroke="none" stroke-width="0.5" stroke-linecap="butt"/><path d="M222.19069,244.83096c-0.00575,0.03827 -0.00447,0.08161 0.00675,0.13044c0.04569,0.19887 0.19534,0.21881 0.28607,0.21115c0.00229,0.09843 0.05266,0.17269 0.05266,0.17269c0.55016,0.80173 0.44821,2.02744 0.31608,3.00466c-0.20412,1.50959 -0.16804,2.96077 -0.73429,4.42165c-0.4572,1.51641 -1.06337,2.98307 -1.54394,4.49314c-0.09902,0.31115 -0.26978,0.69038 -0.30949,1.0108c-0.09244,-0.08143 -0.20515,-0.13905 -0.30911,-0.2057c-0.22741,-0.14579 -0.469,-0.27151 -0.68658,-0.43149c-0.5936,-0.43645 -1.12148,-0.96079 -1.71276,-1.40212c-0.76793,-0.5359 -1.47271,-1.16274 -2.24789,-1.68795c-0.39287,-0.26617 -0.86921,-0.42784 -1.20942,-0.7682c-0.26671,-0.26684 -0.40511,-0.59073 -0.54251,-0.94292c-0.12086,-0.3098 -0.15443,-0.42162 -0.33374,-0.68066c-0.1149,-0.16599 -0.21428,-0.14465 -0.14358,-0.38437c0.25064,-0.84987 0.77994,-1.67508 1.20789,-2.44959c0.31533,-0.51186 0.62176,-1.06956 1.01622,-1.52745c0.56294,-0.65345 1.34379,-1.3207 2.07693,-1.7617c0.4401,-0.26473 0.92106,-0.33314 1.39105,-0.49016c0.30138,-0.10069 0.58665,-0.26383 0.88819,-0.36386c0.18357,-0.06089 0.54787,-0.01587 0.69016,-0.02634c0.65233,-0.04803 1.19203,-0.46015 1.8413,-0.322z" data-paper-data="{&quot;noHover&quot;:false,&quot;origItem&quot;:[&quot;Path&quot;,{&quot;applyMatrix&quot;:true,&quot;segments&quot;:[[[348.46913,183.51203],[4.33318,-3.32772],[-0.94515,0.72584]],[[343.76619,186.87214],[0.97931,-1.24013],[-1.60862,2.03704]],[[339.38538,193.30977],[1.60414,-2.04057],[-2.50155,3.18213]],[[332.11805,202.879],[1.74604,-3.73406],[-2.90865,6.22039]],[[326.47933,223.76009],[0.63792,-6.79402],[-0.44701,4.76073]],[[327.08698,238.23862],[-0.38172,-4.7403],[0.92272,6.94496]],[[331.01605,259.51343],[-2.54854,-6.6071],[0.71885,1.86361]],[[333.96907,261.31],[-1.64729,-0.53186],[2.57079,0.83004]],[[339.75541,264.1236],[-2.41795,-1.42597],[2.74883,1.62111]],[[348.3325,267.65084],[-3.22351,-0.47542],[4.11171,0.60642]],[[360.69956,266.97158],[-4.10517,0.11285],[8.10016,-0.22267]],[[384.99924,267.38426],[-8.10351,0.12055],[6.38485,0.0911]],[[404.10734,268.44804],[-6.37639,-0.04915],[2.33719,0.01801]],[[411.10712,268.03786],[-2.33426,0.11843],[1.06716,-0.05415]],[[414.31677,267.9264],[-1.06121,-0.09389],[-1.34521,-2.23737]],[[411.36349,260.01749],[0.88214,2.45256],[-4.28115,-11.90266]],[[399.41148,224.10246],[4.47728,11.83519],[-3.4308,-11.98407]],[[382.18535,192.41704],[6.21827,10.61981],[-4.02535,-6.87464]],[[364.76613,174.62722],[7.92273,2.59127],[0,0]],[[363.5227,173.76412],[0.51492,0.62026],[-0.59776,0.46911]],[[360.44872,173.73468],[1.32841,1.06303],[-0.32619,-0.26103]],[[359.74084,172.92985],[0.15362,0.27188],[-5.25518,2.12039]]],&quot;closed&quot;:true}]}" fill="url(#color-12)" stroke="none" stroke-width="0.5" stroke-linecap="butt"/><path d="M195.33483,242.40548c0.05768,-0.07984 0.15281,-0.10962 0.2125,-0.06651c0.05969,0.04311 0.06132,0.14279 0.00364,0.22264c-0.05768,0.07984 -0.15282,0.10962 -0.2125,0.0665c-0.05969,-0.04311 -0.06132,-0.14279 -0.00364,-0.22263z" fill="#ffffff" stroke="none" stroke-width="1" stroke-linecap="butt"/><path d="M192.90162,241.96478c0.09735,-0.13477 0.25795,-0.18503 0.35869,-0.11225c0.10075,0.07278 0.1035,0.24102 0.00615,0.3758c-0.09735,0.13477 -0.25795,0.18503 -0.35869,0.11226c-0.10075,-0.07278 -0.1035,-0.24103 -0.00615,-0.3758z" fill="#ffffff" stroke="none" stroke-width="1" stroke-linecap="butt"/><path d="M190.72343,247.37017c-1.46109,-1.05542 -0.83746,-3.27327 -0.83746,-3.27327c0,0 0.42341,-1.72698 2.03067,-3.95202c2.16987,-3.00392 7.89558,-10.93048 11.30453,-15.64975c0.02646,0.00198 0.05323,0.00268 0.08022,0.00212l0.16613,0.00023c0.12366,0.0936 0.31274,0.08272 0.48271,0.07678c0.62083,-0.02172 1.32916,-0.18474 1.96643,-0.26609c0.39354,-0.05024 0.78546,-0.09751 1.17421,-0.13465c0.08209,-0.00221 0.16462,-0.00629 0.24785,-0.01341c0.06543,-0.0056 0.13085,-0.01402 0.19625,-0.02432c1.03355,-0.07586 2.04003,-0.05941 2.98934,0.18696c0.07918,0.00468 0.15845,0.00832 0.23782,0.01102c3.1585,2.28153 8.8537,6.39544 12.76124,9.21803c0.0168,0.14308 0.03359,0.27732 0.04086,0.39595c0.05363,0.03231 0.10745,0.06435 0.16122,0.09645c0.00605,0.02712 0.0125,0.05409 0.01931,0.08093c0.00014,0.00195 0.00028,0.00388 0.00043,0.00577c0.00943,0.12547 0.09669,0.69529 0.12266,0.77372c0.01657,0.05005 0.09467,0.05139 0.1007,0.1069c0.00676,0.0622 -0.0713,0.13692 -0.06731,0.20019c0.01457,0.23139 0.04812,0.45953 0.12154,0.66107c0.05823,0.15984 0.23603,0.22702 0.28083,0.39511c0.14368,0.53913 0.15461,1.08599 0.24384,1.64976c0.11352,0.39962 0.20492,0.79506 0.39987,1.14146c0.02669,0.04741 0.05207,0.09044 0.07609,0.13068c0.02,0.26023 0.08328,0.48278 0.25201,0.61355c0.00431,0.02793 0.00815,0.05733 0.01153,0.08842c-3.60445,4.96616 -10.20817,14.06674 -12.41524,17.12216c-1.43306,1.9839 -2.86274,2.41489 -2.86274,2.41489c0,0 -1.29956,0.93348 -2.76065,-0.12193z" fill="url(#color-13)" stroke="#c70000" stroke-width="3.5" stroke-linecap="butt"/><path d="M221.69083,222.15699l3.91514,11.39193c-0.01693,0.0323 -0.03226,0.06445 -0.03038,0.0942c0.01536,0.24389 0.05072,0.48435 0.1281,0.69677c0.06137,0.16847 0.24878,0.23928 0.296,0.41645c0.15144,0.56825 0.16296,1.14464 0.25702,1.73885c0.11965,0.4212 0.21599,0.838 0.42146,1.2031c0.02813,0.04997 0.05488,0.09532 0.0802,0.13774c0.00722,0.0939 0.01978,0.18314 0.04032,0.26544l-21.75023,-15.71118c0.51874,-0.06189 1.0662,-0.17505 1.57132,-0.23954c0.1686,-0.02153 4.81375,0.00429 4.85649,0.01538c0.74276,0.04387 1.49336,0.00169 2.24846,-0.06522z" fill="url(#color-14)" stroke="none" stroke-width="0" stroke-linecap="butt"/><path d="M205.43007,238.7619c0,0 -0.22856,-0.49969 0.41647,-1.3833c0.91379,-1.25176 2.14029,-2.85594 2.72965,-3.67183c0.68217,-0.94439 1.33466,-1.23737 1.33466,-1.23737c0,0 1.10489,-0.28075 1.90856,0.29977c0.73402,0.53021 1.3961,0.90396 1.91414,1.27817c0.90833,0.65613 1.13874,1.97828 1.13874,1.97828c0,0 0.26465,1.39809 -0.43973,2.37321c-0.61991,0.85819 -1.87856,2.48578 -2.73957,3.66424c-0.53287,0.72934 -0.93932,0.60888 -0.93932,0.60888c0,0 -0.58776,0.36702 -1.27149,-0.12478c-1.18347,-0.85125 -2.80118,-2.104 -3.4953,-2.6054c-0.57976,-0.41879 -0.55682,-1.17986 -0.55682,-1.17986z" fill="url(#color-15)" stroke="none" stroke-width="0" stroke-linecap="butt"/><path d="M198.60499,248.63726c0,0 -0.22856,-0.49969 0.41648,-1.3833c0.91379,-1.25176 2.1403,-2.85594 2.72966,-3.67183c0.68217,-0.94439 1.33465,-1.23737 1.33465,-1.23737c0,0 1.10489,-0.28075 1.90856,0.29977c0.73402,0.53021 1.3961,0.90396 1.91414,1.27817c0.90833,0.65613 1.13874,1.97828 1.13874,1.97828c0,0 0.26465,1.39809 -0.43973,2.37321c-0.61991,0.85819 -1.87856,2.48578 -2.73957,3.66424c-0.53287,0.72934 -0.93932,0.60888 -0.93932,0.60888c0,0 -0.58776,0.36702 -1.27149,-0.12478c-1.18347,-0.85125 -2.80118,-2.104 -3.4953,-2.6054c-0.57976,-0.41879 -0.55682,-1.17986 -0.55682,-1.17986z" fill="url(#color-16)" stroke="none" stroke-width="0" stroke-linecap="butt"/><path d="M193.30425,241.1l10.396,-14.26943" fill="none" stroke="#d6d6d6" stroke-width="4" stroke-linecap="round"/><path d="M191.77205,242.65915l0.17975,-0.21515l0.19059,-0.26385c0.10226,-0.14157 0.29,-0.1806 0.41932,-0.08718c0.11161,0.08062 0.14323,0.23354 0.08408,0.36492c0.0281,0.15651 -0.10337,0.28749 -0.10337,0.28749c-0.02806,0.02781 -0.05611,0.05561 -0.08417,0.08342l0.00177,0.00155l-0.34017,0.40128c-0.10476,0.12606 -0.28134,0.15752 -0.40474,0.06838c-0.12932,-0.09342 -0.15126,-0.28391 -0.049,-0.42548c0.00224,-0.00311 0.00453,-0.00616 0.00686,-0.00917l0.0175,-0.02283c0.01525,-0.10351 0.08159,-0.18337 0.08159,-0.18337z" fill="#d6d6d6" stroke="none" stroke-width="0.5" stroke-linecap="butt"/><path d="M207.81749,238.8344c-0.20559,0.23997 -0.42204,0.04832 -0.42204,0.04832l-0.1496,-0.16149c-0.13293,-0.28164 -0.3368,-0.62848 -0.30756,-0.9718c0.00891,-0.1047 0.37525,-0.71126 0.42703,-0.79532c0.56059,-0.91016 1.29518,-1.68625 2.00589,-2.47763c0,0 0.21105,-0.235 0.42218,-0.03729c0.21112,0.19771 0.00008,0.43271 0.00008,0.43271c-0.68162,0.75897 -1.39432,1.50309 -1.93074,2.37685c-0.11042,0.17987 -0.32055,0.33303 -0.3338,0.53809c-0.00761,0.11779 0.23312,0.57628 0.25759,0.62715l0.02012,-0.0112c0,0 0.21644,0.19165 0.01085,0.43162z" fill="#549bd1" stroke="none" stroke-width="0.5" stroke-linecap="butt"/><path d="M201.11823,249.28339c-0.17459,0.26359 -0.41673,0.10599 -0.41673,0.10599l-0.4321,-0.28887c-0.30886,-0.51579 -0.48367,-0.52306 -0.29214,-1.14507c0.13707,-0.44517 0.57703,-0.89704 0.84075,-1.27364c0.28563,-0.40787 0.64667,-0.7756 0.92546,-1.17618c0.07364,-0.10582 0.09846,-0.23968 0.17315,-0.34476c0.28914,-0.40678 0.761,-0.83642 1.13829,-1.15537c0,0 0.24076,-0.20212 0.41725,0.0291c0.17649,0.23122 -0.06428,0.43334 -0.06428,0.43334c-0.33241,0.27674 -0.77076,0.6667 -1.01848,1.02497c-0.07359,0.10643 -0.09933,0.24027 -0.174,0.34595c-0.15091,0.21362 -0.36193,0.37775 -0.52311,0.58368c-0.2244,0.28669 -0.413,0.59884 -0.63067,0.89098c-0.13339,0.17903 -0.64106,0.78078 -0.56123,1.01968c0.04053,0.1213 0.1387,0.20929 0.20805,0.31394l0.34221,0.21508c0,0 0.24215,0.1576 0.06756,0.42119z" fill="#549bd1" stroke="none" stroke-width="0.5" stroke-linecap="butt"/><path d="M208.24055,239.57543c0.10226,-0.14157 0.29,-0.18061 0.41932,-0.08719c0.12932,0.09342 0.15126,0.28391 0.049,0.42548c-0.10226,0.14157 -0.29,0.18061 -0.41932,0.08719c-0.12932,-0.09342 -0.15126,-0.28391 -0.049,-0.42548z" fill="#549bd1" stroke="none" stroke-width="0.5" stroke-linecap="butt"/><path d="M201.47558,249.71114c0.10226,-0.14157 0.29,-0.18061 0.41932,-0.08719c0.12932,0.09342 0.15126,0.28391 0.049,0.42548c-0.10226,0.14157 -0.29,0.18061 -0.41932,0.08719c-0.12932,-0.09342 -0.15126,-0.28391 -0.049,-0.42548z" fill="#549bd1" stroke="none" stroke-width="0.5" stroke-linecap="butt"/><path d="M214.42715,223.4906c0.00764,-0.30655 0.30607,-0.32502 0.30607,-0.32502l0.2246,-0.00158c0.92883,0.22699 1.87652,0.06567 2.83264,0.0098c0.62008,-0.03623 1.27916,-0.11309 1.89614,-0.10104c0.31535,0.00616 0.60751,0.09738 0.92523,0.10004c0,0 0.29711,0.00346 0.26819,0.31055c-0.02893,0.30709 -0.32604,0.30363 -0.32604,0.30363c-0.31989,-0.00462 -0.61874,-0.09545 -0.93496,-0.10024c-0.60157,-0.00912 -1.24208,0.06566 -1.84625,0.1003c-1.01599,0.05826 -2.00938,0.21012 -2.99726,-0.02425l-0.05758,0.01588c0,0 -0.29843,0.01848 -0.29078,-0.28808z" fill="#ff0000" stroke="none" stroke-width="0.5" stroke-linecap="butt"/><path d="M212.15827,223.21458c0.10643,-0.29525 0.38534,-0.21074 0.38534,-0.21074l0.06734,0.02609c0.23932,0.02461 0.47592,0.0764 0.69766,0.15983c0,0 0.27107,0.10427 0.14602,0.39314c-0.12504,0.28886 -0.39612,0.18459 -0.39612,0.18459c-0.17451,-0.06902 -0.36305,-0.10923 -0.55323,-0.12594l-0.17454,-0.0472c0,0 -0.2789,-0.08451 -0.17247,-0.37976z" fill="#ff0000" stroke="none" stroke-width="0.5" stroke-linecap="butt"/><path d="M210.62417,223.05913c0.10226,-0.14157 0.29,-0.18061 0.41932,-0.08719c0.12932,0.09342 0.15126,0.28391 0.049,0.42548c-0.10226,0.14157 -0.29,0.18061 -0.41932,0.08719c-0.12932,-0.09342 -0.15126,-0.28391 -0.049,-0.42548z" fill="#ff0000" stroke="none" stroke-width="0.5" stroke-linecap="butt"/><path d="M192.64381,231.79705c0.29635,-0.18113 0.58407,-0.38259 0.88529,-0.54902c0.35664,-0.19705 0.72059,-0.24748 1.09124,-0.38274c0.68704,-0.25071 1.29186,-0.48546 2.01339,-0.55387c0,0 0.29851,-0.02804 0.3002,0.27779c0.00168,0.30583 -0.29683,0.33386 -0.29683,0.33386c-0.66981,0.06227 -1.22409,0.28808 -1.86199,0.51962c-0.33531,0.1217 -0.67759,0.1596 -0.99758,0.33991c-0.35874,0.20215 -0.69967,0.44755 -1.05911,0.65189l-0.406,-0.36704c0,0 0.05785,-0.28969 0.33141,-0.2704z" fill="#df4b4b" stroke="none" stroke-width="0.5" stroke-linecap="butt"/></g></g></svg>