<svg version="1.1" xmlns="http://www.w3.org/2000/svg" xmlns:xlink="http://www.w3.org/1999/xlink" width="301.11301" height="307.88892" viewBox="0,0,301.11301,307.88892"><defs><radialGradient cx="244.6455" cy="185.01672" r="150.5565" gradientUnits="userSpaceOnUse" id="color-1"><stop offset="0" stop-color="#1e0077"/><stop offset="1" stop-color="#000000"/></radialGradient><linearGradient x1="152.75485" y1="209.97018" x2="246.30772" y2="196.30121" gradientUnits="userSpaceOnUse" id="color-2"><stop offset="0" stop-color="#780000"/><stop offset="1" stop-color="#989898"/></linearGradient><linearGradient x1="295.25926" y1="231.18212" x2="308.17268" y2="231.18212" gradientUnits="userSpaceOnUse" id="color-3"><stop offset="0" stop-color="#ffffff"/><stop offset="1" stop-color="#ffffff"/></linearGradient><linearGradient x1="317.36842" y1="174.80959" x2="330.28184" y2="174.80959" gradientUnits="userSpaceOnUse" id="color-4"><stop offset="0" stop-color="#ffffff"/><stop offset="1" stop-color="#ffffff"/></linearGradient><linearGradient x1="309.36662" y1="199.13439" x2="317.60978" y2="199.13439" gradientUnits="userSpaceOnUse" id="color-5"><stop offset="0" stop-color="#ffffff"/><stop offset="1" stop-color="#ffffff"/></linearGradient></defs><g transform="translate(-94.08899,-58.54208)"><g data-paper-data="{&quot;isPaintingLayer&quot;:true}" fill-rule="nonzero" stroke="none" stroke-linecap="butt" stroke-linejoin="miter" stroke-miterlimit="10" stroke-dasharray="" stroke-dashoffset="0" style="mix-blend-mode: normal"><path d="M358.26552,366.431h-227.24c-20.09212,0 -36.38,-16.28788 -36.38,-36.38v-49.48h300v49.48c0,20.09212 -16.28788,36.38 -36.38,36.38z" fill="#000000" stroke-width="1"/><path d="M395.0586,268.43321c-0.02047,23.78035 -0.03705,43.05815 -0.03705,43.05815l-300.93256,-0.22568c0,0 0.01658,-19.2778 0.03705,-43.05815l0.14338,-166.64549c0.02047,-23.78035 14.03705,-32.05814 14.03705,-32.05814c0,0 13.54302,-10.97934 36.94167,-10.9618c36.7225,0.02754 146.88676,0.11015 207.99988,0.15598c25.14868,0.01886 30.991,9.03149 30.991,9.03149c0,0 10.98341,10.27779 10.96295,34.05814z" fill="url(#color-1)" stroke-width="1"/><path d="M330.62542,102.49292l15.4767,2.08885l-14.04085,6.83711l-2.09348,15.4831l-6.838,-14.04636l-15.4767,-2.08884l14.04085,-6.83712l2.08795,-15.48222z" fill="#ffffff" stroke-width="1"/><path d="M294.90345,137.39212l10.45813,1.41151l-9.48787,4.62007l-1.41463,10.46245l-4.62066,-9.4916l-10.45813,-1.4115l9.48787,-4.62007l1.4109,-10.46186z" fill="#ffffff" stroke-width="1"/><path d="M353.34515,141.00555l7.41563,7.50821l-10.33349,-2.14096l-7.51333,7.41714l2.14276,-10.3368l-7.41564,-7.5082l10.3335,2.14095l7.51,-7.41896z" fill="#ffffff" stroke-width="1"/><path d="M243.14863,253.43332l-70.60125,10.31552c-6.24243,0.91208 -12.0423,-3.40902 -12.95437,-9.65145l-2.24613,-15.37295l93.20707,-13.61845l2.24613,15.37295c0.91208,6.24243 -3.40902,12.0423 -9.65145,12.95437z" fill="#6c0000" stroke-width="1"/><path d="M250.04984,222.22441c1.07314,7.38925 1.94311,13.37943 1.94311,13.37943l-93.50705,13.59067c0,0 -0.86996,-5.99018 -1.94311,-13.37943l-7.5203,-51.78163c-1.07314,-7.38925 2.9059,-10.59736 2.9059,-10.59736c0,0 3.70928,-4.02596 10.9798,-5.08268c11.41057,-1.65845 45.64128,-6.63368 64.63061,-9.39366c7.81431,-1.13576 10.03858,1.39916 10.03858,1.39916c0,0 3.879,2.69462 4.95215,10.08387z" fill="url(#color-2)" stroke-width="1"/><path d="M308.17268,231.18212c0,3.56475 -2.89077,6.45456 -6.45671,6.45456c-3.56594,0 -6.45671,-2.8898 -6.45671,-6.45456c0,-3.56475 2.89077,-6.45456 6.45671,-6.45456c3.56594,0 6.45671,2.8898 6.45671,6.45456z" fill="url(#color-3)" stroke-width="0"/><path d="M330.28184,174.80959c0,3.38525 -2.89077,6.12953 -6.45671,6.12953c-3.56594,0 -6.45671,-2.74429 -6.45671,-6.12953c0,-3.38525 2.89077,-6.12953 6.45671,-6.12953c3.56594,0 6.45671,2.74428 6.45671,6.12953z" fill="url(#color-4)" stroke-width="0"/><path d="M317.60978,199.13439c0,2.27553 -1.8453,4.12021 -4.12158,4.12021c-2.27628,0 -4.12158,-1.84468 -4.12158,-4.12021c0,-2.27553 1.8453,-4.12021 4.12158,-4.12021c2.27628,0 4.12158,1.84468 4.12158,4.12021z" fill="url(#color-5)" stroke-width="0"/></g></g></svg>