<svg version="1.1" xmlns="http://www.w3.org/2000/svg" xmlns:xlink="http://www.w3.org/1999/xlink" width="344.84467" height="359.58931" viewBox="0,0,344.84467,359.58931"><defs><linearGradient x1="234.53399" y1="-0.52655" x2="234.53399" y2="303.72454" gradientUnits="userSpaceOnUse" id="color-1"><stop offset="0" stop-color="#000000"/><stop offset="1" stop-color="#384061"/></linearGradient><linearGradient x1="221.91094" y1="141.94396" x2="257.34254" y2="216.51229" gradientUnits="userSpaceOnUse" id="color-2"><stop offset="0" stop-color="#ff9f00"/><stop offset="1" stop-color="#ff5600"/></linearGradient><linearGradient x1="230.05253" y1="142.99308" x2="260.74674" y2="207.5912" gradientUnits="userSpaceOnUse" id="color-3"><stop offset="0" stop-color="#ffb846"/><stop offset="1" stop-color="#ff7e3e"/></linearGradient><linearGradient x1="233.5553" y1="145.41556" x2="260.89136" y2="202.94619" gradientUnits="userSpaceOnUse" id="color-4"><stop offset="0" stop-color="#d89c3a"/><stop offset="1" stop-color="#d46833"/></linearGradient><linearGradient x1="199.38745" y1="78.70373" x2="285.30912" y2="259.53192" gradientUnits="userSpaceOnUse" id="color-5"><stop offset="0" stop-color="#ff9f00"/><stop offset="1" stop-color="#ff5600"/></linearGradient><linearGradient x1="205.73807" y1="90.92984" x2="279.63282" y2="246.44658" gradientUnits="userSpaceOnUse" id="color-6"><stop offset="0" stop-color="#ff8346"/><stop offset="1" stop-color="#d48300"/></linearGradient><linearGradient x1="209.36501" y1="99.27224" x2="276.02073" y2="239.55392" gradientUnits="userSpaceOnUse" id="color-7"><stop offset="0" stop-color="#ffaa21"/><stop offset="1" stop-color="#ff7029"/></linearGradient><radialGradient cx="241.98401" cy="168.8585" r="83.47537" gradientUnits="userSpaceOnUse" id="color-8"><stop offset="0" stop-color="#ff9e00"/><stop offset="1" stop-color="#cd7517"/></radialGradient></defs><g transform="translate(-62.11166,0.52655)"><g data-paper-data="{&quot;isPaintingLayer&quot;:true}" fill-rule="nonzero" stroke="none" stroke-linecap="butt" stroke-linejoin="miter" stroke-miterlimit="10" stroke-dasharray="" stroke-dashoffset="0" style="mix-blend-mode: normal"><path d="M406.84939,42.20619v280.41899c0,20.097 -18.72039,36.43758 -41.76097,36.43758h-261.16966c-23.04055,0 -41.76097,-16.34057 -41.76097,-36.43758v-280.60674c0,-20.097 18.72043,-36.43758 41.76097,-36.43758h261.16966c23.17144,0 41.89186,16.34054 41.76097,36.62537z" fill="#282d45" stroke-width="1"/><path d="M406.95566,30.99782v241.36395c0,17.29802 -18.72867,31.36277 -41.77943,31.36277h-261.28513c-23.05073,0 -41.77943,-14.06476 -41.77943,-31.36277v-241.52556c0,-17.29802 18.7287,-31.36277 41.77943,-31.36277h261.28513c23.18168,0 41.91039,14.06474 41.77943,31.52439z" fill="url(#color-1)" stroke-width="1"/><path d="M358.01629,114.70882c23.72661,49.93433 -5.64627,118.69487 -65.60617,153.58097c-59.9599,34.88609 -127.80122,22.6871 -151.52783,-27.24725c-23.72661,-49.93433 5.64627,-118.69487 65.60616,-153.58096c59.9599,-34.88609 127.80123,-22.6871 151.52783,27.24724z" fill="#131621" stroke-width="0"/><path d="M403.39109,83.25207c11.80215,24.83847 -51.73583,87.50856 -141.91607,139.97756c-90.18024,52.469 -172.8533,74.86798 -184.65545,50.02951c-11.80215,-24.83847 51.73582,-87.50856 141.91607,-139.97756c90.18024,-52.469 172.8533,-74.86798 184.65545,-50.02951z" fill="#131621" stroke-width="0"/><path d="M402.91249,84.22457c9.78416,20.59147 -55.38972,79.81871 -145.56996,132.28772c-90.18024,52.469 -171.2174,78.31085 -181.00156,57.71938c-9.78416,-20.59147 55.38971,-79.8187 145.56995,-132.28771c90.18024,-52.469 171.2174,-78.31086 181.00157,-57.71938z" fill="url(#color-2)" stroke-width="0"/><path d="M386.85316,92.99111c8.47597,17.83828 -47.98379,69.14649 -126.10642,114.6001c-78.12262,45.4536 -148.32465,67.84024 -156.80064,50.00196c-8.47597,-17.83828 47.98379,-69.14648 126.10641,-114.6001c78.12262,-45.4536 148.32465,-67.84024 156.80064,-50.00197z" fill="url(#color-3)" stroke-width="0"/><path d="M373.20084,100.88416c7.54864,15.88666 -42.73403,61.58138 -112.3095,102.06204c-69.57545,40.48065 -132.09689,60.41805 -139.64554,44.53139c-7.54864,-15.88666 42.73403,-61.58137 112.30949,-102.06204c69.57545,-40.48065 132.0969,-60.41805 139.64554,-44.5314z" fill="url(#color-4)" stroke-width="0"/><path d="M350.91528,105.95096c23.72661,49.93433 -5.64627,118.69487 -65.60617,153.58097c-59.9599,34.8861 -127.80122,22.68709 -151.52783,-27.24725c-23.72661,-49.93433 5.64627,-118.69486 65.60616,-153.58096c59.9599,-34.8861 127.80123,-22.6871 151.52783,27.24724z" fill="url(#color-5)" stroke-width="0"/><path d="M336.05576,114.36314c20.40546,42.94476 -4.85593,102.08053 -56.42292,132.08343c-51.56699,30.0029 -109.91222,19.51145 -130.31768,-23.4333c-20.40546,-42.94476 4.85592,-102.08052 56.42292,-132.08342c51.56699,-30.0029 109.91222,-19.51145 130.31768,23.43329z" fill="url(#color-6)" stroke-width="0"/><path d="M326.91624,120.40992c18.40647,38.73771 -4.38022,92.0803 -50.89551,119.144c-46.51529,27.06369 -99.14476,17.60004 -117.55123,-21.13767c-18.40647,-38.73771 4.38022,-92.08029 50.8955,-119.14399c46.51529,-27.06369 99.14476,-17.60004 117.55123,21.13767z" fill="url(#color-7)" stroke-width="0"/><path d="M314.71207,126.54359c15.43562,32.48532 -4.61281,77.76493 -44.77941,101.13481c-40.1666,23.36989 -85.24109,15.98035 -100.6767,-16.50499c-15.43562,-32.48532 4.61281,-77.76493 44.77941,-101.13481c40.1666,-23.36989 85.24109,-15.98035 100.6767,16.50499z" fill="url(#color-8)" stroke-width="0"/><path d="M125.14729,46.82199l8.6915,9.29722l-12.22349,-2.76545l-9.00843,8.97798l2.67992,-12.62795l-8.6915,-9.29722l12.22349,2.76545l9.00453,-8.98026z" fill="#dcdcdc" stroke-width="1"/><path d="M399.8152,137.52677l5.28008,5.64806l-7.42577,-1.68001l-5.47261,5.45412l1.62806,-7.67147l-5.28008,-5.64806l7.42576,1.68001l5.47024,-5.4555z" fill="#dcdcdc" stroke-width="1"/><path d="M83.39342,201.95016l2.70755,9.64458l-7.4286,-6.47903l-9.34348,2.79518l6.27646,-7.67391l-2.70755,-9.64458l7.4286,6.47903l9.34161,-2.7982z" fill="#dcdcdc" stroke-width="1"/><path d="M379.86615,228.82224l8.6915,9.29722l-12.22349,-2.76545l-9.00843,8.97798l2.67992,-12.62795l-8.69149,-9.29722l12.22349,2.76545l9.00453,-8.98025z" fill="#dcdcdc" stroke-width="1"/><path d="M309.76452,35.46761l5.2003,5.56272l-7.31356,-1.65462l-5.38992,5.37171l1.60345,-7.55555l-5.2003,-5.56272l7.31356,1.65462l5.38759,-5.37307z" fill="#dcdcdc" stroke-width="1"/></g></g></svg>