<svg version="1.1" xmlns="http://www.w3.org/2000/svg" xmlns:xlink="http://www.w3.org/1999/xlink" width="305.89266" height="307.88892" viewBox="0,0,305.89266,307.88892"><defs><radialGradient cx="233.10967" cy="158.30752" r="150.5565" gradientUnits="userSpaceOnUse" id="color-1"><stop offset="0" stop-color="#1e0077"/><stop offset="1" stop-color="#000000"/></radialGradient><linearGradient x1="298.89858" y1="254.09599" x2="316.6165" y2="254.09599" gradientUnits="userSpaceOnUse" id="color-2"><stop offset="0" stop-color="#ffffff"/><stop offset="1" stop-color="#ffffff"/></linearGradient><linearGradient x1="293.60412" y1="203.8812" x2="304.91419" y2="203.8812" gradientUnits="userSpaceOnUse" id="color-3"><stop offset="0" stop-color="#ffffff"/><stop offset="1" stop-color="#ffffff"/></linearGradient><linearGradient x1="251.12875" y1="111.05994" x2="199.1526" y2="239.53318" gradientUnits="userSpaceOnUse" id="color-4"><stop offset="0" stop-color="#7189a3"/><stop offset="1" stop-color="#9295e0"/></linearGradient><linearGradient x1="268.2838" y1="67.5284" x2="253.61044" y2="103.79762" gradientUnits="userSpaceOnUse" id="color-5"><stop offset="0" stop-color="#959aa3"/><stop offset="1" stop-color="#a9c6e0"/></linearGradient><linearGradient x1="203.53054" y1="232.83976" x2="188.85718" y2="269.10898" gradientUnits="userSpaceOnUse" id="color-6"><stop offset="0" stop-color="#9199a3"/><stop offset="1" stop-color="#a7a9e0"/></linearGradient><radialGradient cx="190.05328" cy="268.27209" r="56.48384" gradientUnits="userSpaceOnUse" id="color-7"><stop offset="0" stop-color="#7592a3"/><stop offset="1" stop-color="#47566a"/></radialGradient></defs><g transform="translate(-82.55316,-31.83288)"><g data-paper-data="{&quot;isPaintingLayer&quot;:true}" fill-rule="nonzero" stroke-linejoin="miter" stroke-miterlimit="10" stroke-dasharray="" stroke-dashoffset="0" style="mix-blend-mode: normal"><path d="M346.72969,339.7218h-227.24c-20.09212,0 -36.38,-16.28788 -36.38,-36.38v-49.48h300v49.48c0,20.09212 -16.28788,36.38 -36.38,36.38z" fill="#000000" stroke="none" stroke-width="1" stroke-linecap="butt"/><path d="M383.52277,241.72401c-0.02047,23.78035 -0.03705,43.05815 -0.03705,43.05815l-300.93256,-0.22568c0,0 0.01658,-19.2778 0.03705,-43.05815l0.14338,-166.64549c0.02047,-23.78035 14.03705,-32.05814 14.03705,-32.05814c0,0 13.54302,-10.97934 36.94167,-10.9618c36.7225,0.02754 146.88676,0.11015 207.99988,0.15598c25.14868,0.01886 30.991,9.03149 30.991,9.03149c0,0 10.98341,10.27779 10.96295,34.05814z" fill="url(#color-1)" stroke="none" stroke-width="1" stroke-linecap="butt"/><path d="M350.0176,76.06776l21.23488,2.86602l-19.26481,9.38089l-2.87237,21.24366l-9.38211,-19.27237l-21.23488,-2.866l19.26481,-9.3809l2.86478,-21.24245z" fill="#ffffff" stroke="none" stroke-width="1" stroke-linecap="butt"/><path d="M298.32933,125.3299l14.34913,1.93667l-13.01788,6.33899l-1.94095,14.35505l-6.3398,-13.02299l-14.34913,-1.93666l13.01788,-6.33899l1.93583,-14.35424z" fill="#ffffff" stroke="none" stroke-width="1" stroke-linecap="butt"/><path d="M378.27117,125.0983l10.17465,10.30167l-14.17811,-2.93751l-10.3087,10.17672l2.93998,-14.18266l-10.17466,-10.30166l14.17813,2.9375l10.30413,-10.17922z" fill="#ffffff" stroke="none" stroke-width="1" stroke-linecap="butt"/><path d="M316.6165,254.09599c0,4.89103 -3.96629,8.85601 -8.85896,8.85601c-4.89266,0 -8.85896,-3.96496 -8.85896,-8.85601c0,-4.89103 3.96629,-8.85601 8.85896,-8.85601c4.89266,0 8.85896,3.96496 8.85896,8.85601z" fill="url(#color-2)" stroke="none" stroke-width="0" stroke-linecap="butt"/><path d="M304.91419,203.8812c0,3.12215 -2.53185,5.65315 -5.65503,5.65315c-3.12318,0 -5.65503,-2.531 -5.65503,-5.65315c0,-3.12215 2.53185,-5.65315 5.65503,-5.65315c3.12318,0 5.65503,2.531 5.65503,5.65315z" fill="url(#color-3)" stroke="none" stroke-width="0" stroke-linecap="butt"/><path d="M118.4276,155.5003c0,2.06979 -1.74318,3.74767 -3.89349,3.74767c-2.15031,0 -3.89349,-1.67789 -3.89349,-3.74767c0,-2.06979 1.74318,-3.74767 3.89349,-3.74767c2.15031,0 3.89349,1.67789 3.89349,3.74767z" fill="#530079" stroke="none" stroke-width="0" stroke-linecap="butt"/><path d="M182.8962,153.19826l-22.18374,-8.59327" fill="none" stroke="#aaaaaa" stroke-width="5" stroke-linecap="round"/><path d="M113.73535,120.31134l9.13849,-22.58827l20.98541,8.49003l-9.13849,22.58827z" fill="#d9d9d9" stroke="#aaaaaa" stroke-width="5" stroke-linecap="butt"/><path d="M139.46646,130.46405l9.13849,-22.58827l20.98541,8.49003l-9.13849,22.58827z" fill="#d9d9d9" stroke="#aaaaaa" stroke-width="5" stroke-linecap="butt"/><path d="M128.18819,158.64843l9.13849,-22.58827l20.98541,8.49003l-9.13849,22.58827z" fill="#d9d9d9" stroke="#aaaaaa" stroke-width="5" stroke-linecap="butt"/><path d="M102.57905,147.98287l9.13849,-22.58827l20.98541,8.49003l-9.13849,22.58827z" fill="#d9d9d9" stroke="#aaaaaa" stroke-width="5" stroke-linecap="butt"/><path d="M117.30314,186.63929l9.13849,-22.58827l20.98541,8.49003l-9.13849,22.58827z" fill="#d9d9d9" stroke="#aaaaaa" stroke-width="5" stroke-linecap="butt"/><path d="M91.55418,176.37204l9.13849,-22.58827l20.98541,8.49003l-9.13849,22.58827z" fill="#d9d9d9" stroke="#aaaaaa" stroke-width="5" stroke-linecap="butt"/><path d="M124.79628,127.84625c0.02573,0.4747 -0.05236,1.72087 -1.53625,1.98207c-1.84204,0.32424 -2.16628,-1.51778 -2.16628,-1.51778l0.06874,-1.51273c0.27604,-0.60375 0.55209,-1.20749 0.82813,-1.81124c0,0 0.77772,-1.70099 2.47871,-0.92326c1.70099,0.77772 0.92326,2.47871 0.92326,2.47871c-0.19877,0.43475 -0.39754,0.86948 -0.59632,1.30423z" fill="#aaaaaa" stroke="none" stroke-width="0.5" stroke-linecap="butt"/><path d="M148.27375,137.23566c0.3874,-0.95757 1.47772,-1.41977 2.43529,-1.03238c0.95757,0.3874 1.41977,1.47772 1.03238,2.43529c-0.3874,0.95757 -1.47772,1.41977 -2.43529,1.03238c-0.95757,-0.3874 -1.41977,-1.47772 -1.03238,-2.43529z" fill="#aaaaaa" stroke="none" stroke-width="0.5" stroke-linecap="butt"/><path d="M139.18784,165.64503c-0.00151,0.00461 -0.003,0.00923 -0.0045,0.01384c0,0 -0.57908,1.77846 -2.35752,1.19938c-1.77846,-0.57908 -1.19938,-2.35752 -1.19938,-2.35752c0.19668,-0.60405 0.39335,-1.20808 0.59004,-1.81214l1.76969,1.27235l1.78722,-0.1142c-0.12305,0.37792 -0.24611,0.75584 -0.36915,1.13376l0.06852,0.04926c0,0 -0.07576,0.29439 -0.28489,0.61527z" fill="#aaaaaa" stroke="none" stroke-width="0.5" stroke-linecap="butt"/><path d="M115.15676,152.78617c1.51187,1.10112 0.41075,2.613 0.41075,2.613l-0.20733,0.18977c-0.2432,0.60112 -0.48639,1.20224 -0.72958,1.80336c0,0 -0.70145,1.73384 -2.43529,1.03238c-1.73384,-0.70145 -1.03238,-2.43529 -1.03238,-2.43529c0.2432,-0.60112 0.48639,-1.20224 0.72958,-1.80336l0.65125,-0.9891c0,0 1.10112,-1.51187 2.613,-0.41075z" fill="#aaaaaa" stroke="none" stroke-width="0.5" stroke-linecap="butt"/><path d="M269.28611,186.36539l21.91844,9.24905" data-paper-data="{&quot;index&quot;:null}" fill="none" stroke="#aaaaaa" stroke-width="5" stroke-linecap="round"/><path d="M320.8733,202.32924l9.13849,-22.58827l20.98541,8.49003l-9.13849,22.58827z" data-paper-data="{&quot;index&quot;:null}" fill="#d9d9d9" stroke="#aaaaaa" stroke-width="5" stroke-linecap="butt"/><path d="M295.32105,191.73436l9.13849,-22.58827l20.98541,8.49003l-9.13849,22.58827z" data-paper-data="{&quot;index&quot;:null}" fill="#d9d9d9" stroke="#aaaaaa" stroke-width="5" stroke-linecap="butt"/><path d="M283.8293,219.83238l9.13849,-22.58827l20.98541,8.49003l-9.13849,22.58827z" data-paper-data="{&quot;index&quot;:null}" fill="#d9d9d9" stroke="#aaaaaa" stroke-width="5" stroke-linecap="butt"/><path d="M309.65045,229.97385l9.13849,-22.58827l20.98541,8.49003l-9.13849,22.58827z" data-paper-data="{&quot;index&quot;:null}" fill="#d9d9d9" stroke="#aaaaaa" stroke-width="5" stroke-linecap="butt"/><path d="M272.18947,247.51786l9.13849,-22.58827l20.98541,8.49003l-9.13849,22.58827z" data-paper-data="{&quot;index&quot;:null}" fill="#d9d9d9" stroke="#aaaaaa" stroke-width="5" stroke-linecap="butt"/><path d="M297.94342,258.06138l9.13849,-22.58827l20.98541,8.49003l-9.13849,22.58827z" data-paper-data="{&quot;index&quot;:null}" fill="#d9d9d9" stroke="#aaaaaa" stroke-width="5" stroke-linecap="butt"/><path d="M329.14835,207.19159c0,0 0.6238,-1.76325 2.38706,-1.13945c1.76325,0.6238 1.13946,2.38706 1.13946,2.38706c-0.22141,0.62585 -0.44282,1.2517 -0.66423,1.87755l-1.00244,1.13498c0,0 -1.51386,1.0984 -2.61224,-0.41546c-0.88484,-1.21951 -0.07446,-2.16942 0.2741,-2.49269c0.15943,-0.45067 0.31887,-0.90132 0.4783,-1.35198z" data-paper-data="{&quot;index&quot;:null}" fill="#aaaaaa" stroke="none" stroke-width="0.5" stroke-linecap="butt"/><path d="M302.83297,199.99951c-0.95757,-0.3874 -1.41977,-1.47772 -1.03238,-2.43529c0.3874,-0.95757 1.47772,-1.41977 2.43529,-1.03238c0.95757,0.3874 1.41977,1.47772 1.03238,2.43529c-0.3874,0.95757 -1.47772,1.41977 -2.43529,1.03238z" data-paper-data="{&quot;index&quot;:null}" fill="#aaaaaa" stroke="none" stroke-width="0.5" stroke-linecap="butt"/><path d="M292.26746,225.06214l0.08349,0.01224c0.17435,-0.35717 0.34868,-0.71433 0.52303,-1.07151l1.20505,1.32479l2.15655,0.31608c-0.27865,0.57088 -0.55731,1.14176 -0.83598,1.71264c0,0 -0.82043,1.68079 -2.50123,0.86036c-1.68081,-0.82043 -0.86037,-2.50124 -0.86037,-2.50124c0.00213,-0.00436 0.00427,-0.00873 0.00639,-0.01309c0.07281,-0.37601 0.22305,-0.64028 0.22305,-0.64028z" data-paper-data="{&quot;index&quot;:null}" fill="#aaaaaa" stroke="none" stroke-width="0.5" stroke-linecap="butt"/><path d="M319.84881,235.28243l-0.21969,1.16369c-0.2432,0.60112 -0.48639,1.20224 -0.72958,1.80336c0,0 -0.70145,1.73384 -2.43529,1.03238c-1.73384,-0.70145 -1.03238,-2.43529 -1.03238,-2.43529c0.2432,-0.60112 0.48639,-1.20224 0.72958,-1.80336l-0.01705,-0.28054c0,0 0.25988,-1.85221 2.1121,-1.59232c1.85221,0.25988 1.59232,2.11209 1.59232,2.11209z" data-paper-data="{&quot;index&quot;:null}" fill="#aaaaaa" stroke="none" stroke-width="0.5" stroke-linecap="butt"/><path d="M231.86978,119.25381l9.51075,-23.50842l25.90933,10.48209l-9.51075,23.50842z" fill="#878787" stroke="none" stroke-width="0" stroke-linecap="butt"/><path d="M153.71462,208.54649c0,0 -3.18341,-7.58005 4.24999,-25.82307c7.66402,-18.809 16.0527,-39.76095 20.93462,-51.82797c6.70365,-16.56989 23.50593,-24.82227 23.50593,-24.82227c0,0 16.97265,-7.0979 31.70993,-1.13568c10.22086,4.13503 19.30838,7.36113 34.96102,13.38793c15.5077,5.97099 21.07663,23.1044 21.07663,23.1044c0,0 5.35949,16.49134 -1.24832,32.82436c-5.20739,12.87146 -14.61002,37.47254 -22.35948,57.38841c-6.57446,16.89617 -17.86865,17.97198 -17.86865,17.97198c0,0 -7.88797,4.72743 -25.30268,-2.35084c-20.34502,-8.26929 -45.48891,-16.33489 -56.17118,-20.6566c-10.17676,-4.11719 -13.48781,-18.06066 -13.48781,-18.06066z" fill="url(#color-4)" stroke="none" stroke-width="NaN" stroke-linecap="butt"/><path d="M199.92136,82.07675c0,0 41.57128,-25.79139 67.98074,-15.10697c26.40947,10.68442 39.39741,58.54873 39.39741,58.54873z" fill="url(#color-5)" stroke="none" stroke-width="0" stroke-linecap="butt"/><path d="M182.90993,243.34178l9.51075,-23.50842l25.90933,10.48209l-9.51075,23.50842z" data-paper-data="{&quot;index&quot;:null}" fill="#878787" stroke="none" stroke-width="0" stroke-linecap="butt"/><path d="M135.1681,247.38811c0,0 42.61573,-25.36884 69.02519,-14.68442c26.40947,10.68442 38.35296,58.12618 38.35296,58.12618z" data-paper-data="{&quot;index&quot;:null}" fill="url(#color-6)" stroke="none" stroke-width="0" stroke-linecap="butt"/><path d="M186.13685,277.95261c-28.91821,-11.69937 -50.60762,-25.51771 -48.44463,-30.86412c2.16298,-5.3464 27.35928,-0.1963 56.27749,11.50307c28.91821,11.69937 50.60761,25.51772 48.44462,30.86412c-2.16298,5.3464 -27.35926,0.1963 -56.27747,-11.50309z" data-paper-data="{&quot;index&quot;:null}" fill="url(#color-7)" stroke="none" stroke-width="0" stroke-linecap="butt"/><path d="M198.51385,279.94701c-1.45819,-1.17127 -0.28692,-2.62947 -0.28692,-2.62947l0.62305,-0.77465c0.97151,-1.26932 2.20359,-4.44683 3.9879,-4.96516c-0.55833,-0.21934 -1.03258,-0.61216 -1.55522,-0.90702c-1.7119,-0.9658 -3.48258,-1.59556 -5.2944,-2.3435c-5.59501,-2.30968 -11.42115,-4.22469 -17.21538,-5.99016c0,0 -1.78913,-0.54519 -1.24393,-2.33432c0.54519,-1.78913 2.33432,-1.24395 2.33432,-1.24395c7.15157,2.17947 14.58615,4.45937 21.37097,7.6298c1.78477,0.83399 5.85984,2.67083 5.94971,5.07164c0.04075,1.08835 -1.11706,1.87773 -1.79517,2.72998c-1.2302,1.54614 -2.34267,3.00656 -3.56161,4.61744l-0.68386,0.85242c0,0 -1.17127,1.45819 -2.62946,0.28692z" fill="#7c7c7c" stroke="none" stroke-width="0.5" stroke-linecap="butt"/><path d="M178.19162,259.21482c2.36976,-1.88954 7.97496,0.61421 10.39393,1.51983c5.15186,1.92875 9.85831,4.41826 14.77654,6.85126c1.20152,0.59437 4.51536,2.10949 4.96571,3.12162c1.47082,3.30555 -2.34486,5.25957 -4.25172,6.79549c-0.40865,0.37856 -0.82347,0.74785 -1.24101,1.11307c-1.42031,1.87524 -2.70837,3.81711 -4.06182,5.69215c-0.12545,0.48407 -0.40579,0.82182 -0.40579,0.82182c-3.26379,3.93172 -6.66869,7.71478 -10.36642,11.24905c-0.03445,0.22046 -0.07855,0.43914 -0.13335,0.65542c-0.2037,0.80396 -0.46375,1.6374 -0.84483,2.40499c-0.2292,0.58349 -0.51882,1.13249 -0.87732,1.60912c-1.75847,2.33782 -4.30049,2.57563 -6.58439,1.65227c-4.1996,-1.112 -7.54382,-6.02128 -5.84113,-10.54845c0.61249,-1.62848 1.15774,-2.21808 2.05693,-3.00354c0.23746,-0.50295 0.48889,-0.89854 0.73417,-1.05574c-0.76266,-5.59883 -1.29709,-11.21302 -1.06565,-16.87983c0.12218,-2.9915 1.17416,-5.83136 1.10069,-8.75702c0,0 -0.00418,-0.34841 0.14143,-0.74627c0.01932,-0.80497 0.4058,-1.61956 1.50399,-2.49522zM204.92164,272.25374c-0.16998,-0.07874 -0.33989,-0.15768 -0.50973,-0.23679c0.0909,0.19081 0.16758,0.39268 0.22804,0.60643c0.31597,-0.13723 0.51202,-0.26295 0.2817,-0.36965zM186.70553,277.37217c-0.44909,2.50847 -0.76303,5.00993 -1.22282,7.49114c2.53811,-5.47228 5.69875,-10.60388 8.4671,-15.97271c-1.67274,-1.02447 -3.21715,-1.98694 -5.10746,-2.67682c-0.58316,3.74054 -1.46907,7.42852 -2.13684,11.15839z" fill="#7d4444" stroke="none" stroke-width="0.5" stroke-linecap="butt"/><path d="M186.3418,135.83872c0,-1.38071 1.11929,-2.5 2.5,-2.5c1.38071,0 2.5,1.11929 2.5,2.5c0,1.38071 -1.11929,2.5 -2.5,2.5c-1.38071,0 -2.5,-1.11929 -2.5,-2.5z" fill="#c1c1c1" stroke="none" stroke-width="0.5" stroke-linecap="butt"/><path d="M178.24521,159.65497c0,-1.38071 1.11929,-2.5 2.5,-2.5c1.38071,0 2.5,1.11929 2.5,2.5c0,1.38071 -1.11929,2.5 -2.5,2.5c-1.38071,0 -2.5,-1.11929 -2.5,-2.5z" fill="#c1c1c1" stroke="none" stroke-width="0.5" stroke-linecap="butt"/><path d="M170.03046,183.53025c0,-1.38071 1.11929,-2.5 2.5,-2.5c1.38071,0 2.5,1.11929 2.5,2.5c0,1.38071 -1.11929,2.5 -2.5,2.5c-1.38071,0 -2.5,-1.11929 -2.5,-2.5z" fill="#c1c1c1" stroke="none" stroke-width="0.5" stroke-linecap="butt"/><path d="M196.79772,150.80339c0.1741,-0.82065 0.56516,-1.3075 1.00796,-1.59216c2.22911,-5.35965 4.40766,-10.74003 6.21173,-16.27503c0,0 0.77508,-2.37681 3.15189,-1.60173c2.37681,0.77508 1.60173,3.15189 1.60173,3.15189c-1.68756,5.17249 -3.69926,10.21043 -5.7734,15.22248c6.22459,2.19912 11.75097,5.64435 17.8327,8.17035c0,0 2.30768,0.96156 1.34613,3.26924c-0.96156,2.30768 -3.26924,1.34613 -3.26924,1.34613c-6.07253,-2.53773 -11.58885,-6.02077 -17.83437,-8.16319c-1.80737,4.33397 -3.60118,8.67358 -5.21165,13.08933c-3.25815,8.9335 -5.80277,18.2349 -9.98014,26.7835c-0.3196,0.86773 -0.63921,1.73544 -0.95882,2.60317l-0.82643,2.24325c0,0 -0.86423,2.34587 -3.2101,1.48164c-2.34587,-0.86424 -1.48164,-3.2101 -1.48164,-3.2101l0.82823,-2.24813c0.35021,-0.94461 0.70043,-1.88923 1.05065,-2.83385c4.11895,-8.47846 6.64309,-17.6725 9.8771,-26.52216c1.72162,-4.71112 3.65224,-9.3357 5.58344,-13.95992c-0.03415,-0.27987 -0.02173,-0.59663 0.05423,-0.95469z" fill="#c1c1c1" stroke="none" stroke-width="0.5" stroke-linecap="butt"/><path d="M207.46194,186.84596c-1.30641,2.1315 -3.43791,0.82509 -3.43791,0.82509l-2.0931,-1.30679c-3.33513,-2.69299 -7.04857,-4.85681 -10.65669,-7.17138c0,0 -2.10425,-1.34986 -0.75438,-3.45411c1.34986,-2.10425 3.45411,-0.75438 3.45411,-0.75438c3.76355,2.41431 7.60395,4.68578 11.09191,7.48474l1.57097,0.93893c0,0 2.1315,1.30641 0.82509,3.43791z" fill="#c1c1c1" stroke="none" stroke-width="0.5" stroke-linecap="butt"/><path d="M238.17207,238.8557c-0.54228,-2.44048 1.8982,-2.98276 1.8982,-2.98276l0.99982,-0.22128c3.74943,-0.9249 7.0278,-2.36694 10.07998,-4.77347c1.78423,-1.40679 2.53319,-3.9265 3.3387,-5.91434c1.83152,-4.51982 3.25041,-8.46738 4.51598,-13.19744c1.6955,-6.33691 4.11251,-12.5378 6.11942,-18.78237c2.40747,-7.38279 4.66574,-14.67383 6.77032,-22.13483c1.17469,-4.16441 2.90315,-8.63957 2.91929,-13.02543c0.02272,-6.17481 -2.99238,-13.02204 -4.84784,-18.86469c0,0 -0.75645,-2.38281 1.62636,-3.13926c2.38281,-0.75645 3.13926,1.62636 3.13926,1.62636c2.04651,6.44868 5.06151,13.67848 5.08087,20.49407c0.01367,4.81133 -1.81575,9.71093 -3.10891,14.27761c-2.12777,7.51406 -4.39732,14.86917 -6.82245,22.30627c-3.07466,9.56391 -5.45256,19.88352 -9.42306,29.06543c-1.67471,3.87283 -2.76835,8.32768 -6.15228,11.167c-3.48322,2.92262 -7.67286,4.64566 -12.02304,5.74582l-1.12786,0.2515c0,0 -2.44048,0.54228 -2.98276,-1.8982z" fill="#c1c1c1" stroke="none" stroke-width="0.5" stroke-linecap="butt"/><path d="M260.57019,129.69263c0,-1.38071 1.11929,-2.5 2.5,-2.5c1.38071,0 2.5,1.11929 2.5,2.5c0,1.38071 -1.11929,2.5 -2.5,2.5c-1.38071,0 -2.5,-1.11929 -2.5,-2.5z" fill="#c1c1c1" stroke="none" stroke-width="0.5" stroke-linecap="butt"/></g></g></svg>