<svg version="1.1" xmlns="http://www.w3.org/2000/svg" xmlns:xlink="http://www.w3.org/1999/xlink" width="354.89266" height="357.20867" viewBox="0,0,354.89266,357.20867"><defs><radialGradient cx="236.72741" cy="148.63314" r="174.67368" gradientUnits="userSpaceOnUse" id="color-1"><stop offset="0" stop-color="#1e0077"/><stop offset="1" stop-color="#000000"/></radialGradient><linearGradient x1="313.05485" y1="259.76569" x2="333.61092" y2="259.76569" gradientUnits="userSpaceOnUse" id="color-2"><stop offset="0" stop-color="#ffffff"/><stop offset="1" stop-color="#ffffff"/></linearGradient><linearGradient x1="306.91225" y1="201.50715" x2="320.03405" y2="201.50715" gradientUnits="userSpaceOnUse" id="color-3"><stop offset="0" stop-color="#ffffff"/><stop offset="1" stop-color="#ffffff"/></linearGradient><radialGradient cx="226.31937" cy="169.1387" r="74.45937" gradientUnits="userSpaceOnUse" id="color-4"><stop offset="0" stop-color="#868686"/><stop offset="1" stop-color="#aaaaaa"/></radialGradient></defs><g transform="translate(-62.05373,-1.89894)"><g data-paper-data="{&quot;isPaintingLayer&quot;:true}" fill-rule="nonzero" stroke-linejoin="miter" stroke-miterlimit="10" stroke-dasharray="" stroke-dashoffset="0" style="mix-blend-mode: normal"><path d="M368.54788,359.10761h-263.64087c-23.31061,0 -42.2076,-18.89699 -42.2076,-42.2076v-57.40605h348.05607v57.40605c0,23.31061 -18.89699,42.2076 -42.2076,42.2076z" fill="#000000" stroke="none" stroke-width="1" stroke-linecap="butt"/><path d="M411.23473,245.41188c-0.02375,27.58965 -0.04298,49.9555 -0.04298,49.9555l-349.13802,-0.26183c0,0 0.01924,-22.36585 0.04298,-49.9555l0.16635,-193.33992c0.02375,-27.58965 16.2856,-37.19343 16.2856,-37.19343c0,0 15.71243,-12.73809 42.85924,-12.71774c42.60496,0.03195 170.4161,0.12779 241.31874,0.18097c29.17717,0.02188 35.95535,10.47822 35.95535,10.47822c0,0 12.74281,11.92416 12.71907,39.51381z" fill="url(#color-1)" stroke="none" stroke-width="1" stroke-linecap="butt"/><path d="M372.36247,53.21967l24.63643,3.32512l-22.35078,10.88359l-3.33249,24.64662l-10.885,-22.35955l-24.63643,-3.3251l22.35078,-10.8836l3.32368,-24.64521z" fill="#ffffff" stroke="none" stroke-width="1" stroke-linecap="butt"/><path d="M96.59961,218.27034l16.64767,2.2469l-15.10317,7.35441l-2.25186,16.65454l-7.35535,-15.1091l-16.64767,-2.24689l15.10317,-7.35441l2.24592,-16.6536z" fill="#ffffff" stroke="none" stroke-width="1" stroke-linecap="butt"/><path d="M405.14189,110.10426l11.8045,11.95186l-16.44926,-3.40806l-11.96002,11.8069l3.41093,-16.45454l-11.80451,-11.95185l16.44928,3.40805l11.95472,-11.8098z" fill="#ffffff" stroke="none" stroke-width="1" stroke-linecap="butt"/><path d="M333.61092,259.76569c0,5.67451 -4.60164,10.27463 -10.27805,10.27463c-5.6764,0 -10.27805,-4.60009 -10.27805,-10.27463c0,-5.67451 4.60164,-10.27463 10.27805,-10.27463c5.6764,0 10.27805,4.60009 10.27805,10.27463z" fill="url(#color-2)" stroke="none" stroke-width="0" stroke-linecap="butt"/><path d="M320.03405,201.50715c0,3.62228 -2.93742,6.55871 -6.56089,6.55871c-3.62347,0 -6.56089,-2.93643 -6.56089,-6.55871c0,-3.62228 2.93742,-6.55871 6.56089,-6.55871c3.62347,0 6.56089,2.93643 6.56089,6.55871z" fill="url(#color-3)" stroke="none" stroke-width="0" stroke-linecap="butt"/><path d="M103.67478,145.37624c0,2.40134 -2.02241,4.348 -4.51718,4.348c-2.49476,0 -4.51718,-1.94667 -4.51718,-4.348c0,-2.40134 2.02241,-4.348 4.51718,-4.348c2.49476,0 4.51718,1.94667 4.51718,4.348z" fill="#530079" stroke="none" stroke-width="0" stroke-linecap="butt"/><path d="M178.47039,142.70545l-25.73728,-9.9698" fill="none" stroke="#aaaaaa" stroke-width="5" stroke-linecap="round"/><path d="M98.23089,104.55049l10.60236,-26.20662l24.347,9.85002l-10.60236,26.20662z" fill="#f8f5ff" stroke="#afadb4" stroke-width="5" stroke-linecap="butt"/><path d="M128.08376,116.32953l10.60236,-26.20662l24.347,9.85002l-10.60236,26.20662z" fill="#f8f5ff" stroke="#afadb4" stroke-width="5" stroke-linecap="butt"/><path d="M114.99888,149.02868l10.60236,-26.20662l24.347,9.85002l-10.60236,26.20662z" fill="#f8f5ff" stroke="#afadb4" stroke-width="5" stroke-linecap="butt"/><path d="M85.2875,136.65464l10.60236,-26.20662l24.347,9.85002l-10.60236,26.20662z" fill="#f8f5ff" stroke="#afadb4" stroke-width="5" stroke-linecap="butt"/><path d="M102.3702,181.50331l10.60236,-26.20662l24.347,9.85002l-10.60236,26.20662z" fill="#f8f5ff" stroke="#afadb4" stroke-width="5" stroke-linecap="butt"/><path d="M72.49659,169.59138l10.60236,-26.20662l24.347,9.85002l-10.60236,26.20662z" fill="#f8f5ff" stroke="#afadb4" stroke-width="5" stroke-linecap="butt"/><path d="M278.69885,181.18554l25.42949,10.73063" data-paper-data="{&quot;index&quot;:null}" fill="none" stroke="#aaaaaa" stroke-width="5" stroke-linecap="round"/><path d="M338.54961,199.70659l10.60236,-26.20662l24.347,9.85002l-10.60236,26.20662z" data-paper-data="{&quot;index&quot;:null}" fill="#f8f5ff" stroke="#afadb4" stroke-width="5" stroke-linecap="butt"/><path d="M308.90423,187.41455l10.60236,-26.20662l24.347,9.85002l-10.60236,26.20662z" data-paper-data="{&quot;index&quot;:null}" fill="#f8f5ff" stroke="#afadb4" stroke-width="5" stroke-linecap="butt"/><path d="M295.57164,220.0135l10.60236,-26.20662l24.347,9.85002l-10.60236,26.20662z" data-paper-data="{&quot;index&quot;:null}" fill="#f8f5ff" stroke="#afadb4" stroke-width="5" stroke-linecap="butt"/><path d="M325.52903,231.7795l10.60236,-26.20662l24.347,9.85002l-10.60236,26.20662z" data-paper-data="{&quot;index&quot;:null}" fill="#f8f5ff" stroke="#afadb4" stroke-width="5" stroke-linecap="butt"/><path d="M282.06723,252.13383l10.60236,-26.20662l24.347,9.85002l-10.60236,26.20662z" data-paper-data="{&quot;index&quot;:null}" fill="#f8f5ff" stroke="#afadb4" stroke-width="5" stroke-linecap="butt"/><path d="M311.94665,264.36629l10.60236,-26.20662l24.347,9.85002l-10.60236,26.20662z" data-paper-data="{&quot;index&quot;:null}" fill="#f8f5ff" stroke="#afadb4" stroke-width="5" stroke-linecap="butt"/><path d="M235.2889,103.32356l11.03425,-27.27416l30.05967,12.16118l-11.03425,27.27416z" fill="#190034" stroke="none" stroke-width="0" stroke-linecap="butt"/><path d="M144.61431,206.91976c0,0 -3.69335,-8.79427 4.93078,-29.95959c8.8917,-21.82196 18.62413,-46.13013 24.28807,-60.13013c7.77749,-19.22417 27.27127,-28.79847 27.27127,-28.79847c0,0 19.69145,-8.23489 36.78945,-1.3176c11.85811,4.79741 22.40133,8.54029 40.56132,15.5325c17.99183,6.92746 24.45283,26.80542 24.45283,26.80542c0,0 6.21801,19.13304 -1.44828,38.08239c-6.04155,14.9333 -16.95035,43.47515 -25.94118,66.58128c-7.6276,19.60272 -20.73097,20.85086 -20.73097,20.85086c0,0 -9.15152,5.4847 -29.35584,-2.72741c-23.60403,-9.59392 -52.77564,-18.95153 -65.16907,-23.96552c-11.80694,-4.77671 -15.64838,-20.95374 -15.64838,-20.95374z" fill="#f8f5ff" stroke="none" stroke-width="NaN" stroke-linecap="butt"/><path d="M157.26924,200.89469c0,0 -3.19008,-7.59592 4.25888,-25.87715c7.68007,-18.84838 16.08632,-39.84422 20.97846,-51.9365c6.71769,-16.60458 23.55515,-24.87424 23.55515,-24.87424c0,0 17.00819,-7.11277 31.77634,-1.13806c10.24227,4.14369 19.34881,7.37655 35.03423,13.41597c15.54017,5.98349 21.12076,23.15278 21.12076,23.15278c0,0 5.37071,16.52586 -1.25094,32.8931c-5.2183,12.89841 -14.64062,37.551 -22.40631,57.50859c-6.58823,16.93155 -17.90607,18.00962 -17.90607,18.00962c0,0 -7.90449,4.73733 -25.35566,-2.35576c-20.38763,-8.2866 -45.58417,-16.3691 -56.28881,-20.69986c-10.19808,-4.12581 -13.51605,-18.09849 -13.51605,-18.09849z" fill="url(#color-4)" stroke="none" stroke-width="NaN" stroke-linecap="butt"/><path d="M217.0766,49.02402c4.37694,-2.34633 20.13496,-13.95534 39.41092,-17.9748c9.98395,-2.08187 26.60249,0.14863 31.0473,1.94686c7.59309,3.07192 18.69937,9.16449 23.42284,16.9262c8.03297,13.19995 7.27611,30.80693 9.55185,43.54301c1.78589,9.99465 -1.70773,10.46031 -1.70773,10.46031c0,0 -1.95132,4.25859 -11.10476,0.55539c-25.80555,-10.4401 -77.06392,-31.1776 -92.18714,-37.29597c-8.22373,-3.32706 -8.62106,-9.66028 -8.62106,-9.66028c0,0 -1.02245,-2.49132 10.18778,-8.50072z" fill="#f8f5ff" stroke="none" stroke-width="0" stroke-linecap="butt"/><path d="M273.07038,216.83951c0,0 -5.88846,23.77093 -19.23098,27.93608c-13.34251,4.16514 -31.94493,-1.48801 -48.93382,-6.65698c-17.13801,-5.21433 -41.6445,-19.16532 -45.8086,-22.87238c-14.69408,-13.08132 1.79024,-41.09086 1.79024,-41.09086" data-paper-data="{&quot;index&quot;:null}" fill="none" stroke="#190034" stroke-width="7.5" stroke-linecap="round"/><path d="M178.48634,245.91543l12.28035,-30.35424l33.45431,13.53455l-12.28035,30.35424z" data-paper-data="{&quot;index&quot;:null}" fill="#190034" stroke="none" stroke-width="0" stroke-linecap="butt"/><path d="M123.09683,251.9833c0,0 9.61013,-20.09752 30.59456,-25.87817c13.82567,-3.8086 37.31819,3.91816 49.48756,8.84151c13.12278,5.30905 36.22497,12.69514 43.42048,25.9748c9.60504,17.72654 1.07612,41.46242 1.07612,41.46242c0,0 -16.38712,-6.6297 -28.78112,-11.64393c-22.6118,-9.148 -95.79761,-38.75664 -95.79761,-38.75664z" data-paper-data="{&quot;index&quot;:null}" fill="#f8f5ff" stroke="none" stroke-width="0" stroke-linecap="butt"/><path d="M140.06305,254.46258c0,0 7.39395,-15.46287 23.53918,-19.91044c10.63735,-2.93031 28.71229,3.01461 38.0753,6.80258c10.09656,4.08474 27.87117,9.76753 33.40734,19.98478c7.39003,13.63865 0.82796,31.90084 0.82796,31.90084c0,0 -12.60811,-5.10083 -22.14394,-8.95873c-17.39732,-7.03839 -73.70585,-29.81903 -73.70585,-29.81903z" data-paper-data="{&quot;index&quot;:null}" fill="#ece9f3" stroke="none" stroke-width="0" stroke-linecap="butt"/><path d="M180.9439,287.76687c-34.39432,-13.91483 -60.19095,-30.34989 -57.61836,-36.70872c2.57258,-6.35882 32.54018,-0.23348 66.9345,13.68135c34.39432,13.91483 60.19094,30.3499 57.61835,36.70872c-2.57258,6.35882 -32.54016,0.23348 -66.93448,-13.68138z" data-paper-data="{&quot;index&quot;:null}" fill="#a4a4a4" stroke="none" stroke-width="0" stroke-linecap="butt"/><path d="M164.16028,197.18154c0,0 -2.86078,-6.81182 3.81925,-23.20592c6.88728,-16.90272 14.42578,-35.7312 18.81292,-46.57524c6.02425,-14.89053 21.12362,-22.30655 21.12362,-22.30655c0,0 15.25249,-6.37853 28.49615,-1.02058c9.18499,3.71594 17.35149,6.61508 31.41775,12.03108c13.936,5.36584 18.94053,20.76279 18.94053,20.76279c0,0 4.81631,14.81995 -1.12181,29.49762c-4.67963,11.56695 -13.12931,33.67473 -20.09336,51.57213c-5.90814,15.18375 -16.05767,16.15053 -16.05767,16.15053c0,0 -7.08853,4.2483 -22.73827,-2.11258c-18.28306,-7.43121 -40.87864,-14.67936 -50.47827,-18.56307c-9.14535,-3.69992 -12.12082,-16.23023 -12.12082,-16.23023z" fill="#d9d9d9" stroke="none" stroke-width="NaN" stroke-linecap="butt"/><path d="M284.71283,128.76446c0,0 2.68591,5.6805 2.77352,14.17962c0.0471,4.56937 1.3997,9.95345 0.15487,15.70752c-3.23549,14.95562 -13.01509,35.26012 -16.05811,43.7477c-2.2262,6.20931 -5.12412,14.91954 -8.60398,20.89338c-2.89222,4.96504 -6.63192,7.8171 -6.63192,7.8171c0,0 -8.61026,4.1737 -12.56228,4.68178c-3.83313,0.49279 -12.37107,-4.28939 -12.37107,-4.28939c0,0 24.94516,-70.37679 31.1834,-86.70446c7.83822,-20.5154 -17.94734,-36.88937 -17.94734,-36.88937c0,0 17.65432,8.34259 25.31304,11.27788c5.96338,2.28553 14.74987,9.57825 14.74987,9.57825z" data-paper-data="{&quot;index&quot;:null}" fill="#c8c8c8" stroke="none" stroke-width="0" stroke-linecap="butt"/><path d="M166.59164,207.45672c0,0 -2.68591,-5.6805 -2.77352,-14.17962c-0.0471,-4.56937 1.48166,-9.95346 2.72649,-15.70753c3.23549,-14.95563 13.50156,-32.61265 16.54457,-41.10022c4.07646,-11.37006 14.17405,-25.61243 14.17405,-25.61243c0,0 9.29,-4.70318 11.97509,-6.07716c2.98301,-1.52643 9.08533,-2.67234 9.08533,-2.67234c0,0 -25.53922,58.94175 -31.77746,75.26941c-7.83823,20.51539 22.19764,46.23513 22.19764,46.23513c0,0 -19.74359,-3.64171 -27.4023,-6.577c-5.96338,-2.28552 -14.74987,-9.57825 -14.74987,-9.57825z" fill="#ebebeb" stroke="none" stroke-width="0" stroke-linecap="butt"/><path d="M270.79278,197.87452c0,0 -1.54219,-2.57501 -0.31755,-5.78235c1.28548,-3.36664 4.20774,-11.02006 6.32829,-16.57373c1.39957,-3.66546 3.51981,-4.41325 3.51981,-4.41325c0,0 4.06715,-0.04157 6.85597,1.02327c3.11716,1.19021 9.90195,3.78083 9.90195,3.78083l-11.66938,30.56203c0,0 -5.89027,-2.24906 -8.85102,-3.37954c-2.98173,-1.13849 -5.76809,-5.21727 -5.76809,-5.21727z" fill="#ab98d2" stroke="none" stroke-width="0" stroke-linecap="butt"/><path d="M275.12999,195.93374c0,0 -1.24472,-2.07832 -0.2563,-4.66699c1.03752,-2.71725 3.39611,-8.8944 5.10762,-13.37683c1.1296,-2.95843 2.84088,-3.56197 2.84088,-3.56197c0,0 3.28263,-0.03355 5.53352,0.82589c2.51589,0.96063 7.99197,3.05155 7.99197,3.05155l-9.41848,24.66692c0,0 -4.7541,-1.81524 -7.14375,-2.72767c-2.40658,-0.91889 -4.65548,-4.21091 -4.65548,-4.21091z" fill="#190034" stroke="none" stroke-width="0" stroke-linecap="butt"/><path d="M185.2116,133.72866c0,0 1.54219,2.57501 0.31755,5.78235c-1.28548,3.36664 -4.20774,11.02006 -6.32829,16.57373c-1.39957,3.66546 -3.51981,4.41323 -3.51981,4.41323c0,0 -4.06714,0.04158 -6.85597,-1.02326c-3.11716,-1.19021 -9.90196,-3.78083 -9.90196,-3.78083l11.66938,-30.56203c0,0 5.89028,2.24906 8.85102,3.37954c2.98172,1.13849 5.76809,5.21727 5.76809,5.21727z" data-paper-data="{&quot;index&quot;:null}" fill="#ab98d2" stroke="none" stroke-width="0" stroke-linecap="butt"/><path d="M180.87438,135.66944c0,0 1.24472,2.07832 0.2563,4.66699c-1.03752,2.71725 -3.39611,8.8944 -5.10762,13.37683c-1.1296,2.95843 -2.84088,3.56197 -2.84088,3.56197c0,0 -3.28263,0.03355 -5.53352,-0.82589c-2.51589,-0.96063 -7.99197,-3.05155 -7.99197,-3.05155l9.41848,-24.66692c0,0 4.7541,1.81524 7.14375,2.72767c2.40658,0.91889 4.65548,4.21091 4.65548,4.21091z" data-paper-data="{&quot;index&quot;:null}" fill="#190034" stroke="none" stroke-width="0" stroke-linecap="butt"/><path d="M181.98568,120.74554c0,0 11.68941,-21.45056 25.03191,-25.61571c13.34251,-4.16515 26.144,-0.83236 43.1329,4.3366c17.138,5.21434 32.36301,16.26485 36.5271,19.97192c14.69408,13.08132 7.49126,43.99133 7.49126,43.99133" fill="none" stroke="#190034" stroke-width="7.5" stroke-linecap="round"/><path d="M218.21211,59.09746c-1.51458,-4.10044 4.65196,-10.15573 13.77333,-13.52489c9.12138,-3.36916 17.74353,-2.77634 19.2581,1.3241c1.51458,4.10044 -4.65196,10.15574 -13.77333,13.5249c-9.12138,3.36916 -17.74352,2.77634 -19.25809,-1.3241z" fill="#f1eef8" stroke="none" stroke-width="0" stroke-linecap="butt"/><path d="M270.2756,43.1089c0,4.35659 -3.53172,7.88832 -7.88832,7.88832c-4.35659,0 -7.88831,-3.53172 -7.88831,-7.88832c0,-4.35659 3.53171,-7.88832 7.88831,-7.88832c4.35659,0 7.88832,3.53172 7.88832,7.88832z" fill="#f1eef8" stroke="none" stroke-width="0" stroke-linecap="butt"/><path d="M226.60085,296.92459c-3.78244,3.47824 -26.48245,-1.48094 -50.7019,-11.07664c-24.21944,-9.5957 -40.78689,-20.19422 -37.00445,-23.67247c3.78244,-3.47824 26.48245,1.48094 50.70189,11.07664c24.21944,9.5957 40.7869,20.19421 37.00446,23.67245z" fill="#969696" stroke="none" stroke-width="0" stroke-linecap="butt"/></g></g></svg>