<svg version="1.1" xmlns="http://www.w3.org/2000/svg" xmlns:xlink="http://www.w3.org/1999/xlink" width="301.11301" height="307.88892" viewBox="0,0,301.11301,307.88892"><defs><radialGradient cx="240.00001" cy="152.53018" r="150.5565" gradientUnits="userSpaceOnUse" id="color-1"><stop offset="0" stop-color="#1e0077"/><stop offset="1" stop-color="#000000"/></radialGradient><linearGradient x1="175.13418" y1="162.18808" x2="185.4768" y2="162.18808" gradientUnits="userSpaceOnUse" id="color-2"><stop offset="0" stop-color="#ffffff"/><stop offset="1" stop-color="#ffffff"/></linearGradient><radialGradient cx="195.17969" cy="248.33288" r="46.5329" gradientUnits="userSpaceOnUse" id="color-3"><stop offset="0" stop-color="#ff0000"/><stop offset="1" stop-color="#fcff00"/></radialGradient><linearGradient x1="179.68525" y1="129.14734" x2="210.8836" y2="151.68333" gradientUnits="userSpaceOnUse" id="color-4"><stop offset="0" stop-color="#c70000"/><stop offset="1" stop-color="#ffb1b1"/></linearGradient><linearGradient x1="272.20214" y1="194.21902" x2="303.40047" y2="216.75501" gradientUnits="userSpaceOnUse" id="color-5"><stop offset="0" stop-color="#ffb1b1"/><stop offset="1" stop-color="#c70000"/></linearGradient><linearGradient x1="203.01712" y1="136.5952" x2="288.31426" y2="198.20921" gradientUnits="userSpaceOnUse" id="color-6"><stop offset="0" stop-color="#ffffff"/><stop offset="1" stop-color="#767676"/></linearGradient><linearGradient x1="242.04457" y1="82.39786" x2="328.0311" y2="144.50986" gradientUnits="userSpaceOnUse" id="color-7"><stop offset="0" stop-color="#ff0000"/><stop offset="1" stop-color="#750000"/></linearGradient><linearGradient x1="241.64015" y1="147.957" x2="264.61926" y2="164.55586" gradientUnits="userSpaceOnUse" id="color-8"><stop offset="0" stop-color="#66b9ff"/><stop offset="1" stop-color="#66ebff"/></linearGradient><linearGradient x1="215.82676" y1="185.30696" x2="238.80587" y2="201.90582" gradientUnits="userSpaceOnUse" id="color-9"><stop offset="0" stop-color="#66bdff"/><stop offset="1" stop-color="#66ebff"/></linearGradient></defs><g transform="translate(-89.44349,-26.05554)"><g data-paper-data="{&quot;isPaintingLayer&quot;:true}" fill-rule="nonzero" stroke-linejoin="miter" stroke-miterlimit="10" stroke-dasharray="" stroke-dashoffset="0" style="mix-blend-mode: normal"><path d="M353.62003,333.94446h-227.24c-20.09212,0 -36.38,-16.28788 -36.38,-36.38v-49.48h300v49.48c0,20.09212 -16.28788,36.38 -36.38,36.38z" fill="#000000" stroke="none" stroke-width="1" stroke-linecap="butt"/><path d="M390.41311,235.94667c-0.02047,23.78035 -0.03705,43.05815 -0.03705,43.05815l-300.93256,-0.22568c0,0 0.01658,-19.2778 0.03705,-43.05815l0.14338,-166.64549c0.02047,-23.78035 14.03705,-32.05814 14.03705,-32.05814c0,0 13.54302,-10.97934 36.94167,-10.9618c36.7225,0.02754 146.88676,0.11015 207.99988,0.15598c25.14868,0.01886 30.991,9.03149 30.991,9.03149c0,0 10.98341,10.27779 10.96295,34.05814z" fill="url(#color-1)" stroke="none" stroke-width="1" stroke-linecap="butt"/><path d="M330.71212,101.13325l15.4767,2.08885l-14.04085,6.83711l-2.09348,15.4831l-6.838,-14.04636l-15.4767,-2.08884l14.04085,-6.83712l2.08795,-15.48222z" fill="#ffffff" stroke="none" stroke-width="1" stroke-linecap="butt"/><path d="M353.16778,137.22332l7.41563,7.50821l-10.33349,-2.14096l-7.51333,7.41714l2.14276,-10.3368l-7.41564,-7.5082l10.3335,2.14095l7.51,-7.41896z" fill="#ffffff" stroke="none" stroke-width="1" stroke-linecap="butt"/><path d="M254.12718,145.79282c0,3.38525 -2.89077,6.12953 -6.45671,6.12953c-3.56594,0 -6.45671,-2.74429 -6.45671,-6.12953c0,-3.38525 2.89077,-6.12953 6.45671,-6.12953c3.56594,0 6.45671,2.74428 6.45671,6.12953z" fill="#530079" stroke="none" stroke-width="0" stroke-linecap="butt"/><path d="M185.4768,162.18808c0,2.85508 -2.31528,5.16959 -5.17131,5.16959c-2.85603,0 -5.17131,-2.3145 -5.17131,-5.16959c0,-2.85508 2.31528,-5.16959 5.17131,-5.16959c2.85603,0 5.17131,2.3145 5.17131,5.16959z" fill="url(#color-2)" stroke="none" stroke-width="0" stroke-linecap="butt"/><path d="M240.05484,183.47016l4.73314,5.59381l-6.59551,-1.59507l-4.7955,5.52596l1.36765,-7.70119l-4.73315,-5.59381l6.59552,1.59506l4.79338,-5.52732z" fill="#ffffff" stroke="none" stroke-width="1" stroke-linecap="butt"/><path d="M257.71963,233.3892c-0.36707,0.35996 -0.71368,0.4147 -0.98925,0.36047c-0.04015,0.04852 -0.0802,0.0972 -0.12013,0.14604c-1.0894,1.33273 -2.01878,2.97704 -3.07773,4.37856c-2.4805,3.28294 -5.1083,6.25292 -8.50309,8.54236c-3.06877,1.43002 -6.01781,2.90789 -9.13628,4.18781c-2.99269,1.2283 -5.81056,2.81845 -8.99659,3.38383c-5.32552,0.94505 -10.61511,0.94632 -15.93289,2.28784c-3.46734,0.95437 -6.88933,2.51223 -10.36895,3.32677c-0.93079,0.21789 -1.88064,0.12167 -2.82047,0.23052c-2.03658,0.23587 -3.82895,0.58352 -5.88087,0.59461c-0.56232,0.00304 -1.13799,-0.05943 -1.69176,0.09978c-0.51693,0.14862 -0.91143,0.78869 -1.43692,0.79971c-0.75448,0.01582 -1.56763,-0.2088 -2.0874,-0.72581c-1.04595,-1.04037 -1.01718,-2.66606 -1.56405,-3.95403c-0.78167,-1.84095 -2.0599,-3.42618 -2.8545,-5.25837c-0.79715,-1.83812 -1.36148,-3.96381 -1.94753,-5.90163c-0.79133,-3.26636 -1.62249,-6.59323 -2.79494,-9.7001c-0.66969,-1.7746 -1.60421,-3.45486 -2.10407,-5.30785c-0.20212,-0.74925 -0.55717,-3.06042 -0.7288,-3.79391c-0.57533,-2.45886 -1.46408,-4.71577 -1.76908,-7.27551c-0.53109,-4.45727 -0.66007,-9.13617 -0.56313,-13.6767c-0.62364,-6.44405 0.83479,-12.85132 2.18608,-19.31003c0.50848,-2.43037 0.67124,-4.83248 1.54434,-7.21008c0.26566,-0.72343 0.63127,-1.37955 1.02671,-2.01569c-0.24862,-0.43703 -0.4602,-0.90197 -0.70966,-1.33839c0,0 -0.54536,-0.96523 0.44325,-1.61135c0.9886,-0.64613 1.53396,0.3191 1.53396,0.3191c0.05998,0.10759 0.11732,0.21714 0.17349,0.32754c0.12596,-0.22667 0.24537,-0.45777 0.35536,-0.69524c0,0 0.50638,-1.07897 1.5155,-0.6489c1.00912,0.43008 0.50275,1.50904 0.50275,1.50904c-0.30129,0.63512 -0.67982,1.23045 -1.0674,1.82059c1.76001,1.73291 4.59451,2.34545 6.67434,3.478c3.76454,2.04993 7.16108,4.87408 10.66435,7.32087c2.95471,2.06366 6.1665,3.59962 9.13345,5.66511c4.62451,3.50537 9.23855,7.0443 14.14177,10.16001c2.76663,1.75802 5.75226,3.16881 8.53245,4.90227c4.6973,2.9288 9.08402,6.34293 13.64262,9.4738c1.59492,1.09559 3.18773,2.20774 4.73028,3.37604c1.33482,1.01097 2.70942,2.52719 4.24397,3.2382c0.58352,0.27036 1.33061,0.22871 1.83264,0.62771c1.30029,1.03348 2.3412,3.43737 3.16706,4.9156l0.039,0.04214c0.40935,-0.48069 0.81216,-0.97412 1.19693,-1.50679l-0.46659,0.19986c0,0 -0.33551,-1.0754 0.74253,-1.51432c1.07805,-0.43892 1.41356,0.63648 1.41356,0.63648l0.08174,1.95743c-0.49341,0.68307 -1.02028,1.31185 -1.55284,1.93002c0.10186,0.31206 0.10695,0.75528 -0.35325,1.20658zM254.76745,231.92651c-0.61685,-1.0853 -1.30519,-2.12218 -1.97281,-3.17253c-0.27482,-0.43237 -0.38301,-1.01715 -0.7859,-1.32411c-0.41406,-0.31547 -1.04263,-0.21231 -1.51701,-0.43046c-1.66,-0.7634 -3.11367,-2.34008 -4.55388,-3.43111c-1.51779,-1.14981 -3.08559,-2.24389 -4.65515,-3.32184c-4.53232,-3.11324 -8.89352,-6.50968 -13.56356,-9.42221c-2.78642,-1.73779 -5.77872,-3.15229 -8.5519,-4.91447c-4.93819,-3.13791 -9.58777,-6.69868 -14.24462,-10.22995c-2.95664,-2.05748 -6.15567,-3.586 -9.10285,-5.6433c-3.44152,-2.40239 -6.77576,-5.19387 -10.47512,-7.20384c-2.20021,-1.19543 -4.82172,-1.86505 -6.75314,-3.4947c-0.15198,0.29713 -0.2883,0.60208 -0.40158,0.9186c-0.81164,2.26768 -0.96349,4.54579 -1.44589,6.86325c-1.30702,6.27888 -2.7272,12.46525 -2.13636,18.72689c-0.08581,4.49047 0.02565,9.11308 0.55212,13.5211c0.29279,2.45144 1.1632,4.61673 1.71642,6.97209c0.28937,1.23198 0.38947,2.52362 0.71565,3.74286c0.47622,1.78005 1.40106,3.40443 2.04008,5.10925c1.19022,3.17533 2.05207,6.56144 2.85817,9.89591c0.56076,1.85688 1.09879,3.88793 1.86117,5.64697c0.79301,1.82972 2.0678,3.4127 2.85197,5.25223c0.52766,1.2378 0.43496,2.05558 1.08951,3.25499c0.34323,0.62894 1.28656,-0.49266 1.38559,-0.51971c0.77548,-0.2119 1.57729,-0.19337 2.36405,-0.217c1.97688,-0.05937 3.71599,-0.3513 5.68451,-0.58183c0.84975,-0.09951 1.70914,0.01836 2.54995,-0.18413c3.45755,-0.8327 6.85648,-2.36059 10.3056,-3.31101c5.37862,-1.35453 10.72012,-1.37436 16.10476,-2.32624c3.01655,-0.53326 5.67979,-2.07516 8.51229,-3.2392c3.02953,-1.24501 5.88825,-2.69154 8.87703,-4.0607c4.72842,-3.21351 7.30662,-7.93567 10.82196,-12.26522c0.067,-0.08252 0.13428,-0.16436 0.20178,-0.24564z" fill="#ff0000" stroke="none" stroke-width="0.5" stroke-linecap="butt"/><path d="M255.12263,232.2928c-0.06749,0.08127 -0.13479,0.16321 -0.20179,0.24574c-3.51534,4.32955 -6.09519,9.05772 -10.82361,12.27122c-2.98879,1.36916 -5.84918,2.81903 -8.8787,4.06403c-2.8325,1.16404 -5.49828,2.70951 -8.51483,3.24277c-5.38464,0.95188 -10.73414,0.97804 -16.11276,2.33256c-3.44912,0.95042 -6.85641,2.48073 -10.31397,3.31343c-0.84081,0.2025 -1.70224,0.08471 -2.55199,0.18423c-1.96852,0.23053 -3.71194,0.52204 -5.68882,0.5814c-0.78676,0.02363 -1.59019,0.00469 -2.36567,0.21659c-0.09903,0.02706 -1.04315,1.1484 -1.38637,0.51947c-0.65455,-1.19941 -0.56348,-2.01782 -1.09114,-3.25562c-0.78417,-1.83953 -2.06269,-3.42465 -2.85571,-5.25437c-0.76238,-1.75904 -1.30395,-3.79338 -1.86471,-5.65025c-0.80611,-3.33447 -1.67248,-6.72991 -2.86269,-9.90524c-0.63902,-1.70483 -1.56434,-3.33479 -2.04055,-5.11484c-0.32618,-1.21923 -0.42588,-2.51449 -0.71525,-3.74647c-0.55322,-2.35535 -1.42198,-4.52604 -1.71477,-6.97748c-0.52647,-4.40801 -0.63365,-9.03745 -0.54784,-13.52792c-0.59084,-6.26164 0.83474,-12.4527 2.14176,-18.73158c0.4824,-2.31747 0.63592,-4.59656 1.44755,-6.86425c0.11328,-0.31651 0.24987,-0.6216 0.40185,-0.91874c1.93142,1.62966 4.55495,2.29832 6.75516,3.49376c3.69936,2.00996 7.03794,4.80011 10.47946,7.2025c2.94717,2.0573 6.15207,3.58541 9.10871,5.64289c4.65686,3.53127 9.31834,7.09679 14.25653,10.2347c2.77318,1.76218 5.77,3.18215 8.55642,4.91994c4.67003,2.91253 9.03392,6.3172 13.56623,9.43045c1.56956,1.07794 3.13751,2.17412 4.6553,3.32392c1.4402,1.09103 2.89386,2.66948 4.55386,3.43289c0.47438,0.21816 1.10294,0.11521 1.517,0.43068c0.40289,0.30696 0.51104,0.89232 0.78586,1.32469c0.66763,1.05035 1.35581,2.08853 1.97267,3.17383z" data-paper-data="{&quot;noHover&quot;:false,&quot;origItem&quot;:[&quot;Path&quot;,{&quot;applyMatrix&quot;:true,&quot;segments&quot;:[[[688.93327,611.84466],[0,0],[-5.19694,-2.16805]],[[673.11229,605.92236],[5.29167,1.92531],[-2.17826,-0.79253]],[[666.64821,603.3588],[2.31733,0.054],[-2.38158,-0.0555]],[[659.86659,605.61368],[2.34455,-0.42196],[-8.20434,1.47657]],[[633.77705,605.13368],[8.26687,0.17184],[-8.71226,-0.1811]],[[607.60461,605.27195],[8.71172,-0.1892],[-25.15772,0.54448]],[[532.03427,606.54409],[25.13077,-1.56184],[-14.99452,0.93189]],[[487.13705,610.8243],[15.01077,-0.8168],[-26.72957,1.45448]],[[406.87539,611.02627],[26.74003,0.56736],[-16.48274,0.26515]],[[357.98104,614.1852],[16.44712,-0.24257],[-19.20593,0.28326]],[[299.81359,615.4148],[19.11084,-2.2444],[-11.36626,1.33487]],[[265.39446,620.10319],[11.53273,0.79477],[0.23244,1.37906]],[[266.36631,624.19946],[-0.42793,-1.35],[3.06595,9.67223]],[[279.39471,650.99905],[-4.42079,-9.03497],[11.97759,24.47912]],[[321.65444,719.69544],[-18.97233,-19.77465],[11.71549,15.42851]],[[359.93753,764.16753],[-13.76607,-13.65015],[7.65576,7.59129]],[[384.9896,783.59441],[-8.36446,-6.62809],[4.37508,3.46686]],[[397.67495,794.52719],[-4.4775,-3.33352],[6.53706,4.86687]],[[418.93565,806.84847],[-6.93944,-4.21337],[12.92509,7.84764]],[[456.05902,833.38923],[-11.92653,-9.32727],[7.05657,4.92027]],[[478.09697,847.97082],[-7.54237,-4.09509],[7.84546,4.25966]],[[502.75289,858.7891],[-7.83893,-4.31457],[5.27474,2.90323]],[[515.51785,867.15324],[-5.64261,-2.46247],[2.95882,1.29124]],[[519.26554,861.99988],[-0.29488,0.33414],[2.30912,-2.61656]],[[527.45452,855.4771],[-2.85552,2.00611],[7.17502,-5.04072]],[[546.98452,839.58915],[-6.68532,5.60037],[2.88583,-2.41749]],[[555.95124,832.72267],[-2.57669,2.74462],[10.59583,-11.2864]],[[585.31141,796.27267],[-10.24906,11.66471],[16.32444,-17.75778]],[[638.8252,748.96337],[-17.4258,16.40793],[9.76219,-9.19196]],[[661.72474,717.14688],[-7.38895,10.87914],[7.90293,-11.63589]],[[683.77595,681.65338],[-7.4191,11.95689],[8.93041,-22.46623]],[[691.05573,613.59301],[-1.43914,23.27884],[0.02743,-0.44372]],[[691.14605,612.26658],[-0.03261,0.44066],[0,0]]],&quot;closed&quot;:true}]}" fill="url(#color-3)" stroke="none" stroke-width="0.5" stroke-linecap="butt"/><path d="M212.40809,124.60235c-0.13058,0.06612 -0.28754,0.11321 -0.47622,0.13097c-0.76836,0.07231 -1.01685,-0.4403 -1.0972,-0.77519c-0.35616,0.10877 -0.68225,0.01652 -0.68225,0.01652c-3.53249,-1.02248 -7.80234,0.80545 -11.15404,2.44134c-5.17764,2.52708 -10.40573,4.10993 -14.97807,7.87935c-4.90134,3.4439 -9.44374,7.3489 -14.29451,10.86915c-0.99951,0.72535 -2.15837,1.78788 -3.26164,2.31129c0.40223,0.23514 0.74292,0.57047 1.1058,0.86454c0.79373,0.64324 1.53177,1.35917 2.36477,1.95024c2.2726,1.61259 4.77968,2.87856 7.06703,4.47706c2.8369,2.12036 5.91665,3.89892 8.72376,6.05803c1.42265,1.09424 2.56431,2.61104 4.19075,3.42803c1.2751,0.6405 2.59861,0.75222 4.02648,0.82696c1.256,0.06575 1.69474,0.05362 2.83796,0.38958c0.73254,0.21528 0.77268,0.5977 1.54936,0.05896c2.7536,-1.91003 5.07907,-4.78771 7.35137,-7.24479c1.46308,-1.74057 3.09576,-3.49861 4.27099,-5.45916c1.67716,-2.7979 3.13963,-6.3839 3.85169,-9.54041c0.42745,-1.89484 0.10087,-3.69638 0.10608,-5.57051c0.00334,-1.2018 0.25065,-2.41589 0.25141,-3.61747c0.00046,-0.73151 -0.59329,-1.98313 -0.72478,-2.50646c-0.60287,-2.39929 0.23896,-4.82099 -1.02872,-6.98802zM211.67909,122.7767l0.50993,-0.52345c0.49593,0.10487 0.99188,0.20973 1.48781,0.31461c1.01424,1.31026 1.7546,2.51466 1.84732,4.30762c0.07052,1.36363 -0.24848,2.61604 0.10395,3.96293c0.32801,1.25358 0.76286,1.66374 0.79032,2.98229c0.0255,1.22402 -0.24819,2.46603 -0.25016,3.69274c-0.00331,2.06714 0.29764,3.99797 -0.16282,6.09291c-1.34624,6.12497 -4.69643,11.38158 -8.7112,16.15577c-2.35426,2.54752 -5.01081,6.06622 -8.03728,7.79586c-1.87788,1.07322 -3.73515,-0.05571 -5.62493,-0.15747c-1.70096,-0.09159 -3.31016,-0.2653 -4.82503,-1.03306c-1.76436,-0.8942 -2.98831,-2.45325 -4.53126,-3.63952c-2.7913,-2.14605 -5.85461,-3.91318 -8.67535,-6.0219c-3.17331,-2.21963 -6.50849,-4.05319 -9.52336,-6.49763c-0.57439,-0.46571 -2.60221,-1.68544 -2.48206,-2.69385c0.09349,-0.78464 1.00039,-1.27804 1.58114,-1.83682c0.94542,-0.90965 2.30567,-1.6107 3.36544,-2.37954c4.83236,-3.50584 9.35293,-7.40099 14.23838,-10.82759c4.70841,-3.8895 10.06269,-5.52068 15.38518,-8.13233c3.91386,-1.92046 8.64496,-3.74822 12.75591,-2.60767c0,0 0.81751,0.23126 0.75806,1.04611z" fill="#c70000" stroke="none" stroke-width="0.5" stroke-linecap="butt"/><path d="M213.45786,131.58013c0.13149,0.52333 0.72616,1.77784 0.72569,2.50935c-0.00076,1.20158 -0.24748,2.41975 -0.25081,3.62155c-0.0052,1.87412 0.32079,3.68235 -0.10666,5.57718c-0.71207,3.15652 -2.17982,6.75322 -3.85698,9.55112c-1.17522,1.96056 -2.81345,3.72363 -4.27653,5.4642c-2.27229,2.45708 -4.60615,5.33833 -7.35975,7.24837c-0.77668,0.53875 -0.81821,0.15657 -1.55075,-0.0587c-1.14321,-0.33596 -1.58459,-0.32359 -2.84059,-0.38934c-1.42788,-0.07475 -2.75529,-0.18669 -4.03039,-0.8272c-1.62644,-0.81698 -2.77304,-2.33519 -4.19568,-3.42943c-2.8071,-2.15911 -5.89542,-3.9446 -8.73232,-6.06496c-2.28735,-1.59849 -4.79742,-2.87068 -7.07001,-4.48328c-0.83299,-0.59108 -1.57155,-1.3091 -2.36528,-1.95235c-0.36288,-0.29408 -0.70372,-0.63026 -1.10595,-0.86541c1.10327,-0.52341 2.26197,-1.58723 3.26148,-2.31258c4.85077,-3.52025 9.39641,-7.43988 14.29777,-10.88378c4.57234,-3.76942 9.82571,-5.36465 15.00335,-7.89172c3.3517,-1.63588 7.6315,-3.4587 11.164,-2.43622c0,0 0.32647,0.09261 0.68263,-0.01616c0.08035,0.33488 0.32979,0.84851 1.09816,0.7762c0.18867,-0.01776 0.34579,-0.06466 0.47637,-0.13079c1.26768,2.16702 0.4294,4.59466 1.03227,6.99394z" data-paper-data="{&quot;noHover&quot;:false,&quot;origItem&quot;:[&quot;Path&quot;,{&quot;applyMatrix&quot;:true,&quot;segments&quot;:[[[122.08404,175.90797],[5.25518,2.12039],[-0.15362,0.27188]],[[121.37616,176.7128],[0.32619,-0.26103],[-1.32841,1.06303]],[[118.30218,176.74224],[0.59776,0.46911],[-0.51492,0.62026]],[[117.05875,177.60534],[0,0],[-7.92273,2.59127]],[[99.63953,195.39516],[4.02535,-6.87464],[-6.21827,10.61981]],[[82.41339,227.08058],[3.4308,-11.98407],[-4.47728,11.83519]],[[70.46139,262.99561],[4.28115,-11.90266],[-0.88214,2.45256]],[[67.50811,270.90452],[1.3452,-2.23737],[1.06121,-0.09389]],[[70.71776,271.01598],[-1.06716,-0.05415],[2.33426,0.11843]],[[77.71754,271.42616],[-2.33719,0.01801],[6.37638,-0.04915]],[[96.82564,270.36238],[-6.38485,0.0911],[8.10351,0.12055]],[[121.12532,269.9497],[-8.10016,-0.22267],[4.10518,0.11285]],[[133.49238,270.62896],[-4.11171,0.60642],[3.22351,-0.47542]],[[142.06947,267.10172],[-2.74883,1.62111],[2.41795,-1.42597]],[[147.85581,264.28812],[-2.57079,0.83004],[1.6473,-0.53186]],[[150.80883,262.49155],[-0.71884,1.86361],[2.54854,-6.6071]],[[154.7379,241.21674],[-0.92272,6.94496],[0.38172,-4.7403]],[[155.34554,226.73821],[0.44701,4.76073],[-0.63792,-6.79402]],[[149.70683,205.85712],[2.90865,6.22039],[-1.74604,-3.73406]],[[142.4395,196.28789],[2.50155,3.18213],[-1.60414,-2.04057]],[[138.05869,189.85026],[1.60862,2.03704],[-0.97931,-1.24013]],[[133.35575,186.49015],[0.94515,0.72584],[-4.33318,-3.32772]]],&quot;closed&quot;:true}]}" fill="url(#color-4)" stroke="none" stroke-width="0.5" stroke-linecap="butt"/><path d="M198.16924,179.58392c0.74878,-1.03659 1.98395,-1.42316 2.75885,-0.86341c0.77489,0.55974 0.79606,1.85382 0.04729,2.89041c-0.74878,1.03659 -1.98395,1.42316 -2.75885,0.86341c-0.77489,-0.55974 -0.79606,-1.85382 -0.04729,-2.89041z" fill="#ffffff" stroke="none" stroke-width="1" stroke-linecap="butt"/><path d="M290.47488,185.48099c-0.53814,0.03962 -1.91295,-0.13073 -2.60725,0.09959c-1.14047,0.37832 -2.21534,0.99462 -3.35521,1.37546c-1.77755,0.59388 -3.59046,0.84998 -5.25498,1.85123c-2.77284,1.66792 -5.71759,4.18319 -7.84672,6.65462c-1.49193,1.73178 -2.64783,3.83422 -3.84046,5.77015c-1.61855,2.92931 -3.61967,6.04128 -4.56763,9.25561c-0.26738,0.90664 0.10829,0.82456 0.54285,1.45235c0.67819,0.97973 0.80455,1.40006 1.26167,2.57176c0.51967,1.33205 1.04163,2.5534 2.05038,3.56263c1.2867,1.28731 3.08543,1.89449 4.5713,2.9012c2.93186,1.9864 5.58812,4.35123 8.49256,6.3781c2.23631,1.66915 4.22599,3.6514 6.47105,5.30211c0.8229,0.60505 1.73448,1.08072 2.59457,1.63212c0.39321,0.25208 0.8186,0.47014 1.16824,0.7781c0.15019,-1.21186 0.79473,-2.64591 1.16924,-3.82273c1.81757,-5.71126 4.09732,-11.25068 5.82652,-16.98597c2.14162,-5.52524 2.00136,-10.98589 2.77337,-16.69536c0.49975,-3.69598 0.89329,-8.32394 -1.18747,-11.35617c0,0 -0.19005,-0.28059 -0.19871,-0.65288c-0.34316,0.02896 -0.9079,-0.04586 -1.08071,-0.79802c-0.04243,-0.1847 -0.04706,-0.34851 -0.02532,-0.49325c-2.45561,-0.52248 -4.49009,1.03772 -6.95728,1.21936zM300.62573,184.77091c2.37462,3.54429 2.12619,8.61007 1.53294,12.92916c-0.80677,5.87356 -0.67274,11.46919 -2.8856,17.16134c-1.71776,5.71474 -3.99502,11.23036 -5.8047,16.91962c-0.39687,1.24769 -0.63494,2.75934 -1.20142,3.94272c-0.34797,0.72692 -0.53139,1.74293 -1.2469,2.07826c-0.91957,0.43096 -2.71476,-1.11084 -3.33737,-1.50978c-3.26803,-2.09399 -6.05677,-4.68402 -9.16116,-6.99905c-2.88831,-2.01518 -5.52856,-4.36799 -8.44305,-6.3435c-1.61104,-1.09199 -3.47573,-1.76402 -4.87908,-3.158c-1.20491,-1.19687 -1.8755,-2.66995 -2.49698,-4.25596c-0.69046,-1.76207 -2.34584,-3.17049 -1.91711,-5.2905c0.69096,-3.41668 3.19659,-7.0444 4.87523,-10.07995c3.2707,-5.31165 7.20822,-10.144 12.59986,-13.34681c1.84412,-1.09547 3.77171,-1.41652 5.73309,-2.06926c1.16396,-0.38736 2.25704,-1.03748 3.42706,-1.39791c1.26038,-0.38828 1.78642,-0.10435 3.07957,-0.18689c1.38942,-0.08869 2.47812,-0.78509 3.79484,-1.14666c1.73127,-0.47541 3.10731,-0.15104 4.66991,0.40008c0.2554,0.43786 0.5108,0.87572 0.76621,1.31358l-0.33668,0.64859c0.75488,-0.31249 1.23134,0.39092 1.23134,0.39092z" data-paper-data="{&quot;index&quot;:null}" fill="#c70000" stroke="none" stroke-width="0.5" stroke-linecap="butt"/><path d="M297.44201,184.23993c-0.02174,0.14474 -0.0169,0.30864 0.02554,0.49334c0.17281,0.75216 0.7388,0.82756 1.08197,0.79861c0.00866,0.37229 0.19918,0.65312 0.19918,0.65312c2.08076,3.03223 1.69519,7.66804 1.19545,11.36402c-0.772,5.70948 -0.63556,11.19802 -2.77717,16.72326c-1.7292,5.73528 -4.0218,11.28239 -5.83938,16.99366c-0.37451,1.17682 -1.02033,2.61112 -1.17052,3.82298c-0.34963,-0.30796 -0.77591,-0.52589 -1.16911,-0.77797c-0.86009,-0.55139 -1.77382,-1.02688 -2.59673,-1.63194c-2.24507,-1.65072 -4.24158,-3.63384 -6.4779,-5.30299c-2.90443,-2.02686 -5.56997,-4.39765 -8.50182,-6.38405c-1.48587,-1.00671 -3.28747,-1.61813 -4.57418,-2.90545c-1.00875,-1.00923 -1.53217,-2.23422 -2.05183,-3.56627c-0.45711,-1.17171 -0.58408,-1.59462 -1.26227,-2.57434c-0.43457,-0.62778 -0.81043,-0.5471 -0.54305,-1.45374c0.94796,-3.21433 2.94984,-6.33538 4.56839,-9.26469c1.19263,-1.93593 2.35157,-4.04521 3.8435,-5.777c2.12912,-2.47143 5.08239,-4.99507 7.85523,-6.663c1.66452,-1.00124 3.48358,-1.25999 5.26113,-1.85387c1.13987,-0.38084 2.2188,-0.99785 3.35927,-1.37617c0.6943,-0.23031 2.07213,-0.06001 2.61028,-0.09963c2.46719,-0.18164 4.50841,-1.74034 6.96402,-1.21786z" data-paper-data="{&quot;noHover&quot;:false,&quot;origItem&quot;:[&quot;Path&quot;,{&quot;applyMatrix&quot;:true,&quot;segments&quot;:[[[348.46913,183.51203],[4.33318,-3.32772],[-0.94515,0.72584]],[[343.76619,186.87214],[0.97931,-1.24013],[-1.60862,2.03704]],[[339.38538,193.30977],[1.60414,-2.04057],[-2.50155,3.18213]],[[332.11805,202.879],[1.74604,-3.73406],[-2.90865,6.22039]],[[326.47933,223.76009],[0.63792,-6.79402],[-0.44701,4.76073]],[[327.08698,238.23862],[-0.38172,-4.7403],[0.92272,6.94496]],[[331.01605,259.51343],[-2.54854,-6.6071],[0.71885,1.86361]],[[333.96907,261.31],[-1.64729,-0.53186],[2.57079,0.83004]],[[339.75541,264.1236],[-2.41795,-1.42597],[2.74883,1.62111]],[[348.3325,267.65084],[-3.22351,-0.47542],[4.11171,0.60642]],[[360.69956,266.97158],[-4.10517,0.11285],[8.10016,-0.22267]],[[384.99924,267.38426],[-8.10351,0.12055],[6.38485,0.0911]],[[404.10734,268.44804],[-6.37639,-0.04915],[2.33719,0.01801]],[[411.10712,268.03786],[-2.33426,0.11843],[1.06716,-0.05415]],[[414.31677,267.9264],[-1.06121,-0.09389],[-1.34521,-2.23737]],[[411.36349,260.01749],[0.88214,2.45256],[-4.28115,-11.90266]],[[399.41148,224.10246],[4.47728,11.83519],[-3.4308,-11.98407]],[[382.18535,192.41704],[6.21827,10.61981],[-4.02535,-6.87464]],[[364.76613,174.62722],[7.92273,2.59127],[0,0]],[[363.5227,173.76412],[0.51492,0.62026],[-0.59776,0.46911]],[[360.44872,173.73468],[1.32841,1.06303],[-0.32619,-0.26103]],[[359.74084,172.92985],[0.15362,0.27188],[-5.25518,2.12039]]],&quot;closed&quot;:true}]}" fill="url(#color-5)" stroke="none" stroke-width="0.5" stroke-linecap="butt"/><path d="M195.86951,175.06646c0.21814,-0.30198 0.57797,-0.4146 0.80371,-0.25153c0.22574,0.16306 0.23191,0.54006 0.01377,0.84204c-0.21814,0.30198 -0.57797,0.4146 -0.80371,0.25153c-0.22574,-0.16306 -0.23191,-0.54006 -0.01377,-0.84204z" fill="#ffffff" stroke="none" stroke-width="1" stroke-linecap="butt"/><path d="M186.6668,173.39967c0.3682,-0.50973 0.97558,-0.69982 1.35663,-0.42457c0.38104,0.27525 0.39146,0.91159 0.02325,1.42132c-0.3682,0.50973 -0.97558,0.69982 -1.35663,0.42457c-0.38104,-0.27525 -0.39146,-0.91159 -0.02325,-1.42132z" fill="#ffffff" stroke="none" stroke-width="1" stroke-linecap="butt"/><path d="M178.55244,192.25489c-5.71267,-4.12652 -3.27435,-12.79796 -3.27435,-12.79796c0,0 1.65547,-6.75222 7.9396,-15.45182c8.48386,-11.74487 30.87051,-42.73649 44.19895,-61.18809c0.10347,0.00776 0.20812,0.01047 0.31366,0.00826l0.64951,0.00087c0.48348,0.36597 1.22276,0.32344 1.88733,0.30021c2.42735,-0.0849 5.1968,-0.7223 7.68845,-1.04038c1.53867,-0.19644 3.07105,-0.38126 4.59098,-0.52644c0.32096,-0.00865 0.64365,-0.02459 0.96907,-0.05242c0.25582,-0.02187 0.51161,-0.05482 0.76732,-0.09508c4.04103,-0.29661 7.9762,-0.2323 11.68787,0.731c0.30958,0.01828 0.61954,0.03254 0.92983,0.0431c12.34924,8.92041 34.61662,25.00517 49.89449,36.04107c0.06568,0.55942 0.13131,1.08428 0.15976,1.5481c0.2097,0.12634 0.42011,0.25161 0.63035,0.37712c0.02366,0.10602 0.04887,0.21149 0.07548,0.31642c0.00056,0.00764 0.00112,0.01515 0.00167,0.02257c0.03687,0.4906 0.37803,2.7185 0.47956,3.02512c0.0648,0.19567 0.37013,0.20093 0.39372,0.41795c0.02644,0.24319 -0.27877,0.53532 -0.26319,0.78272c0.05697,0.9047 0.18817,1.79671 0.47521,2.58466c0.22766,0.62495 0.92287,0.88763 1.09801,1.54481c0.56176,2.10794 0.6045,4.24606 0.9534,6.45029c0.44382,1.56244 0.80122,3.10856 1.56343,4.4629c0.10434,0.18538 0.20358,0.35359 0.29749,0.51096c0.07818,1.01745 0.32563,1.8876 0.98533,2.39887c0.01684,0.10922 0.03187,0.22419 0.04507,0.34573c-14.09285,19.41689 -39.91242,54.9988 -48.54171,66.945c-5.60304,7.75674 -11.19288,9.44182 -11.19288,9.44182c0,0 -5.08105,3.64976 -10.79372,-0.47677z" fill="url(#color-6)" stroke="#c70000" stroke-width="3.5" stroke-linecap="butt"/><path d="M295.55145,98.48394l14.80759,43.08579c-0.06402,0.12218 -0.12201,0.24376 -0.11492,0.35627c0.05808,0.92241 0.19185,1.83187 0.48451,2.63526c0.23212,0.63719 0.94093,0.90501 1.1195,1.57505c0.57276,2.1492 0.61633,4.32919 0.97207,6.57656c0.45251,1.59303 0.8169,3.16941 1.59403,4.55027c0.10638,0.18901 0.20757,0.36052 0.30332,0.52096c0.02729,0.35513 0.07481,0.69266 0.15248,1.00393l-82.26229,-59.42181c1.96196,-0.23409 4.03253,-0.66208 5.94293,-0.90597c0.63765,-0.08141 18.20625,0.01622 18.36791,0.05817c2.80923,0.16593 5.64809,0.00638 8.50396,-0.24669z" fill="url(#color-7)" stroke="none" stroke-width="0" stroke-linecap="butt"/><path d="M234.05109,161.28593c0,0 -0.86445,-1.88989 1.57517,-5.23183c3.45606,-4.73433 8.09488,-10.80155 10.32391,-13.88737c2.58007,-3.5718 5.04785,-4.67991 5.04785,-4.67991c0,0 4.17885,-1.06185 7.21843,1.13378c2.77614,2.00533 5.28023,3.4189 7.23955,4.8342c3.43543,2.48157 4.30686,7.4821 4.30686,7.4821c0,0 1.00093,5.28775 -1.66313,8.97582c-2.34457,3.24578 -7.10495,9.40155 -10.36143,13.85864c-2.0154,2.75846 -3.55264,2.30284 -3.55264,2.30284c0,0 -2.22299,1.38813 -4.80895,-0.47192c-4.47604,-3.21956 -10.59444,-7.95761 -13.21969,-9.85396c-2.19274,-1.58391 -2.10595,-4.46239 -2.10595,-4.46239z" fill="url(#color-8)" stroke="none" stroke-width="0" stroke-linecap="butt"/><path d="M208.23771,198.63588c0,0 -0.86445,-1.88989 1.57517,-5.23183c3.45606,-4.73432 8.09489,-10.80155 10.32392,-13.88737c2.58007,-3.5718 5.04785,-4.67991 5.04785,-4.67991c0,0 4.17885,-1.06185 7.21843,1.13378c2.77614,2.00533 5.28023,3.4189 7.23955,4.8342c3.43543,2.48157 4.30686,7.4821 4.30686,7.4821c0,0 1.00093,5.28775 -1.66313,8.97582c-2.34457,3.24578 -7.10495,9.40155 -10.36143,13.85864c-2.0154,2.75845 -3.55264,2.30284 -3.55264,2.30284c0,0 -2.22299,1.38813 -4.80895,-0.47192c-4.47604,-3.21956 -10.59444,-7.95761 -13.21969,-9.85396c-2.19274,-1.58391 -2.10595,-4.46239 -2.10595,-4.46239z" fill="url(#color-9)" stroke="none" stroke-width="0" stroke-linecap="butt"/><path d="M188.18961,170.12896l39.31907,-53.9689" fill="none" stroke="#d6d6d6" stroke-width="4" stroke-linecap="round"/><path d="M182.3946,176.02586l0.67984,-0.81374l0.72084,-0.99791c0.38676,-0.53543 1.09681,-0.68307 1.58593,-0.32975c0.42211,0.30491 0.54173,0.88327 0.31799,1.38017c0.10628,0.59194 -0.39096,1.08732 -0.39096,1.08732c-0.10612,0.10517 -0.21223,0.21034 -0.31835,0.31552l0.0067,0.00585l-1.28656,1.51769c-0.39622,0.47677 -1.06408,0.59574 -1.53078,0.25862c-0.48912,-0.35331 -0.57209,-1.07378 -0.18532,-1.60921c0.00849,-0.01175 0.01713,-0.02331 0.02592,-0.03468l0.0662,-0.08634c0.05768,-0.39147 0.30858,-0.69352 0.30858,-0.69352z" fill="#d6d6d6" stroke="none" stroke-width="0.5" stroke-linecap="butt"/><path d="M243.08061,161.56014c-0.77757,0.9076 -1.59619,0.18276 -1.59619,0.18276l-0.56582,-0.61077c-0.50277,-1.06518 -1.27379,-2.37698 -1.16322,-3.67548c0.03372,-0.396 1.41924,-2.69008 1.61506,-3.00801c2.12021,-3.44234 4.89856,-6.37761 7.58655,-9.37073c0,0 0.79821,-0.88882 1.59672,-0.14105c0.7985,0.74777 0.00029,1.63658 0.00029,1.63658c-2.57796,2.87053 -5.27352,5.68488 -7.30232,8.98955c-0.41764,0.68028 -1.21236,1.25958 -1.26246,2.03512c-0.02878,0.44549 0.8817,2.17957 0.97425,2.37196l0.07611,-0.04237c0,0 0.81861,0.72484 0.04103,1.63245z" fill="#549bd1" stroke="none" stroke-width="0.5" stroke-linecap="butt"/><path d="M217.74314,201.07965c-0.6603,0.99692 -1.57613,0.40086 -1.57613,0.40086l-1.63426,-1.09253c-1.16816,-1.95081 -1.82931,-1.97829 -1.10492,-4.33081c0.51843,-1.68368 2.18239,-3.39273 3.17983,-4.81708c1.08027,-1.54261 2.4458,-2.93343 3.50023,-4.44849c0.27853,-0.40021 0.37238,-0.9065 0.65488,-1.30393c1.09357,-1.53851 2.87822,-3.16347 4.30516,-4.36977c0,0 0.9106,-0.76444 1.5781,0.11007c0.6675,0.87451 -0.2431,1.63895 -0.2431,1.63895c-1.25722,1.04667 -2.91511,2.52156 -3.85203,3.87656c-0.27834,0.40255 -0.37568,0.90872 -0.65808,1.30845c-0.57076,0.80792 -1.36884,1.4287 -1.97845,2.20755c-0.84871,1.08431 -1.56201,2.26487 -2.38528,3.36981c-0.5045,0.6771 -2.42458,2.95301 -2.12265,3.85655c0.15331,0.45878 0.52459,0.79157 0.78689,1.18735l1.29428,0.81348c0,0 0.91583,0.59606 0.25554,1.59299z" fill="#549bd1" stroke="none" stroke-width="0.5" stroke-linecap="butt"/><path d="M244.68069,164.36283c0.38676,-0.53543 1.09681,-0.68307 1.58593,-0.32975c0.48912,0.35331 0.57209,1.07378 0.18532,1.60921c-0.38676,0.53543 -1.09681,0.68307 -1.58593,0.32975c-0.48912,-0.35331 -0.57209,-1.07378 -0.18532,-1.60921z" fill="#549bd1" stroke="none" stroke-width="0.5" stroke-linecap="butt"/><path d="M219.09468,202.69744c0.38676,-0.53543 1.09681,-0.68307 1.58593,-0.32975c0.48912,0.35331 0.57209,1.07378 0.18532,1.60921c-0.38676,0.53543 -1.09681,0.68307 -1.58593,0.32975c-0.48912,-0.35331 -0.57209,-1.07378 -0.18532,-1.60921z" fill="#549bd1" stroke="none" stroke-width="0.5" stroke-linecap="butt"/><path d="M268.07926,103.52785c0.0289,-1.15942 1.15758,-1.22929 1.15758,-1.22929l0.84949,-0.00599c3.51297,0.85849 7.09727,0.24839 10.71343,0.03707c2.34524,-0.13705 4.83794,-0.42771 7.17147,-0.38214c1.19268,0.02329 2.2977,0.3683 3.49933,0.37837c0,0 1.12373,0.01308 1.01432,1.17454c-0.10941,1.16145 -1.23314,1.14837 -1.23314,1.14837c-1.20987,-0.01749 -2.34016,-0.36098 -3.53613,-0.3791c-2.27521,-0.03447 -4.69771,0.24833 -6.98275,0.37936c-3.84259,0.22034 -7.59974,0.7947 -11.33604,-0.09171l-0.21778,0.06008c0,0 -1.12868,0.06987 -1.09977,-1.08955z" fill="#ff0000" stroke="none" stroke-width="0.5" stroke-linecap="butt"/><path d="M259.49802,102.4839c0.40255,-1.11669 1.4574,-0.79707 1.4574,-0.79707l0.25471,0.09869c0.90513,0.0931 1.79999,0.28895 2.63864,0.60448c0,0 1.02522,0.39438 0.55227,1.48691c-0.47294,1.09252 -1.49816,0.69813 -1.49816,0.69813c-0.66003,-0.26105 -1.37311,-0.41313 -2.0924,-0.47632l-0.66014,-0.17851c0,0 -1.05485,-0.31962 -0.6523,-1.4363z" fill="#ff0000" stroke="none" stroke-width="0.5" stroke-linecap="butt"/><path d="M253.69585,101.89594c0.38677,-0.53543 1.09681,-0.68307 1.58593,-0.32975c0.48912,0.35331 0.57209,1.07378 0.18532,1.60921c-0.38677,0.53543 -1.09681,0.68307 -1.58593,0.32975c-0.48912,-0.35331 -0.57209,-1.07378 -0.18532,-1.60921z" fill="#ff0000" stroke="none" stroke-width="0.5" stroke-linecap="butt"/><path d="M185.69174,134.94394c1.12082,-0.68505 2.20901,-1.44702 3.34828,-2.07647c1.34886,-0.74525 2.72537,-0.93601 4.12722,-1.44757c2.59846,-0.94823 4.88598,-1.83606 7.61489,-2.09479c0,0 1.12903,-0.10604 1.13539,1.05063c0.00636,1.15667 -1.12267,1.26271 -1.12267,1.26271c-2.53331,0.2355 -4.62966,1.08956 -7.04231,1.96526c-1.2682,0.4603 -2.56274,0.60362 -3.77298,1.28558c-1.35682,0.76456 -2.64625,1.69271 -4.00571,2.46553l-1.53555,-1.38821c0,0 0.2188,-1.09564 1.25343,-1.02268z" fill="#df4b4b" stroke="none" stroke-width="0.5" stroke-linecap="butt"/></g></g></svg>