<svg version="1.1" xmlns="http://www.w3.org/2000/svg" xmlns:xlink="http://www.w3.org/1999/xlink" width="453.41894" height="453.41894" viewBox="0,0,453.41894,453.41894"><defs><radialGradient cx="240.00001" cy="180.00003" r="226.70947" gradientUnits="userSpaceOnUse" id="color-1"><stop offset="0" stop-color="#ffe600"/><stop offset="1" stop-color="#ffe600" stop-opacity="0"/></radialGradient><linearGradient x1="240.7986" y1="364.67479" x2="240.7986" y2="169.72479" gradientUnits="userSpaceOnUse" id="color-2"><stop offset="0" stop-color="#de8500"/><stop offset="1" stop-color="#de8500"/></linearGradient><radialGradient cx="240.00002" cy="180.57231" r="150" gradientUnits="userSpaceOnUse" id="color-3"><stop offset="0" stop-color="#fff900"/><stop offset="1" stop-color="#ff9900"/></radialGradient></defs><g transform="translate(-13.29053,46.70945)"><g data-paper-data="{&quot;isPaintingLayer&quot;:true}" fill-rule="nonzero" stroke="none" stroke-linecap="butt" stroke-linejoin="miter" stroke-miterlimit="10" stroke-dasharray="" stroke-dashoffset="0" style="mix-blend-mode: normal"><path d="M13.29054,180.00003c0,-125.20818 101.50129,-226.70947 226.70947,-226.70947c125.20818,0 226.70947,101.50129 226.70947,226.70947c0,125.20818 -101.50129,226.70947 -226.70947,226.70947c-125.20818,0 -226.70947,-101.50129 -226.70947,-226.70947z" fill="url(#color-1)" stroke-width="0"/><path d="M354.4186,353.56479h-227.24c-20.09212,0 -36.38,-16.28788 -36.38,-36.38v-49.48h300v49.48c0,20.09212 -16.28788,36.38 -36.38,36.38z" fill="url(#color-2)" stroke-width="1"/><path d="M90.00002,305.89v-223.84141c1.19042,-0.96314 2.1553,-2.19401 2.80306,-3.60103c0.51535,-1.11941 0.82997,-2.35031 0.89775,-3.64657c0.37121,-1.60142 0.77668,-3.1655 1.25055,-3.82639c2.4845,-3.46513 5.39351,-6.8539 8.77951,-9.49573c1.163,-0.9074 2.88164,-0.50633 4.08188,-1.27013c0.08424,-0.0536 1.07193,-1.9369 1.50183,-2.29229c1.1135,-0.92052 2.39007,-1.80835 3.75547,-2.66189c4.1223,0 8.61214,0 13.30996,0c16.22987,0 178.25084,0 239.94084,0c0.74444,0.92766 1.48983,1.85509 2.04816,2.83217l3.01384,0.75346c4.16051,4.16051 8.39637,5.53771 13.10664,10.9897c3.64627,4.22043 0.54698,11.45751 5.51052,14.82299v221.23712c0,0 -16.28788,0 -36.38,0c-20.09212,0 -263.62,0 -263.62,0z" fill="url(#color-3)" stroke-width="1"/><path d="M262.35002,130.82001c0,-0.6296 0.51039,-1.14 1.14,-1.14c0.62961,0 1.14,0.51039 1.14,1.14c0,0.6296 -0.51039,1.14 -1.14,1.14c-0.62961,0 -1.14,-0.5104 -1.14,-1.14z" fill="#ecf7fe" stroke-width="1"/></g></g></svg>