<svg version="1.1" xmlns="http://www.w3.org/2000/svg" xmlns:xlink="http://www.w3.org/1999/xlink" width="478.81539" height="110.1567" viewBox="0,0,478.81539,110.1567"><defs><radialGradient cx="240.00001" cy="180.00001" r="239.4077" gradientUnits="userSpaceOnUse" id="color-1"><stop offset="0" stop-color="#e2f5ff"/><stop offset="1" stop-color="#8cd3ff"/></radialGradient><linearGradient x1="-57.98471" y1="641.44158" x2="200.08613" y2="-99.41284" gradientUnits="userSpaceOnUse" id="color-2"><stop offset="0" stop-color="#feffc6"/><stop offset="1" stop-color="#feffc6" stop-opacity="0"/></linearGradient><linearGradient x1="342.30526" y1="715.97249" x2="24.41107" y2="-1.25071" gradientUnits="userSpaceOnUse" id="color-3"><stop offset="0" stop-color="#fdff84"/><stop offset="1" stop-color="#fdff84" stop-opacity="0"/></linearGradient><linearGradient x1="763.76729" y1="334.10942" x2="-19.5436" y2="290.63664" gradientUnits="userSpaceOnUse" id="color-4"><stop offset="0" stop-color="#feffdb"/><stop offset="1" stop-color="#feffdb" stop-opacity="0"/></linearGradient><linearGradient x1="647.95285" y1="-186.77033" x2="198.84125" y2="456.47504" gradientUnits="userSpaceOnUse" id="color-5"><stop offset="0" stop-color="#fdff84"/><stop offset="1" stop-color="#fdff84" stop-opacity="0"/></linearGradient><linearGradient x1="-295.62245" y1="67.94074" x2="488.50164" y2="43.1363" gradientUnits="userSpaceOnUse" id="color-6"><stop offset="0" stop-color="#fdff84"/><stop offset="1" stop-color="#fdff84" stop-opacity="0"/></linearGradient><linearGradient x1="185.44438" y1="-364.36916" x2="440.42921" y2="377.55305" gradientUnits="userSpaceOnUse" id="color-7"><stop offset="0" stop-color="#feffc6"/><stop offset="1" stop-color="#feffc6" stop-opacity="0"/></linearGradient></defs><g transform="translate(-0.59232,-123.98815)"><g data-paper-data="{&quot;isPaintingLayer&quot;:true}" fill-rule="nonzero" stroke="none" stroke-width="0" stroke-linecap="butt" stroke-linejoin="miter" stroke-miterlimit="10" stroke-dasharray="" stroke-dashoffset="0" style="mix-blend-mode: normal"><g><path d="M0.59232,234.09992v-108.19984h478.81539v108.19984z" fill="url(#color-1)"/><path d="M239.99172,183.07317l-237.85792,-1.63927l-0.19739,-53.9786l153.89095,-0.75893z" fill="url(#color-2)"/><path d="M246.5942,177.70588l-61.1877,55.4692l-184.77944,-1.3718z" fill="url(#color-3)"/><path d="M240.94147,174.2823l15.57253,57.66349l-34.77735,2.19906z" fill="url(#color-4)"/><path d="M236.95031,173.74106l201.40834,60.16994l-150.89003,-0.95145z" fill="url(#color-5)"/><path d="M239.12078,181.70032l-21.11566,-57.69767l34.22606,-0.0145z" fill="url(#color-6)"/><path d="M234.47292,180.13774l70.52619,-53.64139l173.9282,0.56637z" fill="url(#color-7)"/></g></g></g></svg>