<svg version="1.2" xmlns="http://www.w3.org/2000/svg" viewBox="0 0 300 345" width="300" height="345">
	<title>deckhand-svg</title>
	<defs>
		<linearGradient id="g1" x2="1" gradientUnits="userSpaceOnUse" gradientTransform="matrix(0,-156.6,458.879,0,150,358.06)">
			<stop offset="0" stop-color="#d1b43e"/>
			<stop offset="1" stop-color="#b49722"/>
		</linearGradient>
	</defs>
	<style>
		.s0 { fill: url(#g1) } 
		.s1 { fill: #ffe57d } 
		.s2 { fill: #15141a } 
		.s3 { fill: #d1b43e } 
		.s4 { fill: #ffffff } 
		.s5 { fill: #414042 } 
		.s6 { fill: #cd8029 } 
		.s7 { fill: #680e19 } 
		.s8 { fill: #c62639 } 
		.s9 { opacity: .5;fill: #adb4b3 } 
		.s10 { opacity: .3;fill: #43524c } 
		.s11 { opacity: .6;fill: #5d100a } 
		.s12 { fill: #2f2e34 } 
		.s13 { fill: #1d1f35 } 
		.s14 { fill: #2d2f4a } 
		.s15 { fill: #454866 } 
		.s16 { fill: #000000 } 
		.s17 { fill: #181818 } 
		.s18 { fill: #212121 } 
		.s19 { fill: #77d3e7 } 
		.s20 { fill: #77e782 } 
		.s21 { fill: #e777d6 } 
		.s22 { fill: #e77777 } 
		.s23 { fill: #e7db77 } 
		.s24 { fill: #46454a } 
	</style>
	<path id="path19" class="s0" d="m263.6 344.8h-227.2c-4.8 0-9.5-0.9-13.9-2.8-4.5-1.8-8.5-4.5-11.8-7.8-3.4-3.4-6.1-7.4-7.9-11.8-1.9-4.5-2.8-9.2-2.8-14v-66h300v66c0 4.8-0.9 9.5-2.8 14-1.8 4.4-4.5 8.4-7.9 11.8-3.3 3.3-7.3 6-11.8 7.8-4.4 1.9-9.1 2.8-13.9 2.8z"/>
	<path id="rect21" class="s1" d="m0 112.3v149.5c0 20.2 16.2 36.4 36.4 36.4h227.2c20.2 0 36.4-16.2 36.4-36.4v-149.5z"/>
	<path id="rect21 copy" class="s1" d="m0 79.3v149.5c0 20.2 16.2 36.4 36.4 36.4h227.2c20.2 0 36.4-16.2 36.4-36.4v-149.5z"/>
	<path id="path25" class="s2" d="m222.5 281.7c-26.9 4.6-60.9 49.6-57.6 63.1h98.7c20.1 0 36.4-16.3 36.4-36.4v-27.1c-33.6 4-50.4-4.3-77.5 0.4z"/>
	<path id="path27" class="s2" d="m77.5 281.7c-27.1-4.7-44 3.7-77.5-0.4v27.1c0 20.1 16.3 36.4 36.4 36.4h98.7c3.3-13.5-30.7-58.5-57.6-63.1z"/>
	<path id="Layer copy" class="s3" d="m0 170.8c14.9-3.2 73.5-17.8 150-17.8 68.4 0 126.7 13.4 150 18.1v-77.6h-53.4l-21.8-27-20.8 27h-204z"/>
	<path id="circle47" class="s3" d="m240.6 237.2c-22.9 0-41.4-18.5-41.4-41.4 0-22.8 18.5-41.3 41.4-41.3 22.8 0 41.3 18.5 41.3 41.3 0 22.9-18.5 41.4-41.3 41.4z"/>
	<path id="circle51" class="s4" d="m240.6 248.6c-22.9 0-41.4-18.4-41.4-41.3 0-22.9 18.5-41.3 41.4-41.3 22.8 0 41.3 18.4 41.3 41.3 0 22.9-18.5 41.3-41.3 41.3z"/>
	<g id="g2592">
		<path id="path2586" class="s3" d="m16.1 195.8c0 5.4 1 10.8 3.1 15.8 2.1 5.1 5.1 9.6 9 13.5 3.8 3.8 8.4 6.8 13.4 8.9 5 2.1 10.4 3.2 15.8 3.2 5.4 0 10.8-1.1 15.8-3.2 5.1-2.1 9.6-5.1 13.5-8.9 3.8-3.9 6.8-8.4 8.9-13.5 2.1-5 3.2-10.4 3.2-15.8 0-5.4-1.1-10.8-3.2-15.8-2.1-5-5.1-9.6-8.9-13.4-3.9-3.9-8.4-6.9-13.5-9-5-2.1-10.4-3.1-15.8-3.1-5.4 0-10.8 1-15.8 3.1-5 2.1-9.6 5.1-13.4 9-3.9 3.8-6.9 8.4-9 13.4-2.1 5-3.1 10.4-3.1 15.8z"/>
		<path id="path2588" class="s4" d="m16.1 207.3c0 5.4 1 10.8 3.1 15.8 2.1 5 5.1 9.6 9 13.4 3.8 3.9 8.4 6.9 13.4 9 5 2.1 10.4 3.1 15.8 3.1 5.4 0 10.8-1 15.8-3.1 5.1-2.1 9.6-5.1 13.5-9 3.8-3.8 6.8-8.4 8.9-13.4 2.1-5 3.2-10.4 3.2-15.8 0-5.4-1.1-10.8-3.2-15.8-2.1-5-5.1-9.6-8.9-13.4-3.9-3.9-8.4-6.9-13.5-9-5-2.1-10.4-3.1-15.8-3.1-5.4 0-10.8 1-15.8 3.1-5 2.1-9.6 5.1-13.4 9-3.9 3.8-6.9 8.4-9 13.4-2.1 5-3.1 10.4-3.1 15.8z"/>
		<path id="path2590" fill-rule="evenodd" class="s5" d="m71.7 173.2q3.1 0.3 6.2 1.3 3 0.9 5.7 2.4 2.8 1.5 5.2 3.6 2.4 2.7 4.3 5.9 1.8 3.2 3.1 6.6 1.3 3.4 1.9 7 0.7 3.6 0.7 7.3 0 2-0.3 4.1-0.2 2-0.6 4-0.4 2-1 3.9-0.6 1.9-1.4 3.8c-4.4 5.6-10.5 9.6-17.4 11.4-6.9 1.7-14.2 1.1-20.7-1.8-6.6-2.8-12-7.8-15.3-14.1-3.4-6.3-4.6-13.5-3.4-20.5 3.4 2.9 7.8 4.4 12.3 4.3 4.5-0.1 8.8-1.8 12.1-4.9 3.3-3.1 5.4-7.3 5.8-11.8 0.4-4.5-0.8-8.9-3.5-12.6q3.2-0.3 6.3 0.1zm8.7 37.8q-1.4 0.6-2.5 1.6-1.1 1.1-1.6 2.5-0.6 1.4-0.6 2.9 0 1.5 0.6 2.9 0.5 1.4 1.6 2.5 1.1 1.1 2.5 1.6 1.4 0.6 2.9 0.6c2 0 3.9-0.8 5.3-2.3 1.4-1.4 2.1-3.3 2.1-5.3 0-2-0.7-3.9-2.1-5.3-1.4-1.4-3.3-2.3-5.3-2.3q-1.5 0-2.9 0.6z"/>
	</g>
	<path id="path2635" class="s6" d="m154.6 187.8c-1.6 0-8.7-4.6-10.3-5.7-5.5-3.7-13.3-4.8-11.5 10.6 1.3 15.4 14.3 29.9 25.5 31-5.6-2.1-12.8-8-15.5-12.9-2.6-4.8-9.6-17.3-5.3-23.1 3.6-5 10.6-0.2 15.1 5.7 4.1 5.2 6.9 3.7 7.6 1.9 0.4-3.6 0.6-7.3 0.6-11 0-6.2-0.3-17.4-2-16.8-1.3 0.5 2.4 12-4.2 20.3z"/>
	<path id="path4122" class="s7" d="m155.2 288.6c-16.7 0-26.3-8.3-26.3-22.8 0-14.2 9.8-37.4 26.3-37.4 16.5 0 26.3 23.2 26.3 37.4 0 14.5-9.6 22.8-26.3 22.8z"/>
	<path id="path4126" class="s8" d="m178.6 276.6c-5.3-3.4-13-5.5-23.4-5.5-10.4 0-18.1 2.1-23.4 5.5 3.4 6.8 10.8 11.6 23.4 11.6 12.6 0 20-4.8 23.4-11.6z"/>
	<path id="path10952" class="s9" d="m79.4 289.4q-0.4 0-0.8 0.1-0.4 0-0.8 0.2-0.3 0.2-0.6 0.5-0.3 0.3-0.5 0.7-0.3 0.5-0.3 1.1 0 0.5 0.1 1.1 0.2 0.5 0.6 0.9 0.3 0.4 0.8 0.7c27.3 13.9 36 31.6 45.1 50.1h6.2c-9.5-19.4-18.9-39.9-48.7-55.1q-0.2-0.1-0.3-0.1-0.1-0.1-0.3-0.1-0.1 0-0.2-0.1-0.2 0-0.3 0zm141.2 0q-0.1 0-0.3 0-0.1 0.1-0.2 0.1-0.2 0-0.3 0.1-0.1 0-0.3 0.1c-29.8 15.2-39.2 35.7-48.7 55.1h6.2c9.1-18.5 17.8-36.2 45.1-50.1q0.5-0.3 0.8-0.7 0.4-0.4 0.6-0.9 0.1-0.6 0.1-1.1 0-0.6-0.3-1.1-0.2-0.4-0.5-0.7-0.3-0.3-0.6-0.5-0.4-0.2-0.8-0.2-0.4-0.1-0.8-0.1z"/>
	<g id="g12674">
		<path id="path10454" class="s10" d="m58.7 280.2c-17.8 0.2-33.5 4.1-58.7 1.1v17.7l11.1 27.3 5.7 7.9 27.5 10.6h15.2c3.8-21.8 1.2-44.6 40.1-50.5v-1.8c-7.3-5.5-14.9-9.6-22.1-10.8-6.7-1.2-12.9-1.5-18.8-1.5z"/>
		<path id="rect8898" class="s2" d="m0 268.3v18.4l13.9 35.5 5 7.3 36.6 14.7c5-21.4-0.8-45.4 36.3-51.3v-3.5c0-5.9-4.8-10.4-10.7-10.2-27.9 0.9-53-1.9-81.1-10.9z"/>
	</g>
	<g id="g10604">
		<path id="path10600" class="s10" d="m241.3 280.2c17.8 0.2 33.5 4.1 58.7 1.1v17.7l-11.1 27.3-5.7 7.9-27.5 10.6h-15.2c-3.8-21.8-1.2-44.6-40.1-50.5v-1.8c7.3-5.5 14.9-9.6 22.1-10.8 6.7-1.2 12.9-1.5 18.8-1.5z"/>
		<path id="path10602" class="s2" d="m300 268.3c-27.2 8.7-51.7 11.6-78.6 11-7.3-0.2-13.2 5.3-13.2 12.6v1c37.1 5.9 31.3 29.9 36.3 51.3l36.6-14.7 5-7.3 13.9-35.5z"/>
	</g>
	<path id="path16193" fill-rule="evenodd" class="s5" d="m256.7 186.7c6.9 10.2 7.4 23.5 1.3 34.1-6.2 10.7-17.9 16.9-30.2 16-12.3-1-22.9-8.8-27.4-20.3q-0.1-0.4-0.2-0.7-0.1-0.4-0.2-0.7 0-0.4-0.1-0.8-0.1-0.3-0.1-0.7-0.2-0.8-0.3-1.7-0.1-0.8-0.2-1.7 0-0.9 0-1.7-0.1-0.9 0-1.8 0-0.9 0.1-1.9 0-0.9 0.1-1.9 0.1-0.9 0.3-1.9 0.2-0.9 0.4-1.9c3.5 2.4 7.9 3.5 12.2 3.1 4.3-0.5 8.3-2.4 11.3-5.5 3-3.1 4.8-7.2 5.1-11.5 0.4-4.3-0.9-8.6-3.4-12.1 12.2-1.8 24.4 3.5 31.3 13.6zm-16.3 24.3q-1.4 0.6-2.5 1.6-1 1.1-1.6 2.5-0.6 1.4-0.6 2.9 0 1.5 0.6 2.9 0.5 1.4 1.6 2.5 1.1 1.1 2.5 1.6 1.4 0.6 2.9 0.6c2 0 3.9-0.8 5.3-2.3 1.4-1.4 2.2-3.3 2.2-5.3 0-2-0.8-3.9-2.2-5.3-1.4-1.4-3.3-2.3-5.3-2.3q-1.5 0-2.9 0.6z"/>
	<path id="path15570" class="s11" d="m266.9 106.8l33.1-0.9v13.3c-8.4-5.9-17.8-9.1-33.1-12.4zm-28.7 7.2c24.9 2.9 43.7 3.4 61.8 11.7v16.1c-11.3-10-29.2-19.4-61.8-27.8z"/>
	<path class="s12" d="m266.9 9.4q-0.7-0.1-1.4-0.1-0.8 0.1-1.5 0.4-0.6 0.3-1.2 0.8-0.5 0.5-0.9 1.1c-4.3 7.4-9.9 13.7-12.9 12.6-2.8-1.1-3.3-7.7-2.8-15.8q0.1-0.8-0.1-1.6-0.3-0.7-0.7-1.4-0.5-0.6-1.2-1.1-0.6-0.4-1.4-0.6l-14.5-3.6q-0.9-0.2-1.9 0-1 0.2-1.8 0.8-0.8 0.5-1.2 1.4-0.5 0.8-0.6 1.8c-3.6 39.7-46.6 63.4-46.6 63.4h77c0 0 23.6-12.2 25.8-51.5q0-0.8-0.2-1.5-0.2-0.8-0.7-1.4-0.5-0.6-1.2-1-0.6-0.5-1.4-0.7z"/>
	<g id="Basket">
		<path class="s13" d="m280.2 290.6l3.7 16.6c1.5 6.6-2.2 13.1-8.2 14.4l-67.8 15.2c-6 1.4-12-2.9-13.5-9.6l-3.7-16.6q-0.2-0.6-0.3-1.3c-0.7-6.2 2.8-11.9 8.4-13.1l67.8-15.2c5.6-1.3 11.3 2.4 13.2 8.3q0.2 0.6 0.4 1.3z"/>
		<path class="s14" d="m269.1 293.8c2.9-0.7 5.9 1.7 6.7 5.2l1.6 7.3c1.7 7.8-1 15.2-6.2 16.4l-58.7 13.1c-5.2 1.2-10.9-4.3-12.6-12.2l-1.6-7.2c-0.8-3.6 0.9-7 3.7-7.6z"/>
		<path class="s14" d="m190 280.8l78-17.5c3.2-0.7 6.3 1.3 7.1 4.4l2.9 13.3c0.7 3.2-1.3 6.3-4.4 7l-78.1 17.5c-3.1 0.7-6.3-1.3-7-4.4l-3-13.3c-0.7-3.2 1.3-6.3 4.5-7z"/>
		<path class="s15" d="m188.9 275.7l78-17.5c3.2-0.7 6.3 1.3 7 4.5l3 13.3c0.7 3.2-1.3 6.3-4.4 7l-78.1 17.5c-3.2 0.7-6.3-1.3-7-4.5l-3-13.3c-0.7-3.1 1.3-6.3 4.5-7z"/>
		<path class="s16" d="m195.7 279.8l66.8-15c2.3-0.5 4.7 1 5.2 3.4l1.2 5.5c0.6 2.3-0.9 4.7-3.3 5.2l-66.7 15c-2.4 0.5-4.8-1-5.3-3.4l-1.2-5.4c-0.6-2.4 0.9-4.8 3.3-5.3z"/>
		<path class="s17" d="m268.8 273.2l0.2 0.6c0.4 2.1-0.9 4.3-3 5l-67.4 15.1c-2.2 0.4-4.4-1.1-5-3.3l-0.1-0.5c-0.5-2.4 1-4.8 3.3-5.3q0 0 0 0l66.8-15c2.4-0.5 4.7 1 5.2 3.4 0 0 0 0 0 0z"/>
		<path class="s18" d="m269 273.8q0.1 0.8 0 1.7 0 0-0.1 0.1 0 0.3-0.1 0.6c-0.4 1-1.2 1.9-2.2 2.4q-0.3 0.1-0.6 0.2l-67.4 15.1c-2.2 0.4-4.4-1-5-3.2q0-0.1 0-0.1-0.1-0.4 0-0.7c0-1.1 0.5-2.1 1.4-2.8 0.6-0.5 1.3-0.9 2.1-1.1l66.7-14.9c2.2-0.5 4.3 0.5 5 2.3q0.1 0.2 0.2 0.4z"/>
		<path id="Shape 1" class="s19" d="m200 290c-3.3 0-6-2.7-6-6 0-3.3 2.7-6 6-6 3.3 0 6 2.7 6 6 0 3.3-2.7 6-6 6z"/>
		<path id="Shape 1 copy" class="s19" d="m261 275c-3.3 0-6-2.7-6-6 0-3.3 2.7-6 6-6 3.3 0 6 2.7 6 6 0 3.3-2.7 6-6 6z"/>
		<path id="Shape 1 copy 3" class="s20" d="m246 278c-3.3 0-6-2.7-6-6 0-3.3 2.7-6 6-6 3.3 0 6 2.7 6 6 0 3.3-2.7 6-6 6z"/>
		<path id="Shape 1 copy 4" class="s21" d="m232 281c-3.3 0-6-2.7-6-6 0-3.3 2.7-6 6-6 3.3 0 6 2.7 6 6 0 3.3-2.7 6-6 6z"/>
		<path id="Shape 1 copy 5" class="s22" d="m216 285c-3.3 0-6-2.7-6-6 0-3.3 2.7-6 6-6 3.3 0 6 2.7 6 6 0 3.3-2.7 6-6 6z"/>
		<path id="Shape 1 copy 6" class="s20" d="m208 291c-3.3 0-6-2.7-6-6 0-3.3 2.7-6 6-6 3.3 0 6 2.7 6 6 0 3.3-2.7 6-6 6z"/>
		<path id="Shape 1 copy 7" class="s19" d="m224 287c-3.3 0-6-2.7-6-6 0-3.3 2.7-6 6-6 3.3 0 6 2.7 6 6 0 3.3-2.7 6-6 6z"/>
		<path id="Shape 1 copy 8" class="s23" d="m240 283c-3.3 0-6-2.7-6-6 0-3.3 2.7-6 6-6 3.3 0 6 2.7 6 6 0 3.3-2.7 6-6 6z"/>
		<path id="Shape 1 copy 9" class="s22" d="m255 279c-3.3 0-6-2.7-6-6 0-3.3 2.7-6 6-6 3.3 0 6 2.7 6 6 0 3.3-2.7 6-6 6z"/>
		<path id="Layer copy 3" class="s15" d="m275.4 278.4q0.2 0.8 0 1.5 0 0.1 0 0.1-0.1 0.3-0.1 0.5c-0.4 0.9-1 1.7-1.9 2.1q-0.3 0.1-0.5 0.2l-58.5 13.1c-2 0.3-3.8-0.9-4.3-2.8q0 0 0 0-0.1-0.4-0.1-0.7c0-0.9 0.5-1.8 1.2-2.4 0.5-0.4 1.2-0.8 1.9-0.9l57.9-13c1.9-0.4 3.7 0.5 4.3 2q0.1 0.2 0.1 0.3z"/>
		<path id="Layer copy 4" class="s15" d="m256.4 282.4q0.2 0.8 0 1.5 0 0.1 0 0.1-0.1 0.3-0.1 0.5c-0.4 0.9-1 1.7-1.9 2.1q-0.3 0.1-0.5 0.2l-58.5 13.1c-2 0.3-3.8-0.9-4.3-2.8q0 0 0 0-0.1-0.4-0.1-0.7c0-0.9 0.5-1.8 1.2-2.4 0.5-0.4 1.2-0.8 1.9-0.9l57.9-13c1.9-0.4 3.7 0.5 4.3 2q0.1 0.2 0.1 0.3z"/>
		<path id="Layer copy 5" class="s15" d="m274.4 275.4q0.2 0.8 0 1.5 0 0.1 0 0.1-0.1 0.3-0.1 0.5c-0.4 0.9-1 1.7-1.9 2.1q-0.3 0.1-0.5 0.2l-58.5 13.1c-2 0.3-3.8-0.9-4.3-2.8q0 0 0 0-0.1-0.4-0.1-0.7c0-0.9 0.5-1.8 1.2-2.4 0.5-0.4 1.2-0.8 1.9-0.9l57.9-13c1.9-0.4 3.7 0.5 4.3 2q0.1 0.2 0.1 0.3z"/>
		<path id="Layer copy 6" class="s15" d="m255.4 279.4q0.2 0.8 0 1.5 0 0.1 0 0.1-0.1 0.3-0.1 0.5c-0.4 0.9-1 1.7-1.9 2.1q-0.3 0.1-0.5 0.2l-58.5 13.1c-2 0.3-3.8-0.9-4.3-2.8q0 0 0 0-0.1-0.4-0.1-0.7c0-0.9 0.5-1.8 1.2-2.4 0.5-0.4 1.2-0.8 1.9-0.9l57.9-13c1.9-0.4 3.7 0.5 4.3 2q0.1 0.2 0.1 0.3z"/>
	</g>
	<path class="s2" d="m0 162.8c14.9-3.2 73.5-17.8 150-17.8 68.4 0 126.7 13.4 150 18.1v-77.6h-53.4l-21.8-27-20.8 27h-204z"/>
	<path class="s12" d="m84.2 58.6c-63.5 1.4-84.2 46.2-84.2 46.2v71.6q10.9-7.8 22.2-15.1 11.2-7.3 22.8-14 11.6-6.8 23.5-13 11.9-6.2 24.1-11.8c-1.2-5.9-3.7-19.3-1.8-20.8 1.9-1.5 13.2 8.5 18.7 13.4 49.5-20.3 80.5-23 80.5-23v-18.8c0 0-42.5-16-105.8-14.7z"/>
	<path class="s24" d="m263.6 45h-227.2c-4.8 0-9.5 0.9-13.9 2.8-4.5 1.8-8.5 4.5-11.8 7.9-3.4 3.3-6.1 7.3-7.9 11.8-1.9 4.4-2.8 9.1-2.8 13.9v33.4c0 0 12.2-7 40.7-13.4-0.8-4.2-1.6-10.7 0.7-11.8 3.5-1.7 5.6 0.7 6.5 3.1 0.6 1.5 1.4 4.7 1.9 6.8q3.6-0.7 7.4-1.4c-0.6-6.8-2.1-25.6 0.2-26.8 2.9-1.5 6.7-1.7 8.3 2.7 1.4 3.6 5.8 17.1 7.2 21.7q9.6-1.2 19.2-2.1 9.7-0.9 19.3-1.5 9.6-0.6 19.3-0.9 9.6-0.2 19.3-0.2c23.6 0 44.1 1.1 61.6 2.9 3.1-6.6 10.8-22.2 14.3-22.8 4.4-0.7 6.3 3.6 6.5 6.8 0.1 2.1-0.7 11.8-1.2 18.4 48.8 7 68.8 18.5 68.8 18.5v-33.4c0-4.8-0.9-9.5-2.8-13.9-1.8-4.5-4.5-8.5-7.9-11.8-3.3-3.4-7.3-6.1-11.8-7.9-4.4-1.9-9.1-2.8-13.9-2.8z"/>
</svg>