<svg version="1.2" xmlns="http://www.w3.org/2000/svg" viewBox="0 0 300 345" width="300" height="345">
	<title>zombiechild</title>
	<defs>
		<linearGradient id="g1" x2="1" gradientUnits="userSpaceOnUse" gradientTransform="matrix(0,-194.95,681.167,0,150,356.11)">
			<stop offset="0" stop-color="#53824b"/>
			<stop offset=".69" stop-color="#425634"/>
		</linearGradient>
		<linearGradient id="g2" x2="1" gradientUnits="userSpaceOnUse" gradientTransform="matrix(0,-313.99,1134.904,0,150,359.3)">
			<stop offset=".03" stop-color="#9d1c20"/>
			<stop offset=".34" stop-color="#6a140e"/>
		</linearGradient>
	</defs>
	<style>
		.s0 { fill: url(#g1) } 
		.s1 { fill: #f6a9cb } 
		.s2 { fill: none;stroke: #dd7399;stroke-miterlimit:10;stroke-width: 4 } 
		.s3 { fill: #dd7399 } 
		.s4 { fill: #c55b86 } 
		.s5 { fill: #80a55d } 
		.s6 { fill: #56884b } 
		.s7 { fill: #f38dba } 
		.s8 { fill: #471900 } 
		.s9 { fill: #15141a } 
		.s10 { fill: #47622d } 
		.s11 { fill: #2d411b } 
		.s12 { fill: #fcebde } 
		.s13 { fill: #ce2235 } 
		.s14 { fill: url(#g2) } 
		.s15 { opacity: .5;fill: #2f2c38 } 
		.s16 { opacity: .5;fill: #15141a } 
		.s17 { fill: #48733e } 
	</style>
	<g id="halloween">
		<path class="s0" d="m263.6 345h-227.2c-4.8 0-9.5-0.9-13.9-2.8-4.5-1.8-8.5-4.5-11.8-7.9-3.4-3.3-6.1-7.3-7.9-11.8-1.9-4.4-2.8-9.1-2.8-13.9v-49.5h300v49.5c0 4.8-0.9 9.5-2.8 13.9-1.8 4.5-4.5 8.5-7.9 11.8-3.3 3.4-7.3 6.1-11.8 7.9-4.4 1.9-9.1 2.8-13.9 2.8z"/>
		<g id="Brain">
			<g id="Folder 1">
				<path class="s1" d="m199.2 112.6l25.2 18.5 37.5-0.6 11.2 5.9c14.8-12.2 23.2-27.8 19.8-43.7-9.9-46.7-40.2-30.9-40.2-30.9-4.3-18.9-15.3-23.5-30.4-20.7-15.1 2.7-23.8 11.5-47.1 21.8q-1 0.5-1.9 0.9-1 0.4-2 0.7-0.9 0.4-1.9 0.7-1 0.4-2 0.7l6.6 5.5z"/>
				<path fill-rule="evenodd" class="s2" d="m254.9 58c0 0-13.2 29.9-56.7 41.5"/>
				<path class="s3" d="m232.1 39.3q0.1 0.3 0.1 0.6 0 0.2 0 0.5 0 0.3 0 0.5 0 0.3-0.1 0.6 0 0.2 0 0.5 0 0.2 0 0.5 0 0.2-0.1 0.5 0 0.2 0 0.5-0.1 0.5-0.2 1 0 0.5-0.1 1-0.1 0.5-0.2 1-0.1 0.5-0.2 1-0.2 0.5-0.3 1-0.1 0.5-0.2 0.9-0.2 0.5-0.3 1-0.2 0.5-0.4 1-0.1 0.5-0.3 0.9-0.1 0.5-0.3 1-0.2 0.5-0.4 0.9-0.2 0.5-0.4 0.9-0.8 1.9-1.8 3.7-1 1.7-2.1 3.4-1.1 1.7-2.3 3.3-1.3 1.6-2.6 3.1-0.7 0.7-1.5 1.4-0.7 0.7-1.4 1.4-0.8 0.7-1.5 1.3-0.8 0.7-1.6 1.3l-1.6 1.2q-0.2 0.2-0.4 0.3-0.2 0.2-0.4 0.3-0.2 0.2-0.4 0.3-0.2 0.1-0.4 0.3c-1.1 0.7-2.3 1.3-3.4 2q-0.2 0.1-0.4 0.2-0.2 0.2-0.5 0.3-0.2 0.1-0.4 0.2-0.2 0.1-0.4 0.3l-1.8 0.8q-1.8 0.8-3.6 1.6c-2.5 0.8-5 1.5-7.5 2.2 2.2-1.5 4.4-2.7 6.6-4q1.6-1.1 3.2-2.1 0.4-0.3 0.8-0.6 0.4-0.2 0.8-0.5 0.3-0.3 0.7-0.5 0.4-0.3 0.8-0.6 1.5-1.2 3-2.3 0.2-0.1 0.3-0.3 0.2-0.1 0.4-0.3 0.2-0.1 0.4-0.3 0.1-0.1 0.3-0.3l1.4-1.2q0.7-0.6 1.3-1.3 0.7-0.6 1.4-1.2 0.6-0.7 1.2-1.4 0.7-0.7 1.3-1.3 1.2-1.5 2.2-2.9 1.1-1.5 2.1-3.1 1-1.5 1.9-3.1 0.8-1.7 1.6-3.3 0.4-0.9 0.7-1.7 0.4-0.9 0.7-1.7 0.3-0.9 0.6-1.8 0.2-0.8 0.5-1.7c0.3-1.2 0.6-2.4 0.8-3.6q0.2-0.9 0.3-1.7c0.1-0.6 0.2-1.3 0.2-1.8z"/>
				<path class="s3" d="m210.2 73.2c0.3-0.8 0.6-1.7 0.9-2.6 0.3-0.8 0.5-1.8 0.7-2.7q0.1-0.7 0.2-1.4 0.1-0.7 0.2-1.4 0.1-0.7 0.1-1.4 0-0.7 0-1.4c0-0.5 0-1-0.1-1.5q0-0.1 0-0.3 0-0.2 0-0.4 0-0.1 0-0.3-0.1-0.2-0.1-0.4l-0.1-1.4-0.3-1.4c-0.1-1-0.4-2-0.5-3-0.2-1-0.6-2-0.7-3q0.2 0.3 0.5 0.6 0.3 0.3 0.5 0.6 0.3 0.3 0.5 0.7 0.2 0.3 0.5 0.6 0.4 0.7 0.8 1.4 0.1 0.1 0.2 0.3 0.1 0.2 0.1 0.4 0.1 0.1 0.2 0.3 0.1 0.2 0.2 0.4 0.3 0.7 0.5 1.5 0.3 0.8 0.5 1.5 0.2 0.8 0.3 1.6 0.2 0.8 0.2 1.6 0.1 0.8 0.1 1.6 0.1 0.9 0 1.7 0 0.8-0.1 1.6-0.1 0.8-0.3 1.6-0.1 0.8-0.4 1.6-0.2 0.8-0.5 1.6-0.3 0.8-0.7 1.5-0.4 0.8-0.8 1.5z"/>
				<path class="s3" d="m259.2 121.3c1.8-2.2 3.7-4.6 5.4-7q0.7-0.9 1.3-1.8 0.6-0.9 1.2-1.8 0.6-1 1.2-1.9 0.6-1 1.1-1.9 0.5-1 1-2 0.5-1 0.9-2 0.5-1 0.8-2 0.4-1.1 0.7-2.1 0.2-0.6 0.3-1.1 0.1-0.5 0.3-1.1 0.1-0.5 0.2-1.1 0-0.5 0.1-1.1 0.1-0.5 0.1-1.1 0-0.6 0.1-1.2 0-0.5 0-1.1 0-0.6-0.1-1.1 0.3 0.5 0.5 1.1 0.1 0.5 0.3 1.1 0.2 0.6 0.3 1.1 0.1 0.6 0.2 1.2 0.1 0.6 0.1 1.2 0.1 0.6 0.1 1.2 0 0.6 0 1.2 0 0.6-0.1 1.2-0.1 1.2-0.3 2.4-0.2 1.2-0.5 2.3-0.3 1.2-0.7 2.4-0.4 1.1-0.8 2.2-0.5 1.1-1 2.2-0.5 1.1-1.1 2.1-0.6 1.1-1.2 2.1-0.6 1-1.3 2-0.4 0.5-0.7 1-0.4 0.4-0.7 0.9-0.4 0.5-0.8 0.9-0.4 0.5-0.8 0.9-0.4 0.5-0.8 0.9-0.4 0.5-0.8 0.9-0.4 0.4-0.9 0.8-0.4 0.5-0.9 0.9z"/>
				<path fill-rule="evenodd" class="s2" d="m295 107.7c0 0-3.8-34.5-34.6-24.1"/>
				<path fill-rule="evenodd" class="s2" d="m250 118.4c0 0 22.2-29.9 2.3-55.8"/>
				<path class="s3" d="m241.9 109.3q-0.4-0.6-0.7-1.2-0.4-0.7-0.7-1.3-0.2-0.7-0.4-1.4-0.2-0.7-0.3-1.5-0.1-0.7-0.2-1.4 0-0.8 0-1.5 0.1-0.8 0.2-1.5 0.1-0.7 0.3-1.5 0.1-0.3 0.2-0.7 0.1-0.4 0.2-0.7 0.1-0.4 0.3-0.7 0.1-0.4 0.3-0.7 0.1-0.3 0.3-0.7 0.2-0.3 0.4-0.6 0.2-0.3 0.4-0.6 0.2-0.3 0.5-0.6 0.4-0.6 0.9-1.1 0.5-0.6 1.1-1 0.6-0.5 1.2-0.9 0.6-0.4 1.3-0.7c-0.9 1.7-1.9 3.2-2.6 4.9-0.4 0.7-0.6 1.6-1 2.4-0.3 0.7-0.5 1.6-0.7 2.4q-0.1 0.6-0.2 1.3-0.1 0.6-0.2 1.2-0.1 0.7-0.2 1.3-0.1 0.7-0.2 1.3c-0.1 1.8-0.1 3.6-0.2 5.5z"/>
				<path fill-rule="evenodd" class="s2" d="m241.5 98.4c0 0-13.4-0.1-15.6-10.6"/>
				<path fill-rule="evenodd" class="s4" d="m229.8 34.4q0 0 0 0 0 0 0 0zm0 0c13.2 0 22.2 6.6 26.9 19.7q0.9-0.2 1.8-0.4 0.9-0.1 1.9-0.2 0.9-0.2 1.8-0.2 1-0.1 1.9-0.1c9.8 0 27.5 5 34.8 38.3 3.6 17-4.4 35.1-22 49.5l-3 2.6-3.5-1.9-9.9-5.2-36 0.6h-2l-1.6-1.2-25.2-18.4-1-0.7-0.6-1-24.8-40.5-5.8-4.9-8.6-7.2 10.8-3.1q0.9-0.3 1.8-0.6 0.9-0.3 1.8-0.6 0.9-0.4 1.7-0.7 0.9-0.4 1.8-0.8c9.1-4 16-7.9 22-11.2 9.2-5.1 16.4-9.2 26.4-11q1.1-0.2 2.1-0.4 1.1-0.1 2.2-0.2 1-0.1 2.1-0.2 1.1 0 2.2 0zm-0.1 6q0.1-0.1 0.1 0 0 0 0 0zm0 0q-0.9 0-1.9 0-0.9 0.1-1.8 0.1-1 0.1-1.9 0.3-0.9 0.1-1.9 0.3c-15.1 2.7-23.8 11.5-47.1 21.8q-0.9 0.5-1.9 0.9-0.9 0.4-1.9 0.7-1 0.4-2 0.7-1 0.4-2 0.7l6.6 5.5 25.2 41.2 25.2 18.4 37.4-0.5 11.3 5.9c14.8-12.2 23.2-27.8 19.8-43.7-5.9-27.8-19.1-33.5-28.7-33.5q-1.5 0-3 0.2-1.5 0.2-2.9 0.5-1.4 0.3-2.8 0.8-1.5 0.5-2.8 1.1c-3.5-15.6-11.7-21.4-22.9-21.4z"/>
			</g>
			<path class="s5" d="m284.4 117.7q-1.3-1.2-2.8-2.1-1.5-0.9-3.1-1.6-1.5-0.7-3.2-1.1-1.7-0.5-3.4-0.6-1.1-0.1-2.3-0.2-1.1 0-2.3 0.2-1.2 0.1-2.4 0.3-1.1 0.3-2.3 0.6-1.1 0.4-2.2 0.9-1.5 0.7-3.1 1.2-1.6 0.5-3.3 0.8-1.6 0.4-3.3 0.5-1.6 0.2-3.3 0.2-0.8 0-1.5 0-2.3-0.1-4.5-0.5-2.2-0.4-4.3-1.2-2.2-0.7-4.2-1.7-2-1-3.8-2.3-2.8-1.9-5.2-4.4-2.3-2.5-4.1-5.4-1.8-2.9-3-6.1-1.1-3.2-1.6-6.6v-0.3q-0.4-3.1-1.6-6-1.2-3-3.1-5.4-1.9-2.5-4.5-4.4-2.5-1.9-5.4-3c-2.6-1-5.1-2.3-7.3-3.9-2.3-1.6-4.3-3.5-6.1-5.7-1.8-2.1-3.3-4.5-4.5-7-1.1-2.5-2-5.2-2.5-7.9h-143.8c-4.8 0-9.5 0.9-13.9 2.8-4.5 1.8-8.5 4.5-11.8 7.9-3.4 3.3-6.1 7.3-7.9 11.8-1.9 4.4-2.8 9.1-2.8 13.9v180.6c0 4.8 0.9 9.5 2.8 13.9 1.8 4.4 4.5 8.4 7.9 11.8 3.3 3.4 7.3 6.1 11.8 7.9 4.4 1.8 9.1 2.8 13.9 2.8h227.2c4.8 0 9.5-1 13.9-2.8 4.5-1.8 8.5-4.5 11.8-7.9 3.4-3.4 6.1-7.4 7.9-11.8 1.9-4.4 2.8-9.1 2.8-13.9v-136.7q-2.2-0.4-4.3-1.1-2.1-0.7-4-1.7-2-0.9-3.9-2.2-1.8-1.2-3.4-2.6z"/>
			<path class="s6" d="m300 125.3q-2.2-0.4-4.3-1.1-2.1-0.7-4-1.7-2-0.9-3.9-2.2-1.8-1.2-3.4-2.6-1.3-1.2-2.8-2.1-1.5-0.9-3.1-1.6-1.5-0.7-3.2-1.1-1.7-0.5-3.4-0.6-1.1-0.1-2.3-0.1-1.1-0.1-2.3 0.1-1.2 0.1-2.4 0.3-1.1 0.3-2.3 0.6-1.1 0.4-2.2 0.9-1.5 0.7-3.1 1.2-1.6 0.5-3.3 0.8-1.6 0.4-3.3 0.5-1.6 0.2-3.3 0.2-0.8 0-1.5 0-2.3-0.1-4.5-0.5-2.2-0.4-4.3-1.2-2.2-0.7-4.2-1.7-2-1-3.8-2.3-2.8-1.9-5.2-4.4-2.3-2.5-4.1-5.4-1.8-2.9-3-6.1-1.1-3.2-1.6-6.6v-0.3q-0.4-3-1.5-5.8-1.1-2.8-2.9-5.2-1.8-2.4-4.1-4.3-2.4-1.9-5.2-3.1l-2.4 3.3q2.5 1 4.6 2.5 2 1.6 3.6 3.6 1.6 2.1 2.6 4.5 1 2.4 1.3 5v0.3q0.5 3.8 1.8 7.4 1.3 3.6 3.3 6.9 2.1 3.2 4.7 6 2.7 2.8 5.8 5 2.1 1.4 4.3 2.6 2.3 1.1 4.7 1.9 2.4 0.9 4.9 1.3 2.5 0.5 5 0.6 0.8 0 1.7 0 1.9 0 3.7-0.2 1.9-0.2 3.8-0.5 1.8-0.4 3.6-1 1.8-0.6 3.5-1.3 0.9-0.4 1.8-0.7 1-0.3 1.9-0.5 1-0.2 2-0.3 1-0.2 1.9-0.1c0.6 0 1.2 0 1.9 0q1.4 0.2 2.8 0.5 1.3 0.4 2.6 0.9 1.3 0.6 2.5 1.4 1.2 0.7 2.3 1.7 1.9 1.6 3.9 3 2.1 1.3 4.3 2.4 2.2 1.1 4.6 1.9 2.3 0.7 4.8 1.2l0.7 0.1z"/>
			<path class="s6" d="m200.5 69.5c-2.6-1-5-2.4-7.3-4-2.2-1.6-4.3-3.5-6-5.6-1.8-2.2-3.3-4.5-4.5-7-1.1-2.5-2-5.2-2.5-7.9h-4.1l0.2 0.7c0.5 3.1 1.5 6.1 2.8 8.9 1.3 2.8 3 5.4 5 7.8 2 2.4 4.3 4.5 6.8 6.4 2.5 1.8 5.3 3.3 8.2 4.4l2.4-3.3z"/>
			<path class="s4" d="m290.3 110.9c-0.6-0.5-1.1-1-1.7-1.4l-0.5-0.3q-0.9-0.7-1.8-1.3l-0.2-0.1q-0.9-0.6-1.8-1l-0.4-0.2q-1-0.6-2-1l-0.4-0.1q-0.9-0.4-1.8-0.7l-0.5-0.1-0.7-0.2q-0.8-0.3-1.6-0.5-0.8-0.2-1.7-0.3-0.8-0.2-1.6-0.3-0.9-0.1-1.7-0.2c-0.7 0-1.5 0-2.2 0q-1.7 0-3.3 0.1-1.7 0.2-3.3 0.6-1.6 0.3-3.2 0.8-1.6 0.5-3.1 1.2-1.1 0.5-2.3 0.8-1.1 0.4-2.3 0.7-1.2 0.2-2.4 0.3-1.2 0.2-2.4 0.2-0.6 0-1.2 0c-0.5 0-1.1-0.1-1.6-0.2-0.2 0-0.4 0-0.6-0.1-0.4 0-0.7-0.1-1.1-0.1-0.4-0.1-0.4-0.1-0.6-0.2-0.3 0-0.7-0.1-1-0.2l-0.7-0.2-0.9-0.3q-0.8-0.3-1.5-0.6-0.7-0.3-1.4-0.7-0.7-0.4-1.4-0.8-0.7-0.4-1.4-0.8-0.5-0.4-0.9-0.8-0.5-0.3-1-0.7-0.4-0.4-0.9-0.8-0.4-0.5-0.8-0.9-0.6-0.6-1.1-1.2-0.1-0.1-0.2-0.3-0.3-0.3-0.5-0.6-0.3-0.4-0.5-0.7-0.3-0.3-0.5-0.7-0.2-0.3-0.4-0.7 0 0-0.1 0 0-0.1 0-0.1 0-0.1-0.1-0.1 0-0.1 0-0.1-0.2-0.4-0.4-0.7-0.2-0.4-0.4-0.8-0.2-0.4-0.3-0.7-0.2-0.4-0.3-0.8l-0.2-0.4q-0.3-0.7-0.5-1.5c-0.2-0.6-0.3-1-0.4-1.6l-0.1-0.4q-0.2-0.8-0.3-1.7v-0.2q-0.2-1.2-0.4-2.3c0-0.3-0.1-0.5-0.2-0.8q-0.1-0.7-0.3-1.5-0.1-0.4-0.3-0.9-0.2-0.6-0.4-1.3-0.2-0.5-0.3-0.9-0.3-0.7-0.6-1.3-0.1-0.4-0.3-0.7-0.4-0.8-0.7-1.5-0.4-0.8-0.9-1.5-0.4-0.7-0.9-1.4-0.4-0.7-0.9-1.4-0.5-0.6-1-1.2-0.6-0.7-1.1-1.2-0.5-0.6-1.1-1.2-0.6-0.6-1.2-1.1l-0.2-0.2-0.1-0.1q-0.7-0.6-1.4-1.1l-0.4-0.3c-0.5-0.4-1-0.7-1.5-1.1l-0.4-0.2q-0.7-0.5-1.5-0.9l-0.2-0.2q-0.9-0.5-1.8-0.9l-0.4-0.2q-0.9-0.4-1.9-0.8-0.7-0.2-1.4-0.6l-0.5-0.2q-0.4-0.2-0.8-0.5l-0.6-0.3q-0.4-0.2-0.8-0.4c-0.2-0.2-0.3-0.3-0.5-0.4l-0.7-0.5-0.5-0.4q-0.4-0.2-0.7-0.5c-0.2-0.2-0.3-0.3-0.5-0.4-0.2-0.2-0.4-0.4-0.6-0.6l-0.5-0.5q-0.3-0.2-0.6-0.5l-0.5-0.6-0.5-0.6q-0.2-0.2-0.4-0.5c-0.1-0.2-0.3-0.4-0.5-0.7l-0.4-0.5q-0.2-0.3-0.4-0.7c-0.2-0.2-0.3-0.4-0.4-0.6l-0.4-0.7-0.3-0.6q-0.2-0.4-0.4-0.7c-0.1-0.3-0.2-0.5-0.2-0.7-0.1-0.2-0.3-0.5-0.4-0.7l-0.2-0.6q-0.1-0.4-0.3-0.8c0-0.2-0.1-0.4-0.2-0.6l-0.1-0.6h-9.2c0.5 2.7 1.4 5.4 2.5 7.9 1.2 2.5 2.7 4.8 4.5 7 1.7 2.1 3.8 4 6 5.6 2.3 1.6 4.7 3 7.3 4q2.9 1.1 5.5 3 2.5 1.8 4.4 4.3 1.9 2.5 3.1 5.4 1.2 2.9 1.6 6v0.4q0.5 3.3 1.6 6.6 1.2 3.2 3 6.1 1.8 2.9 4.1 5.3 2.4 2.5 5.2 4.4 1.9 1.3 3.9 2.4 2 1 4.1 1.7 2.1 0.7 4.3 1.1 2.2 0.5 4.5 0.6 0.7 0 1.5 0 1.7 0 3.3-0.2 1.7-0.2 3.4-0.5 1.6-0.4 3.2-0.9 1.6-0.5 3.1-1.1 1.1-0.5 2.2-0.9 1.2-0.4 2.3-0.6 1.2-0.2 2.4-0.4 1.2-0.1 2.4-0.1c0.7 0 1.5 0 2.2 0.1q1.7 0.2 3.4 0.6 1.7 0.4 3.3 1.1 1.6 0.7 3 1.6 1.5 1 2.8 2.1 1.6 1.5 3.5 2.7 1.8 1.2 3.8 2.2 2 1 4.1 1.6 2.1 0.7 4.2 1.1v-9.2q-1.3-0.3-2.6-0.8-1.3-0.5-2.5-1.2-1.2-0.6-2.3-1.4-1.2-0.8-2.2-1.7z"/>
			<path class="s3" d="m212.5 75.2l-2.1 1.3-0.1 0.1q0.9 1.3 1.8 2.6 0.8 1.4 1.4 2.9 0.6 1.5 1 3 0.4 1.6 0.6 3.1v0.4q0.5 3.3 1.6 6.6 1.2 3.2 3 6.1 1.8 2.9 4.1 5.3 2.4 2.5 5.2 4.4l1.9-2.8q0.6-0.9 0.9-1.9 0.3-1 0.2-2.1-0.1-1-0.5-2-0.4-1-1.2-1.8-0.5-0.6-1-1.2-0.2-0.1-0.3-0.3-0.2-0.3-0.5-0.6-0.2-0.4-0.5-0.7-0.2-0.3-0.4-0.7-0.2-0.3-0.4-0.6-0.1-0.1-0.1-0.1 0-0.1 0-0.1-0.1-0.1-0.1-0.1 0 0 0-0.1-0.2-0.3-0.4-0.7-0.2-0.4-0.4-0.7-0.2-0.4-0.3-0.8-0.2-0.3-0.3-0.7l-0.2-0.4q-0.3-0.7-0.5-1.5c-0.2-0.6-0.3-1-0.4-1.6l-0.1-0.4q-0.2-0.8-0.3-1.7v-0.2q-0.2-1.2-0.4-2.3c0-0.3-0.1-0.5-0.2-0.8q-0.1-0.7-0.3-1.5-0.1-0.4-0.3-0.9-0.2-0.6-0.4-1.3-0.2-0.5-0.3-0.9-0.3-0.7-0.6-1.3-0.1-0.4-0.3-0.7-0.6-1.2-1.6-2-1-0.8-2.3-1.1-1.3-0.4-2.6-0.2-1.2 0.3-2.3 1z"/>
			<path class="s3" d="m288.6 109.5l-0.5-0.3q-0.9-0.7-1.8-1.3l-0.2-0.1q-0.9-0.6-1.8-1l-0.4-0.2q-1-0.6-2-1l-0.4-0.1q-0.9-0.4-1.8-0.7l-0.5-0.1-0.7-0.2q-1.2-0.3-2.4 0-1.2 0.3-2.2 1.1-0.9 0.8-1.5 1.9-0.5 1.1-0.5 2.4v2.4q1.7 0.1 3.4 0.6 1.7 0.4 3.3 1.1 1.5 0.7 3 1.6 1.5 0.9 2.8 2.1 1.6 1.4 3.4 2.7 1.9 1.2 3.9 2.2 1.9 0.9 4 1.6 2.1 0.7 4.3 1.1v-9.2q-1.3-0.4-2.6-0.9-1.3-0.5-2.5-1.1-1.3-0.7-2.4-1.5-1.1-0.7-2.2-1.7c-0.6-0.5-1.1-0.9-1.7-1.4z"/>
			<path class="s7" d="m200.5 69.5q1.4 0.5 2.8 1.2 1.3 0.8 2.5 1.7 1.3 0.9 2.4 2 1.1 1 2.1 2.2l0.1-0.1 2.1-1.3 0.3-0.3q1-0.6 1.6-1.6 0.6-1 0.7-2.2 0.1-1.1-0.3-2.2-0.4-1.1-1.3-1.9l-0.2-0.2-0.1-0.1q-0.7-0.6-1.4-1.1l-0.4-0.3c-0.5-0.4-1-0.7-1.5-1.1l-0.4-0.2q-0.7-0.5-1.5-0.9l-0.2-0.2q-0.9-0.5-1.8-0.9l-0.4-0.2q-0.9-0.4-1.9-0.8-0.7-0.2-1.4-0.6l-0.5-0.2q-0.4-0.2-0.8-0.5l-0.6-0.3q-0.4-0.2-0.8-0.4c-0.2-0.2-0.3-0.3-0.5-0.4l-0.7-0.5-0.5-0.4q-0.4-0.2-0.7-0.5c-0.2-0.2-0.3-0.3-0.5-0.4-0.2-0.2-0.4-0.4-0.6-0.6l-0.5-0.5q-0.3-0.2-0.6-0.5l-0.4-0.6-0.6-0.6q-0.2-0.2-0.4-0.5c-0.1-0.2-0.3-0.4-0.5-0.6l-0.4-0.6q-0.2-0.3-0.4-0.7c-0.2-0.2-0.3-0.4-0.4-0.6l-0.4-0.7-0.3-0.6q-0.2-0.4-0.4-0.7c-0.1-0.3-0.2-0.4-0.2-0.7-0.1-0.2-0.3-0.5-0.4-0.7l-0.2-0.6q-0.1-0.4-0.3-0.7c0-0.3-0.1-0.5-0.2-0.7l-0.1-0.6h-9.2c0.5 2.7 1.4 5.4 2.5 7.9 1.2 2.5 2.7 4.8 4.5 7 1.7 2.1 3.8 4 6 5.6 2.3 1.6 4.7 3 7.3 4z"/>
			<path class="s7" d="m271.9 105.4q0-0.5-0.2-0.9-0.2-0.4-0.5-0.7-0.3-0.3-0.7-0.5-0.4-0.1-0.9-0.2-1.6 0-3.3 0.2-1.6 0.2-3.2 0.5-1.7 0.4-3.2 0.9-1.6 0.5-3.1 1.2-1.1 0.4-2.3 0.8-1.1 0.4-2.3 0.6-1.2 0.3-2.4 0.4-1.2 0.1-2.4 0.1-0.6 0-1.2 0c-0.5 0-1.1 0-1.7-0.1-0.1 0-0.3-0.1-0.5-0.1-0.4 0-0.7-0.1-1.1-0.2-0.4 0-0.4-0.1-0.6-0.1-0.3-0.1-0.7-0.2-1-0.2l-0.7-0.3-0.9-0.2h-0.1q-1.3-0.5-2.6-0.6-1.4 0-2.7 0.4-1.3 0.4-2.4 1.2-1.1 0.8-1.8 2l-1 1.5q1.8 1.3 3.8 2.3 2 1.1 4.2 1.8 2.1 0.7 4.3 1.1 2.2 0.5 4.5 0.6 0.7 0 1.5 0 1.7 0 3.3-0.2 1.7-0.2 3.3-0.5 1.7-0.4 3.3-0.9 1.5-0.5 3.1-1.2 1.1-0.4 2.2-0.8 1.1-0.4 2.3-0.6 1.2-0.3 2.4-0.4 1.1-0.1 2.3-0.1c0.8 0 1.5 0 2.3 0.1v-6.9z"/>
			<path class="s4" d="m189.6 45.5q0 0.4 0.2 0.7c0 0.2 0.1 0.5 0.2 0.7l0.3 0.7q0.1 0.4 0.3 0.8c0.1 0.2 0.1 0.4 0.2 0.6 0.1 0.2 0.3 0.5 0.4 0.7l0.3 0.6 0.4 0.7q0.2 0.3 0.4 0.6c0.1 0.2 0.3 0.5 0.4 0.7l0.4 0.6q0.2 0.3 0.5 0.6c0.2 0.2 0.3 0.4 0.4 0.6l0.6 0.6 0.4 0.5q0.3 0.3 0.6 0.6l0.5 0.4q0.3 0.3 0.6 0.6c0.2 0.2 0.3 0.3 0.5 0.4 0.2 0.2 0.4 0.4 0.7 0.6l0.5 0.4 0.7 0.4q0.3 0.2 0.5 0.4c0.2 0.1 0.6 0.3 0.8 0.5l0.6 0.3q0.4 0.2 0.8 0.4l0.5 0.3q0.7 0.3 1.4 0.6 1 0.3 1.9 0.8l0.4 0.1q0.9 0.5 1.8 0.9l0.2 0.2q0.8 0.4 1.6 0.9l0.3 0.2q0.8 0.6 1.6 1.1l0.3 0.3q0.7 0.6 1.4 1.1l0.1 0.2 0.2 0.1q0.6 0.6 1.2 1.1 0.5 0.6 1.1 1.2 0.5 0.5 1 1.2 0.5 0.6 1 1.2 0.5 0.7 1 1.4 0.5 0.7 0.9 1.4 0.4 0.7 0.8 1.5 0.4 0.7 0.8 1.5 0.1 0.3 0.3 0.7 0.3 0.6 0.5 1.3 0.2 0.4 0.3 0.8 0.3 0.7 0.5 1.4 0.1 0.4 0.2 0.9 0.2 0.7 0.4 1.5 0.1 0.4 0.2 0.7 0.2 1.2 0.3 2.4v0.2q0.1 0.8 0.3 1.7l0.1 0.4q0.2 0.8 0.4 1.6c0.2 0.5 0.4 1 0.6 1.5l0.1 0.4q0.2 0.4 0.3 0.7 0.2 0.4 0.4 0.8 0.2 0.3 0.4 0.7 0.2 0.4 0.4 0.7 0 0.1 0 0.1 0.1 0 0.1 0.1 0 0 0 0.1 0.1 0 0.1 0.1 0.2 0.3 0.4 0.6 0.3 0.4 0.5 0.7 0.2 0.3 0.5 0.7 0.2 0.3 0.5 0.6 0.1 0.2 0.2 0.3 0.5 0.6 1.1 1.2 0.4 0.5 0.8 0.9 0.5 0.4 0.9 0.8 0.5 0.4 1 0.8 0.5 0.3 0.9 0.7 0.7 0.4 1.4 0.8 0.7 0.5 1.4 0.8 0.7 0.4 1.4 0.7 0.7 0.3 1.5 0.6l0.9 0.3 0.7 0.2q0.4 0.1 1 0.2c0.3 0.1 0.4 0.1 0.6 0.2 0.2 0 0.7 0.1 1.1 0.2 0.2 0 0.4 0 0.6 0.1q0.8 0.1 1.7 0.1 0.5 0 1.1 0 1.2 0 2.4-0.1 1.2-0.2 2.4-0.4 1.2-0.3 2.3-0.6 1.2-0.4 2.3-0.9 1.5-0.7 3.1-1.2 1.6-0.5 3.2-0.8 1.6-0.4 3.3-0.5 1.6-0.2 3.3-0.2c0.7 0 1.5 0 2.2 0.1q0.8 0 1.7 0.1 0.8 0.1 1.7 0.3 0.8 0.2 1.6 0.3 0.8 0.2 1.6 0.5l0.7 0.2 0.5 0.1q0.9 0.3 1.8 0.7l0.4 0.2q1 0.4 2 0.9l0.4 0.2q0.9 0.5 1.8 1l0.2 0.1q0.9 0.6 1.8 1.3l0.5 0.3q0.9 0.7 1.7 1.4 1.1 1 2.2 1.7 1.1 0.8 2.4 1.5 1.2 0.6 2.5 1.1 1.3 0.5 2.6 0.9v-4.1q-1-0.3-1.9-0.7-0.9-0.4-1.8-0.9-0.9-0.5-1.7-1.1-0.8-0.6-1.6-1.3c-0.6-0.5-1.2-1-2-1.6l-0.5-0.4c-0.7-0.5-1.4-1-2.1-1.4l-0.2-0.2q-0.9-0.5-2-1.1h-0.1l-0.4-0.2q-1.1-0.6-2.3-1l-0.3-0.1q-1.1-0.4-2.1-0.8h-0.2l-0.3-0.1q-0.3-0.1-0.6-0.2h-0.2q-0.9-0.3-1.8-0.5-1-0.2-1.9-0.4-0.9-0.1-1.9-0.3-0.9-0.1-1.9-0.2-1.4 0-2.5 0-1.9 0-3.7 0.1-1.9 0.2-3.7 0.6-1.8 0.4-3.6 0.9-1.8 0.6-3.5 1.4-0.9 0.4-1.9 0.7-0.9 0.3-1.9 0.5-1 0.2-2 0.3-1 0.1-2 0.1h-0.9c-0.5 0-0.9-0.1-1.4-0.1h-0.1-0.4-0.1l-0.8-0.2h-0.2-0.3-0.2q-0.3-0.1-0.6-0.2 0 0-0.1 0 0 0 0 0-0.1 0-0.1 0-0.1 0-0.1-0.1l-0.3-0.1h-0.1q-0.3-0.1-0.6-0.2-0.6-0.2-1.2-0.5-0.7-0.2-1.2-0.5-0.6-0.3-1.2-0.7-0.6-0.3-1.1-0.7-0.4-0.3-0.8-0.6-0.4-0.3-0.8-0.7-0.4-0.3-0.8-0.6-0.3-0.4-0.7-0.8-0.4-0.4-0.9-1l-0.2-0.2q-0.2-0.3-0.4-0.5-0.2-0.3-0.4-0.6-0.2-0.3-0.4-0.5-0.1-0.3-0.3-0.6l-0.2-0.3q-0.2-0.3-0.3-0.6-0.2-0.3-0.3-0.6-0.2-0.3-0.3-0.6-0.2-0.3-0.3-0.6l-0.1-0.3q-0.1-0.2-0.1-0.4-0.1-0.1-0.1-0.3-0.1-0.1-0.1-0.3-0.1-0.1-0.1-0.3c-0.2-0.4-0.3-0.8-0.4-1.3 0-0.1 0-0.3-0.1-0.4q-0.1-0.7-0.2-1.3v-0.3q-0.2-1.2-0.4-2.5c0-0.2-0.1-0.4-0.2-0.6v-0.3c-0.1-0.4-0.3-1.1-0.4-1.7q-0.1-0.4-0.3-0.8v-0.1q-0.2-0.9-0.5-1.6l-0.3-1c-0.2-0.5-0.4-1-0.6-1.5v-0.1q-0.2-0.3-0.4-0.7-0.7-1.6-1.7-3.2-0.9-1.6-2-3.1-1.1-1.5-2.3-2.8-1.3-1.4-2.6-2.6l-0.3-0.2-0.1-0.1c-0.5-0.5-1-0.9-1.6-1.3l-0.1-0.1-0.3-0.2q-0.9-0.7-1.8-1.3l-0.2-0.1-0.1-0.1q-0.9-0.5-1.7-1h-0.1l-0.2-0.2q-1-0.5-2-1l-0.5-0.2c-0.8-0.4-1.4-0.6-2.1-0.9q-0.6-0.2-1.2-0.5 0 0 0 0 0 0 0 0-0.1 0-0.1 0 0 0 0-0.1l-0.3-0.1h-0.1l-0.6-0.3-0.2-0.2-0.2-0.1-0.2-0.1-0.5-0.3-0.2-0.1-0.2-0.2-0.2-0.1q-0.2-0.1-0.4-0.3l-0.3-0.2-0.2-0.1-0.1-0.1-0.4-0.4-0.3-0.2-0.1-0.1-0.1-0.1-0.4-0.4-0.3-0.2-0.1-0.2-0.1-0.1q-0.2-0.2-0.4-0.4l-0.3-0.3-0.1-0.1-0.1-0.1-0.3-0.4-0.3-0.3-0.1-0.2q-0.2-0.2-0.4-0.4l-0.2-0.4-0.1-0.1q-0.2-0.3-0.4-0.6l-0.2-0.4v-0.1l-0.4-0.5-0.2-0.6q-0.2-0.3-0.3-0.5l-0.3-0.6q-0.1-0.3-0.2-0.6c-0.1-0.2-0.1-0.4-0.2-0.6l-0.2-0.6h-4.4z"/>
		</g>
		<path class="s5" d="m20 253c0 0 9.5-22.9 44.8-24.5 18.8-0.8 28.4 10.9 28.3 23.5-0.2 12.6-12 18.3-34 23.9-15.8 4-18.5 17.8-18.5 17.8"/>
		<path class="s6" d="m20 253q0.1-0.7 0.3-1.3 0.2-0.7 0.5-1.3 0.2-0.6 0.5-1.2 0.3-0.7 0.6-1.2 0.3-0.6 0.6-1.2 0.4-0.6 0.7-1.2 0.4-0.6 0.8-1.1 0.4-0.6 0.8-1.1l0.8-1.1 0.9-1.1c0.6-0.6 1.2-1.4 1.9-2l2-1.9c0.7-0.5 1.4-1.1 2.1-1.7l1.1-0.8c0.4-0.3 0.8-0.5 1.2-0.7q1.1-0.8 2.3-1.5c1.6-0.9 3.3-1.7 4.9-2.4 1.7-0.8 3.5-1.4 5.2-1.9 1.7-0.5 3.5-0.9 5.3-1.4l5.4-1c1.7-0.2 3.5-0.4 5.4-0.5q1.4-0.2 2.8-0.2 1.4-0.1 2.8 0 1.4 0.1 2.8 0.2 1.4 0.2 2.8 0.5 1.5 0.2 2.9 0.7 1.4 0.4 2.7 0.9 1.4 0.6 2.7 1.3 1.3 0.7 2.5 1.5 2.5 1.7 4.6 3.9 2 2.2 3.5 4.9 1.4 2.7 2.2 5.6 0.7 2.9 0.8 5.9c0 0.5 0 1.1 0 1.5l-0.1 1.6q0 0.3-0.1 0.7 0 0.4-0.1 0.8-0.1 0.4-0.2 0.8 0 0.4-0.1 0.7-0.1 0.2-0.1 0.4-0.1 0.2-0.1 0.4-0.1 0.2-0.2 0.4 0 0.2-0.1 0.3-0.3 0.8-0.6 1.5l-0.7 1.4q-0.1 0.2-0.2 0.4-0.1 0.1-0.2 0.3-0.1 0.2-0.2 0.3-0.1 0.2-0.2 0.4-0.9 1.2-1.9 2.3-1 1.1-2.2 2-1.1 1-2.3 1.9-1.3 0.8-2.6 1.5-1.2 0.6-2.5 1.2-1.2 0.6-2.5 1.1-1.2 0.5-2.5 1-1.3 0.5-2.6 0.9c-3.4 1.2-6.8 2.1-10.2 3l-2.6 0.6c-0.8 0.2-1.7 0.4-2.4 0.6q-0.6 0.2-1.2 0.4-0.5 0.1-1.1 0.3-0.6 0.2-1.1 0.4-0.6 0.2-1.1 0.5-2.3 1-4.3 2.4-2.1 1.4-3.8 3.1-1.8 1.8-3.2 3.8-1.5 2-2.5 4.3 0.2-2.1 0.7-4.1 0.6-2 1.5-3.8 0.9-1.9 2.1-3.5 1.3-1.7 2.8-3.1 0.5-0.5 1-0.9 0.6-0.5 1.2-0.9 0.5-0.4 1.1-0.8 0.6-0.4 1.3-0.7 0.6-0.3 1.2-0.7 0.7-0.3 1.3-0.5 0.7-0.3 1.3-0.6 0.7-0.2 1.4-0.4c0.9-0.4 1.7-0.6 2.5-0.8l2.5-0.7c3.3-1 6.6-2 9.7-3.2q1.2-0.4 2.3-0.9 1.1-0.5 2.3-1.1 1.1-0.5 2.2-1.1 1.1-0.6 2.1-1.2 1-0.6 1.9-1.2 0.9-0.7 1.8-1.4 0.8-0.8 1.5-1.6 0.8-0.8 1.4-1.7 0.6-0.9 1-1.9 0.4-0.9 0.7-2 0.2-1 0.3-2 0.1-1.1 0-2.1-0.1-1.1-0.3-2.2-0.2-1.1-0.5-2.2-0.3-1-0.7-2.1-0.4-1-0.9-2c-2.8-5.1-8.1-8.6-14.2-9.9q-1.2-0.2-2.3-0.4-1.2-0.1-2.4-0.2-1.2-0.1-2.4-0.1-1.2 0-2.4 0.1c-1.6 0.1-3.3 0.2-5 0.4l-4.9 0.7q-2.4 0.5-4.8 1.2-2.4 0.6-4.7 1.5-2.3 0.9-4.6 1.9-2.2 1-4.4 2.3-2.2 1.2-4.2 2.7-2.1 1.4-4 3.1-2 1.6-3.7 3.4-1.8 1.9-3.3 3.9z"/>
		<path class="s5" d="m280 253c0 0-9.5-22.9-44.8-24.5-18.8-0.8-28.4 10.9-28.3 23.5 0.2 12.6 12 18.3 34 23.9 15.8 4 18.5 17.8 18.5 17.8"/>
		<path class="s6" d="m280 253q-1.6-2-3.3-3.9-1.8-1.8-3.7-3.4-1.9-1.7-4-3.1-2.1-1.5-4.3-2.7-2.2-1.3-4.4-2.3-2.2-1.1-4.5-1.9-2.4-0.9-4.7-1.5-2.4-0.7-4.8-1.2l-5-0.7c-1.7-0.2-3.3-0.3-5-0.4q-1.2-0.1-2.4-0.1-1.2 0-2.4 0.1-1.1 0.1-2.3 0.2-1.2 0.2-2.4 0.4c-6 1.3-11.3 4.8-14.2 9.9q-0.5 1-0.9 2-0.4 1.1-0.7 2.1-0.3 1.1-0.5 2.2-0.2 1.1-0.2 2.2-0.1 1 0 2.1 0 1 0.3 2 0.2 1 0.6 2 0.4 1 1 1.9 0.6 0.9 1.4 1.7 0.7 0.8 1.6 1.6 0.8 0.7 1.7 1.4 0.9 0.6 1.9 1.2 1.1 0.6 2.2 1.2 1.1 0.5 2.2 1.1 1.1 0.5 2.3 1 1.1 0.4 2.3 0.9c3.1 1.2 6.4 2.2 9.7 3.2l2.4 0.6c0.9 0.3 1.7 0.5 2.6 0.8q0.7 0.2 1.3 0.5 0.7 0.2 1.4 0.5 0.6 0.3 1.3 0.6 0.6 0.3 1.2 0.6 0.6 0.4 1.2 0.8 0.6 0.4 1.2 0.8 0.6 0.4 1.1 0.8 0.6 0.5 1.1 0.9 0.3 0.3 0.5 0.5 0.3 0.3 0.5 0.5 0.3 0.3 0.5 0.6 0.2 0.2 0.4 0.5 1.2 1.3 2.1 2.8 0.9 1.4 1.5 3 0.7 1.6 1.1 3.3 0.4 1.6 0.5 3.3-1.1-2.2-2.5-4.2-1.4-2.1-3.2-3.8-1.8-1.8-3.8-3.2-2-1.4-4.3-2.4-0.6-0.2-1.1-0.4-0.6-0.2-1.1-0.4-0.6-0.2-1.2-0.4-0.5-0.2-1.1-0.3c-0.7-0.2-1.6-0.4-2.5-0.7l-2.5-0.6c-3.4-0.9-6.8-1.8-10.2-2.9q-1.3-0.4-2.6-0.9-1.3-0.5-2.6-1-1.2-0.6-2.5-1.2-1.2-0.5-2.4-1.2-1.3-0.7-2.6-1.5-1.2-0.8-2.4-1.8-1.1-1-2.1-2-1-1.1-1.9-2.3-0.1-0.2-0.2-0.4-0.1-0.1-0.2-0.3-0.1-0.2-0.2-0.3-0.1-0.2-0.2-0.4l-0.7-1.4q-0.3-0.7-0.6-1.5-0.1-0.2-0.1-0.3-0.1-0.2-0.2-0.4 0-0.2-0.1-0.4 0-0.2-0.1-0.4-0.1-0.4-0.2-0.7 0-0.4-0.1-0.8-0.1-0.4-0.1-0.8-0.1-0.4-0.1-0.8l-0.1-1.5c0-0.5 0-1 0-1.5q0-3 0.8-5.9 0.8-3 2.2-5.6 1.5-2.7 3.5-4.9 2-2.2 4.5-3.9 1.3-0.8 2.6-1.5 1.3-0.7 2.6-1.3 1.4-0.5 2.8-1 1.4-0.4 2.9-0.7 1.4-0.2 2.8-0.4 1.4-0.1 2.8-0.2 1.4-0.1 2.8 0 1.4 0 2.8 0.2c1.8 0.1 3.6 0.3 5.4 0.5l5.4 1c1.8 0.4 3.5 0.9 5.3 1.4 1.7 0.5 3.4 1.2 5.2 1.9 1.7 0.6 3.3 1.5 4.9 2.4q1.2 0.7 2.3 1.5 0.6 0.3 1.2 0.7l1.1 0.8c0.7 0.6 1.4 1.2 2.1 1.7l2 1.9c0.7 0.6 1.3 1.4 1.9 2l0.9 1.1 0.8 1.1q0.4 0.5 0.8 1.1 0.4 0.5 0.7 1.1 0.4 0.6 0.7 1.2 0.4 0.6 0.7 1.2 0.3 0.6 0.6 1.2 0.3 0.6 0.5 1.2 0.3 0.7 0.4 1.3 0.2 0.7 0.4 1.4z"/>
		<path class="s8" d="m291 332.6q0.7-0.9 1.4-1.7-0.7 0.8-1.4 1.6z"/>
		<path class="s9" d="m230.5 189.5c-17.5 4.4-28.4-5.4-32.8-20.3l-13.4 3.4c5 10.4 13.3 18.8 23.8 23.7 10.4 4.9 22.2 6 33.3 3.2 11.2-2.8 21-9.4 27.8-18.7 6.8-9.3 10.2-20.6 9.6-32.1l-29.2 7.4c3.2 15.1-1.7 29-19.1 33.4z"/>
		<path class="s9" d="m69.5 189.5c17.5 4.4 28.4-5.4 32.8-20.3l13.4 3.4c-5 10.4-13.3 18.8-23.8 23.7-10.4 4.9-22.2 6-33.3 3.2-11.2-2.8-21-9.4-27.8-18.7-6.8-9.3-10.2-20.6-9.6-32.1l29.2 7.4c-3.2 15.1 1.7 29 19.1 33.4z"/>
		<path class="s10" d="m229.3 177.4c-13.7 3.5-22.6-5.8-26.5-19.3l-5.1 11.1c4.4 14.9 15.3 24.7 32.8 20.3 17.4-4.4 22.3-18.3 19.1-33.4l-6.3-8.3c3 13.8-0.4 26.2-14.1 29.6z"/>
		<path class="s11" d="m278.8 148.7q-0.1-2.4-0.5-4.7l-0.1-0.4q-0.1-1-0.3-2c-0.2-0.6-0.4-1.6-0.6-2.4l-34 8.6 6.3 8.3 29.2-7.4z"/>
		<path class="s11" d="m181.1 163.6q0.3 1.2 0.7 2.3c0.2 0.8 0.4 1.4 0.6 2 0 0.2 0.1 0.3 0.1 0.4q0.2 0.5 0.4 1.1 0.2 0.6 0.5 1.1 0.2 0.6 0.4 1.1 0.3 0.5 0.5 1.1l13.4-3.4 5.1-11.2z"/>
		<path class="s10" d="m70.8 177.4c-13.7-3.4-17-15.8-14-29.6l-6.3 8.3c-3.3 15.1 1.6 29 19.1 33.4 17.4 4.4 28.3-5.4 32.7-20.3l-5-11.1c-4 13.5-12.9 22.8-26.6 19.3z"/>
		<path class="s11" d="m115.7 172.6q0.2-0.5 0.5-1 0.2-0.6 0.4-1.1 0.3-0.6 0.5-1.1 0.2-0.6 0.4-1.2c0-0.1 0.1-0.2 0.1-0.3q0.3-0.9 0.6-2c0.2-0.7 0.5-1.6 0.7-2.4l-21.7-5.5 5.1 11.2 13.4 3.4z"/>
		<path class="s11" d="m22.7 139.2q-0.3 1.2-0.6 2.4c-0.1 0.8-0.2 1.3-0.3 2l-0.1 0.3q-0.4 2.4-0.5 4.8l29.2 7.4 6.3-8.3z"/>
	</g>
	<path class="s9" d="m181.9 217.6c0 23.1-11.4 41.8-31.9 41.8-20.5 0-31.9-18.7-31.9-41.8 0 0 14.3 10.4 31.9 10.4 17.6 0 31.9-10.4 31.9-10.4z"/>
	<path class="s12" d="m144.6 241h10.8c1.2 0 2.5-0.2 3.7-0.7 1.2-0.5 2.2-1.2 3.1-2.1 0.9-0.9 1.7-2 2.1-3.2 0.5-1.1 0.8-2.4 0.8-3.7v-6q-1.9 0.5-3.7 0.8-1.9 0.4-3.8 0.6-1.9 0.3-3.8 0.4-1.9 0.1-3.8 0.2-1.9-0.1-3.8-0.2-1.9-0.1-3.8-0.4-1.9-0.2-3.8-0.6-1.8-0.3-3.7-0.8v6c0 1.3 0.3 2.6 0.8 3.8 0.5 1.1 1.2 2.2 2.1 3.1 0.9 0.9 1.9 1.6 3.1 2.1 1.2 0.5 2.5 0.7 3.7 0.7z"/>
	<g id="Jacket">
		<path id="Layer copy" class="s6" d="m79.2 269.4q-0.5-1.5-1.5-2.8-1-1.2-2.3-2.2-1.4-0.9-2.9-1.4-1.6-0.5-3.2-0.5h-6.4q-1.2 0-2.4 0.2-1.1 0.2-2.3 0.6-1.1 0.4-2.1 1-1 0.6-1.9 1.3l-11 9.1-0.6-11.3q0-0.3-0.1-0.7-0.1-0.3-0.4-0.6-0.2-0.2-0.5-0.4-0.3-0.2-0.6-0.3l-1.9-0.4q-0.2-0.1-0.4-0.1-0.3 0-0.5 0-0.2 0.1-0.5 0.2-0.2 0.1-0.4 0.2l-19.8 15.3 1.2-24.3q0-0.6-0.1-1.2-0.1-0.6-0.3-1.1-0.2-0.6-0.5-1.1-0.3-0.5-0.7-0.9c-11.2-11.6-16.5-26.8-18.1-32.3v44.3q0 1.4 0.1 2.8 0.1 1.4 0.3 2.7 0.2 1.4 0.5 2.7 0.3 1.4 0.7 2.7c0 0.1 0.1 0.2 0.1 0.3 1.2 3.7 2.9 7.3 5.2 10.6 2.3 3.2 5.1 6 8.3 8.4 3.2 2.3 6.8 4.2 10.6 5.4 3.7 1.2 7.7 1.9 11.6 1.9h78.4c-22.1 0-31.8-17.9-35.6-28.1z"/>
		<path id="Layer copy 2" class="s6" d="m279.7 250.8q-0.6 0.5-1.1 1.1-0.6 0.7-1 1.4-0.4 0.7-0.7 1.4-0.4 0.8-0.6 1.6l-5.9 22.6-15.6-13.4q-0.8-0.6-1.7-1.1-0.8-0.5-1.8-0.9-1-0.3-2-0.5-0.9-0.2-2-0.2h-13.4q-2.3 0-4.6 0.7-2.2 0.7-4.2 2-1.9 1.3-3.4 3.1-1.5 1.8-2.4 4c-4.4 10.2-14.2 24.9-34.1 24.9h77.7c4.9 0 9.7-1 14.2-2.8 4.5-1.9 8.6-4.7 12-8.1 3.5-3.4 6.2-7.5 8.1-12 1.8-4.5 2.8-9.4 2.8-14.3v-43.8c-1.7 5.8-7.5 22.6-20.3 34.3z"/>
		<path class="s13" d="m78 271.1q-0.5-1.4-1.5-2.7-1-1.2-2.3-2.1-1.3-0.9-2.8-1.4-1.5-0.5-3.1-0.5h-6.2q-1.2 0-2.3 0.2-1.1 0.2-2.2 0.6-1.1 0.4-2.1 0.9-1 0.6-1.9 1.3l-10.6 8.9-0.6-11q0-0.4-0.1-0.7-0.2-0.3-0.4-0.5-0.2-0.3-0.5-0.5-0.3-0.2-0.6-0.3l-1.8-0.4q-0.2-0.1-0.5-0.1-0.2 0-0.4 0.1-0.2 0-0.4 0.1-0.2 0.1-0.4 0.3l-19.3 14.8 1.1-23.7q0.1-0.5 0-1.1-0.1-0.5-0.3-1.1-0.2-0.5-0.5-1-0.3-0.5-0.7-0.9c-10.9-11.3-16-26.1-17.6-31.4v43.1q0 1.3 0.1 2.7 0.1 1.3 0.3 2.6 0.2 1.4 0.5 2.7 0.3 1.3 0.7 2.6c0 0 0 0.1 0 0.2 1.2 3.7 2.9 7.2 5.1 10.3 2.3 3.2 5 5.9 8.1 8.2 3.1 2.3 6.6 4.1 10.2 5.3 3.7 1.2 7.5 1.8 11.4 1.8h76.2c-21.5 0-31-17.4-34.6-27.3z"/>
		<path class="s13" d="m280.1 252.6q-0.6 0.5-1.1 1.2-0.5 0.6-0.9 1.3-0.5 0.7-0.8 1.4-0.3 0.7-0.5 1.5l-5.8 22.2-15.3-13.1q-0.8-0.7-1.6-1.2-0.9-0.5-1.8-0.8-1-0.3-2-0.5-0.9-0.2-1.9-0.2h-13.2q-2.3 0-4.5 0.7-2.2 0.7-4.1 2-1.9 1.2-3.4 3-1.4 1.8-2.3 3.9c-4.3 10-13.9 24.4-33.5 24.4h76.2c4.8 0 9.5-0.9 13.9-2.8 4.5-1.8 8.5-4.5 11.9-7.9 3.3-3.3 6-7.4 7.8-11.8 1.9-4.4 2.8-9.1 2.8-13.9v-43c-1.7 5.7-7.4 22.2-19.9 33.6z"/>
		<path class="s14" d="m263.6 298.4h-76.2l-37.4 35.2-37.4-35.2h-76.2c-4.8 0-9.5-1-13.9-2.8-4.5-1.8-8.5-4.5-11.8-7.9-3.4-3.3-6.1-7.4-7.9-11.8-1.9-4.4-2.8-9.1-2.8-13.9v46.6c0 4.8 0.9 9.5 2.8 13.9 1.8 4.5 4.5 8.5 7.9 11.8 3.3 3.4 7.3 6.1 11.8 7.9 4.4 1.9 9.1 2.8 13.9 2.8h227.2c4.8 0 9.5-0.9 13.9-2.8 4.5-1.8 8.5-4.5 11.8-7.9 3.4-3.3 6.1-7.3 7.9-11.8 1.9-4.4 2.8-9.1 2.8-13.9v-46.6c0 4.8-0.9 9.5-2.8 13.9-1.8 4.4-4.5 8.5-7.9 11.8-3.3 3.4-7.3 6.1-11.8 7.9-4.4 1.8-9.1 2.8-13.9 2.8z"/>
		<path class="s15" d="m295.5 310.9l-6.3 8.3-19.1 25.2c3.6-0.6 7-1.8 10.2-3.5 3.2-1.6 6.2-3.8 8.8-6.3 2.6-2.5 4.7-5.4 6.5-8.6 1.7-3.2 3-6.6 3.7-10.1q0.2-0.9 0.3-1.8 0.1-0.9 0.2-1.8 0.1-0.9 0.2-1.9 0-0.9 0-1.8v-3.7z"/>
		<path class="s15" d="m244.5 298.4l-9.4 12.5-6.3 8.3-19.6 25.8h18.8l10.2-13.4 6.3-8.3 18.8-24.9h-18.8z"/>
		<path class="s15" d="m235.2 264.4h-0.8q-2.2 0.2-4.2 0.9-2.1 0.7-3.9 2-1.8 1.2-3.2 3-1.4 1.7-2.2 3.7-0.8 1.8-1.7 3.5-0.8 1.7-1.9 3.3-1 1.7-2.1 3.2-1.2 1.5-2.4 3-0.7 0.8-1.5 1.6-0.7 0.7-1.5 1.4-0.8 0.7-1.7 1.4-0.8 0.6-1.7 1.3-2.1 1.4-4.3 2.5-2.3 1.1-4.7 1.8-2.4 0.7-4.9 1.1-2.5 0.3-5.1 0.3h15.5l4.7-4.7 6-5.9 22.4-22 1.5-1.4z"/>
		<path class="s15" d="m292.7 250l-6.8 6.8-11.9 12-3 11.4-4.5-3.9-1.8 1.8-6.6 6.7-13.6 13.6h18.8l5-4.9 6.6-6.5 21.6-21.1 3.5-3.4v-0.5-2.9-2.8-13.6l-7.3 7.3z"/>
		<path class="s15" d="m187.5 298.4h-0.1l-11.7 11-1.1 1.5-6.3 8.3-19.5 25.8h18.8l10.1-13.4 6.3-8.3 18.9-24.9h-15.4z"/>
		<path class="s15" d="m119 304.5l-4.8 6.4-6.3 8.3-19.6 25.8h18.8l10.2-13.4 6.3-8.3 6.4-8.5-11-10.3z"/>
		<path class="s15" d="m81.9 279.6l-5.3 5.3-13.4 13.5h18.8l4.8-4.7 3.6-3.5q-1.3-1.2-2.4-2.4-1.2-1.3-2.3-2.6-1-1.3-2-2.7-1-1.4-1.8-2.9z"/>
		<path class="s15" d="m63.2 298.4l-9.5 12.5-6.3 8.3-18.9 25q1 0.2 2 0.3 0.9 0.2 1.9 0.3 1 0.1 2 0.2 1 0 2 0h10.3l10.1-13.4 6.3-8.3 18.9-24.9z"/>
		<path class="s15" d="m43 276.3l-0.6-11q0-0.4-0.1-0.7-0.2-0.3-0.4-0.5-0.2-0.3-0.5-0.5-0.3-0.2-0.6-0.2l-1.8-0.5q-0.2-0.1-0.5-0.1-0.2 0-0.4 0.1-0.2 0-0.4 0.1-0.2 0.1-0.4 0.3l-6.4 4.8-9.9 9.7-6.2 6-4.1 4q1.3 1.4 2.8 2.5 1.5 1.2 3.1 2.3 1.6 1 3.3 1.9 1.7 0.8 3.5 1.5l2.6-2.6 6-5.8 15.3-14.9z"/>
		<path class="s15" d="m10.7 287.8l-10.7 14.2v6.6q0 1.9 0.2 3.7 0.2 1.9 0.5 3.7 0.4 1.8 1 3.5 0.5 1.8 1.2 3.5l20.5-27q-1.8-0.7-3.5-1.5-1.7-0.9-3.3-1.9-1.6-1.1-3.1-2.3-1.4-1.2-2.8-2.5z"/>
		<path class="s16" d="m295.5 310.9l-13.3-17.6q-1.1 0.7-2.3 1.3-1.1 0.5-2.3 1-1.2 0.5-2.5 1-1.2 0.4-2.5 0.7l16.6 21.9 5.9 7.7q0.7-1.2 1.4-2.6 0.6-1.3 1.1-2.7 0.6-1.4 1-2.8 0.4-1.4 0.7-2.9z"/>
		<path class="s16" d="m274.9 287l-10.2-8.9-15.8-13.7h-0.5-13.2-0.8l1.7 1.5 22 18.8 10.2 8.8 4.3 3.7q1.3-0.3 2.5-0.7 1.3-0.4 2.5-0.9 1.2-0.5 2.3-1.1 1.2-0.6 2.3-1.3z"/>
		<path class="s16" d="m244.5 323.3l-9.4-12.4-9.5-12.5h-12.5l15.7 20.8 9.4 12.4 10.1 13.4h12.6l-16.4-21.7z"/>
		<path class="s16" d="m213.7 287.8l-0.9-0.8q-0.7 0.8-1.5 1.6-0.7 0.7-1.5 1.4-0.8 0.7-1.7 1.4-0.8 0.7-1.7 1.3l1.2 1 5.5 4.7h12.5z"/>
		<path class="s16" d="m292.7 250l-5.7-5q-0.7 1-1.5 1.9-0.8 0.9-1.6 1.8-0.8 0.9-1.6 1.7-0.9 0.9-1.7 1.7l5.3 4.6 10.6 9.1 3.5 3v-12.5z"/>
		<path class="s16" d="m184 323.3l-9.4-12.4-0.2-0.3-7.3 6.9 1.2 1.7 9.4 12.4 10.2 13.4h12.5l-16.4-21.7z"/>
		<path class="s16" d="m123.6 323.3l-9.4-12.4-9.5-12.5h-12.5l15.7 20.8 9.4 12.4 10.2 13.4h12.5l-16.4-21.7z"/>
		<path class="s16" d="m103.4 297.2q-1.8-0.5-3.5-1.2-1.8-0.6-3.4-1.5-1.7-0.9-3.2-2-1.5-1.1-2.9-2.3-1.3-1.2-2.4-2.4-1.2-1.3-2.3-2.6-1-1.3-2-2.7-0.9-1.4-1.8-2.9-0.8-1.4-1.4-2.7l-14-12.5h-4.4q-1 0-1.9 0.2-0.9 0.1-1.8 0.3-0.9 0.3-1.7 0.7-0.8 0.3-1.6 0.8l21.4 18.6 10.2 8.7 5.4 4.7h12.6z"/>
		<path class="s16" d="m63.1 323.3l-9.4-12.4-9.4-12.5h-12.6l15.7 20.8 9.5 12.4 10.1 13.4h12.6l-16.5-21.7z"/>
		<path class="s16" d="m32 287.6l-11-9.8-1.2-1.1-1.9 1.4 0.2-2.9-18.1-16.1v2.9 9l14.8 12.8 11.2 9.6 5.7 5h12.6l-12.3-10.9z"/>
	</g>
	<path class="s17" d="m67.8 125.8q2.9-0.8 5.9-1.3 3.1-0.5 6.1-0.6 3.1-0.2 6.1 0.1 3.1 0.3 6.1 0.9 1.5 0.3 3 0.8 1.5 0.4 3 0.9 1.5 0.4 2.9 1 1.5 0.6 2.9 1.2 1.4 0.7 2.8 1.4 1.4 0.7 2.7 1.4 1.3 0.8 2.7 1.6 1.3 0.8 2.6 1.7c6.8 4.4 12.9 9.6 18.7 14q1 0.8 2 1.5 1 0.7 2.1 1.4 1.1 0.7 2.2 1.3 1.1 0.6 2.2 1.2 0.9 0.5 1.9 0.9 1 0.4 2 0.6 1 0.3 2 0.4 1.1 0.2 2.1 0.2 1.1 0 2.1-0.1 1.1-0.1 2.2-0.3 1-0.2 2-0.5 1.1-0.3 2-0.8 1.2-0.5 2.4-1 1.1-0.6 2.3-1.2 1.1-0.6 2.2-1.2 1.1-0.7 2.1-1.4c3-1.9 6.2-4.1 9.3-6.3 3.2-2.2 6.4-4.4 9.8-6.6 6.6-4.3 14-8.2 22-10.3q2.9-0.8 6-1.2 3-0.4 6-0.5 3.1 0 6.1 0.4 3.1 0.4 6 1.2c-3.8 1.1-7.5 2.3-11 3.6q-1.3 0.5-2.5 1.1-1.3 0.5-2.6 1.1-1.2 0.6-2.4 1.2-1.3 0.6-2.5 1.2-2.4 1.4-4.7 2.8-2.4 1.4-4.6 2.9-2.3 1.5-4.6 3.1-2.2 1.6-4.3 3.3c-6 4.4-11.7 9.5-18.3 14.3q-1.3 0.9-2.7 1.8-1.3 0.9-2.7 1.7-1.4 0.9-2.8 1.6-1.4 0.8-2.9 1.4-1.6 0.8-3.4 1.4-1.7 0.5-3.5 0.9-1.7 0.4-3.6 0.6-1.8 0.2-3.6 0.2-0.5 0-0.9 0-0.5 0-1-0.1-0.5 0-0.9-0.1-0.5 0-1-0.1-0.4-0.1-0.9-0.2-0.5 0-0.9-0.1-0.5-0.1-0.9-0.2-0.5-0.2-0.9-0.3-0.9-0.2-1.8-0.5-0.8-0.3-1.7-0.6-0.8-0.3-1.6-0.7-0.8-0.4-1.6-0.8-1.5-0.8-2.8-1.6-1.4-0.8-2.8-1.8-1.3-0.9-2.6-1.8-1.3-1-2.5-2.1c-6.3-5.1-11.6-10.3-17.4-14.7q-1.1-0.9-2.2-1.7-1.1-0.7-2.2-1.5-1.1-0.8-2.3-1.5-1.1-0.7-2.3-1.4-1.1-0.7-2.3-1.4-1.1-0.7-2.3-1.3-1.2-0.7-2.4-1.3-1.2-0.6-2.4-1.2c-3.3-1.6-6.7-3-10.2-4.3-3.5-1.3-7.2-2.3-11-3.7z"/>
	<path class="s17" d="m100.3 103q1.8-0.9 3.6-1.4 1.9-0.6 3.8-0.9 2-0.3 3.9-0.3 2 0 3.9 0.3 1 0.1 1.9 0.3 1 0.2 2 0.5 0.9 0.3 1.8 0.6 1 0.3 1.9 0.7 0.9 0.4 1.8 0.8 0.9 0.4 1.7 0.9 0.9 0.4 1.7 0.9 0.9 0.5 1.7 1c4.3 2.7 8.1 5.9 11.5 8.3q0.6 0.5 1.2 0.9 0.5 0.4 1.1 0.7 0.6 0.4 1.2 0.8 0.6 0.3 1.3 0.6 0.4 0.2 0.8 0.4 0.5 0.2 0.9 0.3 0.5 0.1 0.9 0.2 0.5 0.1 1 0.1 0.5 0 1 0 0.5-0.1 1-0.1 0.4-0.1 0.9-0.3 0.5-0.1 1-0.3 0.6-0.3 1.3-0.5 0.6-0.3 1.2-0.6 0.7-0.4 1.3-0.7 0.6-0.4 1.2-0.7c1.8-1.1 3.6-2.3 5.6-3.6 1.9-1.3 4-2.6 6-3.9q1.6-1 3.3-1.9 1.7-0.9 3.5-1.6 1.8-0.8 3.6-1.3 1.8-0.6 3.7-1 1.9-0.4 3.8-0.5 2-0.1 3.9 0.1 1.9 0.2 3.8 0.7 1.9 0.5 3.7 1.3c-2.3 1.1-4.5 2.1-6.5 3.2-2 1.1-3.8 2.2-5.6 3.4-3.6 2.3-6.9 4.8-10.3 7.5-3.5 2.7-6.8 5.8-11 8.9q-0.8 0.6-1.7 1.2-0.8 0.6-1.7 1.1-0.9 0.5-1.8 1-1 0.5-1.9 1-1.1 0.5-2.3 0.9-1.2 0.3-2.4 0.6-1.2 0.3-2.5 0.4-1.2 0.1-2.5 0.1-0.6 0-1.3-0.1-0.6 0-1.3-0.1-0.6-0.1-1.3-0.2-0.6-0.2-1.2-0.4-0.6-0.1-1.2-0.3-0.6-0.2-1.2-0.5-0.5-0.2-1.1-0.4-0.6-0.3-1.1-0.6-0.9-0.5-1.8-1-0.9-0.6-1.8-1.2-0.8-0.6-1.7-1.2-0.8-0.6-1.6-1.3c-3.8-3.3-6.9-6.4-10.2-9.1-1.6-1.4-3.3-2.5-5-3.7-1.7-1.2-3.3-2.3-5.2-3.4-1.8-1.1-3.7-2.1-5.7-3.2-2-1.1-4.2-2.1-6.5-3.4z"/>
</svg>